M48
; DRILL file {KiCad (5.1.10)-1} date 10/14/21 01:54:48
; FORMAT={-:-/ absolute / inch / decimal}
; #@! TF.CreationDate,2021-10-14T01:54:48+08:00
; #@! TF.GenerationSoftware,Kicad,Pcbnew,(5.1.10)-1
; #@! TF.FileFunction,Plated,1,4,PTH
FMAT,2
INCH
T1C0.0118
T2C0.0276
T3C0.0315
T4C0.0354
T5C0.0508
T6C0.0551
T7C0.0630
%
G90
G05
T1
X4.5551Y-4.0472
X4.5551Y-4.2126
X5.122Y-3.9567
X5.189Y-3.9528
X5.1921Y-3.8771
X5.2323Y-3.9567
X5.2362Y-4.1457
X5.2598Y-4.3583
X5.2835Y-3.8937
X5.3228Y-4.3701
X5.3543Y-3.9528
X5.3819Y-4.3701
X5.4145Y-3.9871
X5.437Y-4.0512
X5.4646Y-4.1732
X5.4646Y-4.2126
X5.4882Y-4.063
X5.5197Y-4.1339
X5.6811Y-2.9961
X5.7244Y-2.9488
X5.7638Y-2.0472
X5.7638Y-4.0433
X5.7874Y-4.0709
X6.1024Y-2.7638
X6.1457Y-2.9094
X6.1457Y-3.0
X6.2441Y-3.3465
X6.248Y-3.2913
X6.2874Y-2.4646
X6.3543Y-2.1378
X6.3976Y-2.4606
X6.4291Y-2.437
X6.4291Y-3.5669
X6.437Y-3.1811
X6.437Y-3.315
X6.4685Y-3.7362
X6.4761Y-1.6893
X6.4921Y-2.6339
X6.5162Y-2.6098
X6.5276Y-2.1614
X6.5531Y-2.4547
X6.6024Y-2.0197
X6.6339Y-2.6339
X6.6378Y-2.5866
X6.6417Y-2.9213
X6.6654Y-2.7835
X6.6654Y-2.8583
X6.6811Y-2.5827
X6.6929Y-4.4528
X6.6929Y-4.5315
X6.7005Y-1.6893
X6.7047Y-2.6417
X6.7126Y-1.9606
X6.7323Y-2.8307
X6.7441Y-3.9724
X6.7559Y-2.2362
X6.7559Y-4.5669
X6.757Y-4.6389
X6.7795Y-2.2008
X6.7913Y-2.5394
X6.7972Y-2.4803
X6.7992Y-2.4409
X6.8209Y-2.3445
X6.8268Y-1.5118
X6.8268Y-1.6024
X6.8268Y-2.4803
X6.8307Y-4.0354
X6.8858Y-2.0945
X6.8898Y-2.4921
X6.8937Y-2.8976
X6.9173Y-2.5984
X7.0394Y-2.3465
X7.0394Y-4.3858
X7.1142Y-2.378
X7.126Y-2.5866
X7.126Y-2.6457
X7.169Y-2.8225
X7.1732Y-4.5157
X7.2244Y-2.874
X7.2362Y-2.9213
X7.2756Y-3.7283
X7.2756Y-3.9488
X7.2795Y-4.6024
X7.2835Y-2.9055
X7.4606Y-2.8465
X7.5157Y-2.7087
T2
X5.4134Y-3.7307
X5.4134Y-3.8307
X5.5134Y-3.7307
X5.5134Y-3.8307
X7.1063Y-2.1559
X7.1063Y-2.2559
X7.2063Y-2.1559
X7.2063Y-2.2559
T3
X7.3819Y-2.5315
X7.5819Y-2.5315
T4
X4.8429Y-2.8486
X4.8429Y-2.9486
X4.8429Y-3.0486
X4.8429Y-3.1486
X4.9429Y-2.8986
X4.9429Y-2.9986
X4.9429Y-3.0986
X4.9429Y-3.1986
T5
X4.4488Y-4.5984
X5.8504Y-1.4921
T6
X4.7843Y-1.8433
X4.7843Y-2.0933
X4.7843Y-2.2185
X5.4094Y-1.8433
X5.4094Y-2.2185
T7
X4.7244Y-2.7077
X4.7244Y-3.3396
T0
M30
