%TF.GenerationSoftware,KiCad,Pcbnew,(5.1.10)-1*%
%TF.CreationDate,2021-10-14T01:54:17+08:00*%
%TF.ProjectId,cc1310,63633133-3130-42e6-9b69-6361645f7063,rev?*%
%TF.SameCoordinates,Original*%
%TF.FileFunction,Copper,L3,Inr*%
%TF.FilePolarity,Positive*%
%FSLAX46Y46*%
G04 Gerber Fmt 4.6, Leading zero omitted, Abs format (unit mm)*
G04 Created by KiCad (PCBNEW (5.1.10)-1) date 2021-10-14 01:54:17*
%MOMM*%
%LPD*%
G01*
G04 APERTURE LIST*
%TA.AperFunction,ComponentPad*%
%ADD10C,2.100000*%
%TD*%
%TA.AperFunction,ComponentPad*%
%ADD11C,1.100000*%
%TD*%
%TA.AperFunction,ComponentPad*%
%ADD12R,1.100000X1.100000*%
%TD*%
%TA.AperFunction,ComponentPad*%
%ADD13C,2.400000*%
%TD*%
%TA.AperFunction,ComponentPad*%
%ADD14C,1.400000*%
%TD*%
%TA.AperFunction,ComponentPad*%
%ADD15C,2.000000*%
%TD*%
%TA.AperFunction,ComponentPad*%
%ADD16R,1.935000X1.935000*%
%TD*%
%TA.AperFunction,ViaPad*%
%ADD17C,0.600000*%
%TD*%
G04 APERTURE END LIST*
D10*
%TO.N,GND*%
%TO.C,PS1*%
X137400000Y-46820000D03*
%TO.N,Net-(PS1-Pad4)*%
X137400000Y-56350000D03*
%TO.N,Net-(PS1-Pad3)*%
X121520000Y-56350000D03*
%TO.N,/Vin*%
X121520000Y-53170000D03*
%TO.N,GND*%
X121520000Y-46820000D03*
%TD*%
D11*
%TO.N,Net-(J5-Pad4)*%
%TO.C,J5*%
X140040000Y-94760000D03*
%TO.N,Net-(IC6-Pad39)*%
X140040000Y-97300000D03*
%TO.N,Net-(J5-Pad2)*%
X137500000Y-94760000D03*
D12*
%TO.N,Net-(IC6-Pad40)*%
X137500000Y-97300000D03*
%TD*%
D11*
%TO.N,Net-(J4-Pad4)*%
%TO.C,J4*%
X183040000Y-54760000D03*
%TO.N,Net-(IC5-Pad39)*%
X183040000Y-57300000D03*
%TO.N,Net-(J4-Pad2)*%
X180500000Y-54760000D03*
D12*
%TO.N,Net-(IC5-Pad40)*%
X180500000Y-57300000D03*
%TD*%
D13*
%TO.N,N/C*%
%TO.C,J1*%
X120000000Y-68775000D03*
X120000000Y-84825000D03*
D14*
%TO.N,Net-(IC4-Pad46)*%
X125550000Y-81245000D03*
%TO.N,Net-(IC4-Pad45)*%
X123010000Y-79975000D03*
%TO.N,Net-(IC4-Pad44)*%
X125550000Y-78705000D03*
%TO.N,Net-(IC4-Pad43)*%
X123010000Y-77435000D03*
%TO.N,Net-(IC4-Pad50)*%
X125550000Y-76165000D03*
%TO.N,Net-(IC4-Pad47)*%
X123010000Y-74895000D03*
%TO.N,GND*%
X125550000Y-73625000D03*
X123010000Y-72355000D03*
%TD*%
D15*
%TO.N,GND*%
%TO.C,FB1*%
X187500000Y-64300000D03*
%TO.N,Net-(FB1-Pad2)*%
X192580000Y-64300000D03*
%TD*%
D16*
%TO.N,Net-(AE2-Pad1)*%
%TO.C,AE2*%
X113000000Y-116800000D03*
%TD*%
%TO.N,Net-(AE1-Pad1)*%
%TO.C,AE1*%
X148600000Y-37900000D03*
%TD*%
D17*
%TO.N,GND*%
X173400000Y-38400000D03*
X173400000Y-40700000D03*
X164492500Y-42907500D03*
X170192500Y-42907500D03*
X162500000Y-62500000D03*
X166450000Y-62350000D03*
X172500000Y-64500000D03*
X181000000Y-67200000D03*
X181000000Y-65700000D03*
X115700000Y-107000000D03*
X115700000Y-102800000D03*
X136000000Y-100400000D03*
X133000000Y-105300000D03*
X131878761Y-98478761D03*
X135200000Y-111000000D03*
X136700000Y-111000000D03*
X171600000Y-116000000D03*
X171627482Y-117827482D03*
X182200000Y-114700000D03*
X178800000Y-111400000D03*
X173500000Y-102500000D03*
X171300000Y-100900000D03*
%TO.N,/VCCA_3.3V*%
X168700000Y-74200000D03*
X171000000Y-71900000D03*
X182092496Y-71692504D03*
X183500000Y-73000010D03*
X184800000Y-94700000D03*
X184800000Y-100300000D03*
X164300000Y-94900000D03*
%TO.N,Net-(C28-Pad2)*%
X156100000Y-73900000D03*
X156100000Y-76200000D03*
X163500000Y-80800000D03*
X163500000Y-84200000D03*
X163300000Y-90600000D03*
%TO.N,Net-(C31-Pad1)*%
X189500000Y-72300000D03*
X185000000Y-73800000D03*
%TO.N,Net-(C50-Pad1)*%
X167700000Y-51300000D03*
X170500000Y-49800000D03*
%TO.N,Net-(C54-Pad1)*%
X165800000Y-54900000D03*
X161400000Y-54300000D03*
%TO.N,Net-(C56-Pad1)*%
X159700000Y-62600000D03*
X163300000Y-61900000D03*
X173400000Y-63000000D03*
X169700000Y-65600000D03*
X165511499Y-66288501D03*
%TO.N,Net-(C57-Pad1)*%
X132900000Y-100500000D03*
X139399992Y-103200000D03*
X133600000Y-110700000D03*
%TO.N,Net-(C66-Pad1)*%
X164900000Y-66900000D03*
X168500000Y-66900000D03*
%TO.N,Net-(C67-Pad1)*%
X138100000Y-102900000D03*
X140200000Y-105000000D03*
%TO.N,Net-(C69-Pad1)*%
X173250000Y-59550000D03*
X171600000Y-56800000D03*
X175000000Y-63300000D03*
X175700000Y-66000000D03*
%TO.N,Net-(C71-Pad1)*%
X130100000Y-100500000D03*
X131800000Y-100400000D03*
X134200000Y-98900000D03*
X137528768Y-101271232D03*
%TO.N,Net-(FB1-Pad2)*%
X183800000Y-74200000D03*
X190900000Y-68800000D03*
%TO.N,/MAX10_CLK_50*%
X170000000Y-115100000D03*
X170000000Y-113100000D03*
%TO.N,Net-(IC4-Pad57)*%
X138800000Y-107000000D03*
X147000000Y-103400000D03*
%TO.N,Net-(IC4-Pad56)*%
X138800000Y-106000000D03*
X146400000Y-102700000D03*
%TO.N,Net-(IC4-Pad50)*%
X144300000Y-76100000D03*
X158600000Y-85000000D03*
%TO.N,Net-(IC4-Pad47)*%
X145400000Y-74900000D03*
X158700000Y-83600000D03*
%TO.N,Net-(IC4-Pad33)*%
X169300000Y-70700000D03*
X169300000Y-72600000D03*
%TO.N,/ADC_CLK_10*%
X184900000Y-116900000D03*
X175100000Y-73600000D03*
%TO.N,Net-(IC5-Pad47)*%
X174900000Y-53200000D03*
X172200000Y-55900000D03*
%TO.N,Net-(IC5-Pad40)*%
X172700000Y-62000000D03*
X178800000Y-59600000D03*
%TO.N,Net-(IC5-Pad39)*%
X172649997Y-63000000D03*
X180700000Y-60400000D03*
%TO.N,Net-(IC5-Pad33)*%
X170300000Y-67100000D03*
X168600000Y-65700000D03*
%TO.N,/VCC_IO*%
X146400000Y-52000000D03*
X155000000Y-70200000D03*
%TD*%
M02*
