%TF.GenerationSoftware,KiCad,Pcbnew,(5.1.10)-1*%
%TF.CreationDate,2021-10-14T01:54:17+08:00*%
%TF.ProjectId,cc1310,63633133-3130-42e6-9b69-6361645f7063,rev?*%
%TF.SameCoordinates,Original*%
%TF.FileFunction,Legend,Bot*%
%TF.FilePolarity,Positive*%
%FSLAX46Y46*%
G04 Gerber Fmt 4.6, Leading zero omitted, Abs format (unit mm)*
G04 Created by KiCad (PCBNEW (5.1.10)-1) date 2021-10-14 01:54:17*
%MOMM*%
%LPD*%
G01*
G04 APERTURE LIST*
%ADD10C,2.400000*%
%ADD11C,1.400000*%
%ADD12C,3.550000*%
%ADD13C,2.700000*%
%ADD14C,1.700000*%
%ADD15C,2.300000*%
%ADD16C,1.830000*%
G04 APERTURE END LIST*
%LPC*%
D10*
%TO.C,PS1*%
X137400000Y-46820000D03*
X137400000Y-56350000D03*
X121520000Y-56350000D03*
X121520000Y-53170000D03*
X121520000Y-46820000D03*
%TD*%
D11*
%TO.C,J5*%
X140040000Y-94760000D03*
X140040000Y-97300000D03*
X137500000Y-94760000D03*
G36*
G01*
X136800000Y-97850000D02*
X136800000Y-96750000D01*
G75*
G02*
X136950000Y-96600000I150000J0D01*
G01*
X138050000Y-96600000D01*
G75*
G02*
X138200000Y-96750000I0J-150000D01*
G01*
X138200000Y-97850000D01*
G75*
G02*
X138050000Y-98000000I-150000J0D01*
G01*
X136950000Y-98000000D01*
G75*
G02*
X136800000Y-97850000I0J150000D01*
G01*
G37*
%TD*%
%TO.C,J4*%
X183040000Y-54760000D03*
X183040000Y-57300000D03*
X180500000Y-54760000D03*
G36*
G01*
X179800000Y-57850000D02*
X179800000Y-56750000D01*
G75*
G02*
X179950000Y-56600000I150000J0D01*
G01*
X181050000Y-56600000D01*
G75*
G02*
X181200000Y-56750000I0J-150000D01*
G01*
X181200000Y-57850000D01*
G75*
G02*
X181050000Y-58000000I-150000J0D01*
G01*
X179950000Y-58000000D01*
G75*
G02*
X179800000Y-57850000I0J150000D01*
G01*
G37*
%TD*%
D12*
%TO.C,J1*%
X131900000Y-82950000D03*
X131900000Y-70650000D03*
D13*
X120000000Y-68775000D03*
X120000000Y-84825000D03*
D14*
X125550000Y-81245000D03*
X123010000Y-79975000D03*
X125550000Y-78705000D03*
X123010000Y-77435000D03*
X125550000Y-76165000D03*
X123010000Y-74895000D03*
X125550000Y-73625000D03*
X123010000Y-72355000D03*
%TD*%
D15*
%TO.C,FB1*%
X187500000Y-64300000D03*
X192580000Y-64300000D03*
%TD*%
D16*
%TO.C,AE2*%
X115540000Y-114260000D03*
X115540000Y-119340000D03*
X110460000Y-119340000D03*
X110460000Y-114260000D03*
G36*
G01*
X111882500Y-117767500D02*
X111882500Y-115832500D01*
G75*
G02*
X112032500Y-115682500I150000J0D01*
G01*
X113967500Y-115682500D01*
G75*
G02*
X114117500Y-115832500I0J-150000D01*
G01*
X114117500Y-117767500D01*
G75*
G02*
X113967500Y-117917500I-150000J0D01*
G01*
X112032500Y-117917500D01*
G75*
G02*
X111882500Y-117767500I0J150000D01*
G01*
G37*
%TD*%
%TO.C,AE1*%
X151140000Y-35360000D03*
X151140000Y-40440000D03*
X146060000Y-40440000D03*
X146060000Y-35360000D03*
G36*
G01*
X147482500Y-38867500D02*
X147482500Y-36932500D01*
G75*
G02*
X147632500Y-36782500I150000J0D01*
G01*
X149567500Y-36782500D01*
G75*
G02*
X149717500Y-36932500I0J-150000D01*
G01*
X149717500Y-38867500D01*
G75*
G02*
X149567500Y-39017500I-150000J0D01*
G01*
X147632500Y-39017500D01*
G75*
G02*
X147482500Y-38867500I0J150000D01*
G01*
G37*
%TD*%
M02*
