%TF.GenerationSoftware,KiCad,Pcbnew,(5.1.10)-1*%
%TF.CreationDate,2021-10-14T01:54:17+08:00*%
%TF.ProjectId,cc1310,63633133-3130-42e6-9b69-6361645f7063,rev?*%
%TF.SameCoordinates,Original*%
%TF.FileFunction,Copper,L4,Bot*%
%TF.FilePolarity,Positive*%
%FSLAX46Y46*%
G04 Gerber Fmt 4.6, Leading zero omitted, Abs format (unit mm)*
G04 Created by KiCad (PCBNEW (5.1.10)-1) date 2021-10-14 01:54:17*
%MOMM*%
%LPD*%
G01*
G04 APERTURE LIST*
%TA.AperFunction,ComponentPad*%
%ADD10C,2.100000*%
%TD*%
%TA.AperFunction,ComponentPad*%
%ADD11C,1.100000*%
%TD*%
%TA.AperFunction,ComponentPad*%
%ADD12R,1.100000X1.100000*%
%TD*%
%TA.AperFunction,ComponentPad*%
%ADD13C,2.400000*%
%TD*%
%TA.AperFunction,ComponentPad*%
%ADD14C,1.400000*%
%TD*%
%TA.AperFunction,ComponentPad*%
%ADD15C,2.000000*%
%TD*%
%TA.AperFunction,ComponentPad*%
%ADD16R,1.935000X1.935000*%
%TD*%
%TA.AperFunction,ViaPad*%
%ADD17C,0.600000*%
%TD*%
%TA.AperFunction,Conductor*%
%ADD18C,0.150000*%
%TD*%
%TA.AperFunction,Conductor*%
%ADD19C,0.254000*%
%TD*%
%TA.AperFunction,Conductor*%
%ADD20C,0.100000*%
%TD*%
G04 APERTURE END LIST*
D10*
%TO.P,PS1,5*%
%TO.N,GND*%
X137400000Y-46820000D03*
%TO.P,PS1,4*%
%TO.N,Net-(PS1-Pad4)*%
X137400000Y-56350000D03*
%TO.P,PS1,3*%
%TO.N,Net-(PS1-Pad3)*%
X121520000Y-56350000D03*
%TO.P,PS1,2*%
%TO.N,/Vin*%
X121520000Y-53170000D03*
%TO.P,PS1,1*%
%TO.N,GND*%
X121520000Y-46820000D03*
%TD*%
D11*
%TO.P,J5,4*%
%TO.N,Net-(J5-Pad4)*%
X140040000Y-94760000D03*
%TO.P,J5,3*%
%TO.N,Net-(IC6-Pad39)*%
X140040000Y-97300000D03*
%TO.P,J5,2*%
%TO.N,Net-(J5-Pad2)*%
X137500000Y-94760000D03*
D12*
%TO.P,J5,1*%
%TO.N,Net-(IC6-Pad40)*%
X137500000Y-97300000D03*
%TD*%
D11*
%TO.P,J4,4*%
%TO.N,Net-(J4-Pad4)*%
X183040000Y-54760000D03*
%TO.P,J4,3*%
%TO.N,Net-(IC5-Pad39)*%
X183040000Y-57300000D03*
%TO.P,J4,2*%
%TO.N,Net-(J4-Pad2)*%
X180500000Y-54760000D03*
D12*
%TO.P,J4,1*%
%TO.N,Net-(IC5-Pad40)*%
X180500000Y-57300000D03*
%TD*%
D13*
%TO.P,J1,10*%
%TO.N,N/C*%
X120000000Y-68775000D03*
%TO.P,J1,9*%
X120000000Y-84825000D03*
D14*
%TO.P,J1,8*%
%TO.N,Net-(IC4-Pad46)*%
X125550000Y-81245000D03*
%TO.P,J1,7*%
%TO.N,Net-(IC4-Pad45)*%
X123010000Y-79975000D03*
%TO.P,J1,6*%
%TO.N,Net-(IC4-Pad44)*%
X125550000Y-78705000D03*
%TO.P,J1,5*%
%TO.N,Net-(IC4-Pad43)*%
X123010000Y-77435000D03*
%TO.P,J1,4*%
%TO.N,Net-(IC4-Pad50)*%
X125550000Y-76165000D03*
%TO.P,J1,3*%
%TO.N,Net-(IC4-Pad47)*%
X123010000Y-74895000D03*
%TO.P,J1,2*%
%TO.N,GND*%
X125550000Y-73625000D03*
%TO.P,J1,1*%
X123010000Y-72355000D03*
%TD*%
D15*
%TO.P,FB1,1*%
%TO.N,GND*%
X187500000Y-64300000D03*
%TO.P,FB1,2*%
%TO.N,Net-(FB1-Pad2)*%
X192580000Y-64300000D03*
%TD*%
D16*
%TO.P,AE2,1*%
%TO.N,Net-(AE2-Pad1)*%
X113000000Y-116800000D03*
%TD*%
%TO.P,AE1,1*%
%TO.N,Net-(AE1-Pad1)*%
X148600000Y-37900000D03*
%TD*%
D17*
%TO.N,GND*%
X173400000Y-38400000D03*
X173400000Y-40700000D03*
X164492500Y-42907500D03*
X170192500Y-42907500D03*
X162500000Y-62500000D03*
X166450000Y-62350000D03*
X172500000Y-64500000D03*
X181000000Y-67200000D03*
X181000000Y-65700000D03*
X115700000Y-107000000D03*
X115700000Y-102800000D03*
X136000000Y-100400000D03*
X133000000Y-105300000D03*
X131878761Y-98478761D03*
X135200000Y-111000000D03*
X136700000Y-111000000D03*
X171600000Y-116000000D03*
X171627482Y-117827482D03*
X182200000Y-114700000D03*
X178800000Y-111400000D03*
X173500000Y-102500000D03*
X171300000Y-100900000D03*
%TO.N,/VCCA_3.3V*%
X168700000Y-74200000D03*
X171000000Y-71900000D03*
X182092496Y-71692504D03*
X183500000Y-73000010D03*
X184800000Y-94700000D03*
X184800000Y-100300000D03*
X164300000Y-94900000D03*
%TO.N,Net-(C28-Pad2)*%
X156100000Y-73900000D03*
X156100000Y-76200000D03*
X163500000Y-80800000D03*
X163500000Y-84200000D03*
X163300000Y-90600000D03*
%TO.N,Net-(C31-Pad1)*%
X189500000Y-72300000D03*
X185000000Y-73800000D03*
%TO.N,Net-(C50-Pad1)*%
X167700000Y-51300000D03*
X170500000Y-49800000D03*
%TO.N,Net-(C54-Pad1)*%
X165800000Y-54900000D03*
X161400000Y-54300000D03*
%TO.N,Net-(C56-Pad1)*%
X159700000Y-62600000D03*
X163300000Y-61900000D03*
X173400000Y-63000000D03*
X169700000Y-65600000D03*
X165511499Y-66288501D03*
%TO.N,Net-(C57-Pad1)*%
X132900000Y-100500000D03*
X139399992Y-103200000D03*
X133600000Y-110700000D03*
%TO.N,Net-(C66-Pad1)*%
X164900000Y-66900000D03*
X168500000Y-66900000D03*
%TO.N,Net-(C67-Pad1)*%
X138100000Y-102900000D03*
X140200000Y-105000000D03*
%TO.N,Net-(C69-Pad1)*%
X173250000Y-59550000D03*
X171600000Y-56800000D03*
X175000000Y-63300000D03*
X175700000Y-66000000D03*
%TO.N,Net-(C71-Pad1)*%
X130100000Y-100500000D03*
X131800000Y-100400000D03*
X134200000Y-98900000D03*
X137528768Y-101271232D03*
%TO.N,Net-(FB1-Pad2)*%
X183800000Y-74200000D03*
X190900000Y-68800000D03*
%TO.N,/MAX10_CLK_50*%
X170000000Y-115100000D03*
X170000000Y-113100000D03*
%TO.N,Net-(IC4-Pad57)*%
X138800000Y-107000000D03*
X147000000Y-103400000D03*
%TO.N,Net-(IC4-Pad56)*%
X138800000Y-106000000D03*
X146400000Y-102700000D03*
%TO.N,Net-(IC4-Pad50)*%
X144300000Y-76100000D03*
X158600000Y-85000000D03*
%TO.N,Net-(IC4-Pad47)*%
X145400000Y-74900000D03*
X158700000Y-83600000D03*
%TO.N,Net-(IC4-Pad33)*%
X169300000Y-70700000D03*
X169300000Y-72600000D03*
%TO.N,/ADC_CLK_10*%
X184900000Y-116900000D03*
X175100000Y-73600000D03*
%TO.N,Net-(IC5-Pad47)*%
X174900000Y-53200000D03*
X172200000Y-55900000D03*
%TO.N,Net-(IC5-Pad40)*%
X172700000Y-62000000D03*
X178800000Y-59600000D03*
%TO.N,Net-(IC5-Pad39)*%
X172649997Y-63000000D03*
X180700000Y-60400000D03*
%TO.N,Net-(IC5-Pad33)*%
X170300000Y-67100000D03*
X168600000Y-65700000D03*
%TO.N,/VCC_IO*%
X146400000Y-52000000D03*
X155000000Y-70200000D03*
%TD*%
D18*
%TO.N,GND*%
X173400000Y-38400000D02*
X173400000Y-40700000D01*
X173400000Y-40700000D02*
X173400000Y-40700000D01*
X164492500Y-42907500D02*
X170192500Y-42907500D01*
X170192500Y-42907500D02*
X170192500Y-42907500D01*
X162500000Y-62500000D02*
X166300000Y-62500000D01*
X166300000Y-62500000D02*
X166400000Y-62400000D01*
X168600000Y-64500000D02*
X166450000Y-62350000D01*
X172500000Y-64500000D02*
X168600000Y-64500000D01*
X181000000Y-67200000D02*
X181000000Y-65700000D01*
X115700000Y-107000000D02*
X115700000Y-102800000D01*
X136000000Y-100400000D02*
X133800000Y-100400000D01*
X133800000Y-104500000D02*
X133000000Y-105300000D01*
X133800000Y-100400000D02*
X133800000Y-104500000D01*
X133800000Y-100400000D02*
X131878761Y-98478761D01*
X135200000Y-111000000D02*
X136700000Y-111000000D01*
X133000000Y-108800000D02*
X135200000Y-111000000D01*
X133000000Y-105300000D02*
X133000000Y-108800000D01*
X171600000Y-117800000D02*
X171627482Y-117827482D01*
X171600000Y-116000000D02*
X171600000Y-117800000D01*
X178900000Y-111400000D02*
X178800000Y-111400000D01*
X182200000Y-114700000D02*
X178900000Y-111400000D01*
X173500000Y-102500000D02*
X172900000Y-102500000D01*
X172900000Y-102500000D02*
X171300000Y-100900000D01*
%TO.N,/VCCA_3.3V*%
X168700000Y-74200000D02*
X171000000Y-71900000D01*
X183400002Y-73000010D02*
X183500000Y-73000010D01*
X182092496Y-71692504D02*
X183400002Y-73000010D01*
X184800000Y-94700000D02*
X184800000Y-100300000D01*
X184600000Y-94900000D02*
X184800000Y-94700000D01*
X164300000Y-94900000D02*
X184600000Y-94900000D01*
%TO.N,Net-(C28-Pad2)*%
X156100000Y-73900000D02*
X156100000Y-76200000D01*
X163500000Y-80800000D02*
X163500000Y-84200000D01*
X163300000Y-84400000D02*
X163500000Y-84200000D01*
X163300000Y-90600000D02*
X163300000Y-84400000D01*
%TO.N,Net-(C31-Pad1)*%
X188000000Y-73800000D02*
X185000000Y-73800000D01*
X189500000Y-72300000D02*
X188000000Y-73800000D01*
%TO.N,Net-(C50-Pad1)*%
X167700000Y-51300000D02*
X169000000Y-51300000D01*
X169000000Y-51300000D02*
X170500000Y-49800000D01*
X170500000Y-49800000D02*
X170500000Y-49800000D01*
%TO.N,Net-(C54-Pad1)*%
X165800000Y-54900000D02*
X162000000Y-54900000D01*
X162000000Y-54900000D02*
X161400000Y-54300000D01*
X161400000Y-54300000D02*
X161300000Y-54200000D01*
%TO.N,Net-(C56-Pad1)*%
X159700000Y-62600000D02*
X161100000Y-62600000D01*
X161100000Y-62600000D02*
X161800000Y-61900000D01*
X161800000Y-61900000D02*
X163300000Y-61900000D01*
X163300000Y-61900000D02*
X163300000Y-61900000D01*
X161974999Y-62247999D02*
X161974999Y-62752001D01*
X162322998Y-61900000D02*
X161974999Y-62247999D01*
X161974999Y-62752001D02*
X165511499Y-66288501D01*
X163300000Y-61900000D02*
X162322998Y-61900000D01*
X165511499Y-66288501D02*
X165522998Y-66300000D01*
%TO.N,Net-(C57-Pad1)*%
X138574991Y-102374999D02*
X139399992Y-103200000D01*
X137847999Y-102374999D02*
X138574991Y-102374999D01*
X137574999Y-102647999D02*
X137847999Y-102374999D01*
X137574999Y-110902003D02*
X137574999Y-102647999D01*
X136952001Y-111525001D02*
X137574999Y-110902003D01*
X134849265Y-111525001D02*
X136952001Y-111525001D01*
X134024264Y-110700000D02*
X134849265Y-111525001D01*
X133600000Y-110700000D02*
X134024264Y-110700000D01*
%TO.N,Net-(C66-Pad1)*%
X168500000Y-66900000D02*
X164900000Y-66900000D01*
%TO.N,Net-(C67-Pad1)*%
X138100000Y-102900000D02*
X140200000Y-105000000D01*
X140200000Y-105000000D02*
X140200000Y-105000000D01*
%TO.N,Net-(C69-Pad1)*%
X173250000Y-59550000D02*
X172400000Y-58700000D01*
X172400000Y-58700000D02*
X172400000Y-57700000D01*
X172400000Y-57700000D02*
X172400000Y-57600000D01*
X172400000Y-57600000D02*
X171600000Y-56800000D01*
X171600000Y-56800000D02*
X171600000Y-56800000D01*
X175000000Y-63300000D02*
X175700000Y-64000000D01*
X175700000Y-64000000D02*
X175700000Y-66000000D01*
%TO.N,Net-(C71-Pad1)*%
X130100000Y-100500000D02*
X130500000Y-100100000D01*
X131500000Y-100100000D02*
X131800000Y-100400000D01*
X130500000Y-100100000D02*
X131500000Y-100100000D01*
X137528768Y-101151766D02*
X137528768Y-101271232D01*
X135277002Y-98900000D02*
X137528768Y-101151766D01*
X134200000Y-98900000D02*
X135277002Y-98900000D01*
%TO.N,Net-(FB1-Pad2)*%
X189200000Y-68800000D02*
X190900000Y-68800000D01*
X183800000Y-74200000D02*
X189200000Y-68800000D01*
%TO.N,/MAX10_CLK_50*%
X170000000Y-115100000D02*
X170000000Y-113100000D01*
%TO.N,Net-(IC4-Pad57)*%
X143400000Y-107000000D02*
X147000000Y-103400000D01*
X138800000Y-107000000D02*
X143400000Y-107000000D01*
%TO.N,Net-(IC4-Pad56)*%
X138800000Y-106000000D02*
X142300000Y-106000000D01*
X143100000Y-106000000D02*
X146400000Y-102700000D01*
X142300000Y-106000000D02*
X143100000Y-106000000D01*
%TO.N,Net-(IC4-Pad50)*%
X144300000Y-76100000D02*
X153200000Y-85000000D01*
X153200000Y-85000000D02*
X158600000Y-85000000D01*
%TO.N,Net-(IC4-Pad47)*%
X154100000Y-83600000D02*
X158700000Y-83600000D01*
X145400000Y-74900000D02*
X154100000Y-83600000D01*
%TO.N,Net-(IC4-Pad33)*%
X169300000Y-72600000D02*
X169300000Y-72600000D01*
X169300000Y-72600000D02*
X169300000Y-70700000D01*
%TO.N,Net-(IC5-Pad47)*%
X174900000Y-53200000D02*
X172200000Y-55900000D01*
X172200000Y-55900000D02*
X172200000Y-55900000D01*
%TO.N,Net-(IC5-Pad40)*%
X172700000Y-62000000D02*
X175100000Y-59600000D01*
X175100000Y-59600000D02*
X178800000Y-59600000D01*
%TO.N,Net-(IC5-Pad39)*%
X172649997Y-63000000D02*
X175249997Y-60400000D01*
X175249997Y-60400000D02*
X180700000Y-60400000D01*
%TO.N,Net-(IC5-Pad33)*%
X168600000Y-65700000D02*
X168600000Y-65700000D01*
X168900000Y-65700000D02*
X168600000Y-65700000D01*
X170300000Y-67100000D02*
X168900000Y-65700000D01*
%TO.N,/VCC_IO*%
X146400000Y-52000000D02*
X146400000Y-61600000D01*
X146400000Y-61600000D02*
X155000000Y-70200000D01*
X155000000Y-70200000D02*
X155000000Y-70200000D01*
%TD*%
D19*
%TO.N,GND*%
X199373000Y-129373000D02*
X100627000Y-129373000D01*
X100627000Y-119237372D01*
X109418000Y-119237372D01*
X109418000Y-119442628D01*
X109458043Y-119643940D01*
X109536591Y-119833572D01*
X109650626Y-120004236D01*
X109795764Y-120149374D01*
X109966428Y-120263409D01*
X110156060Y-120341957D01*
X110357372Y-120382000D01*
X110562628Y-120382000D01*
X110763940Y-120341957D01*
X110953572Y-120263409D01*
X111124236Y-120149374D01*
X111269374Y-120004236D01*
X111383409Y-119833572D01*
X111461957Y-119643940D01*
X111502000Y-119442628D01*
X111502000Y-119237372D01*
X114498000Y-119237372D01*
X114498000Y-119442628D01*
X114538043Y-119643940D01*
X114616591Y-119833572D01*
X114730626Y-120004236D01*
X114875764Y-120149374D01*
X115046428Y-120263409D01*
X115236060Y-120341957D01*
X115437372Y-120382000D01*
X115642628Y-120382000D01*
X115843940Y-120341957D01*
X116033572Y-120263409D01*
X116204236Y-120149374D01*
X116349374Y-120004236D01*
X116463409Y-119833572D01*
X116541957Y-119643940D01*
X116582000Y-119442628D01*
X116582000Y-119237372D01*
X116541957Y-119036060D01*
X116463409Y-118846428D01*
X116349374Y-118675764D01*
X116204236Y-118530626D01*
X116033572Y-118416591D01*
X115843940Y-118338043D01*
X115642628Y-118298000D01*
X115437372Y-118298000D01*
X115236060Y-118338043D01*
X115046428Y-118416591D01*
X114875764Y-118530626D01*
X114730626Y-118675764D01*
X114616591Y-118846428D01*
X114538043Y-119036060D01*
X114498000Y-119237372D01*
X111502000Y-119237372D01*
X111461957Y-119036060D01*
X111383409Y-118846428D01*
X111269374Y-118675764D01*
X111124236Y-118530626D01*
X110953572Y-118416591D01*
X110763940Y-118338043D01*
X110562628Y-118298000D01*
X110357372Y-118298000D01*
X110156060Y-118338043D01*
X109966428Y-118416591D01*
X109795764Y-118530626D01*
X109650626Y-118675764D01*
X109536591Y-118846428D01*
X109458043Y-119036060D01*
X109418000Y-119237372D01*
X100627000Y-119237372D01*
X100627000Y-115832500D01*
X111754160Y-115832500D01*
X111754160Y-117767500D01*
X111759508Y-117821801D01*
X111775347Y-117874016D01*
X111801069Y-117922137D01*
X111835684Y-117964316D01*
X111877863Y-117998931D01*
X111925984Y-118024653D01*
X111978199Y-118040492D01*
X112032500Y-118045840D01*
X113967500Y-118045840D01*
X114021801Y-118040492D01*
X114074016Y-118024653D01*
X114122137Y-117998931D01*
X114164316Y-117964316D01*
X114198931Y-117922137D01*
X114224653Y-117874016D01*
X114240492Y-117821801D01*
X114245840Y-117767500D01*
X114245840Y-116843170D01*
X184323000Y-116843170D01*
X184323000Y-116956830D01*
X184345174Y-117068305D01*
X184388669Y-117173312D01*
X184451815Y-117267816D01*
X184532184Y-117348185D01*
X184626688Y-117411331D01*
X184731695Y-117454826D01*
X184843170Y-117477000D01*
X184956830Y-117477000D01*
X185068305Y-117454826D01*
X185173312Y-117411331D01*
X185267816Y-117348185D01*
X185348185Y-117267816D01*
X185411331Y-117173312D01*
X185454826Y-117068305D01*
X185477000Y-116956830D01*
X185477000Y-116843170D01*
X185454826Y-116731695D01*
X185411331Y-116626688D01*
X185348185Y-116532184D01*
X185267816Y-116451815D01*
X185173312Y-116388669D01*
X185068305Y-116345174D01*
X184956830Y-116323000D01*
X184843170Y-116323000D01*
X184731695Y-116345174D01*
X184626688Y-116388669D01*
X184532184Y-116451815D01*
X184451815Y-116532184D01*
X184388669Y-116626688D01*
X184345174Y-116731695D01*
X184323000Y-116843170D01*
X114245840Y-116843170D01*
X114245840Y-115832500D01*
X114240492Y-115778199D01*
X114224653Y-115725984D01*
X114198931Y-115677863D01*
X114164316Y-115635684D01*
X114122137Y-115601069D01*
X114074016Y-115575347D01*
X114021801Y-115559508D01*
X113967500Y-115554160D01*
X112032500Y-115554160D01*
X111978199Y-115559508D01*
X111925984Y-115575347D01*
X111877863Y-115601069D01*
X111835684Y-115635684D01*
X111801069Y-115677863D01*
X111775347Y-115725984D01*
X111759508Y-115778199D01*
X111754160Y-115832500D01*
X100627000Y-115832500D01*
X100627000Y-114157372D01*
X109418000Y-114157372D01*
X109418000Y-114362628D01*
X109458043Y-114563940D01*
X109536591Y-114753572D01*
X109650626Y-114924236D01*
X109795764Y-115069374D01*
X109966428Y-115183409D01*
X110156060Y-115261957D01*
X110357372Y-115302000D01*
X110562628Y-115302000D01*
X110763940Y-115261957D01*
X110953572Y-115183409D01*
X111124236Y-115069374D01*
X111269374Y-114924236D01*
X111383409Y-114753572D01*
X111461957Y-114563940D01*
X111502000Y-114362628D01*
X111502000Y-114157372D01*
X114498000Y-114157372D01*
X114498000Y-114362628D01*
X114538043Y-114563940D01*
X114616591Y-114753572D01*
X114730626Y-114924236D01*
X114875764Y-115069374D01*
X115046428Y-115183409D01*
X115236060Y-115261957D01*
X115437372Y-115302000D01*
X115642628Y-115302000D01*
X115843940Y-115261957D01*
X116033572Y-115183409D01*
X116204236Y-115069374D01*
X116349374Y-114924236D01*
X116463409Y-114753572D01*
X116541957Y-114563940D01*
X116582000Y-114362628D01*
X116582000Y-114157372D01*
X116541957Y-113956060D01*
X116463409Y-113766428D01*
X116349374Y-113595764D01*
X116204236Y-113450626D01*
X116033572Y-113336591D01*
X115843940Y-113258043D01*
X115642628Y-113218000D01*
X115437372Y-113218000D01*
X115236060Y-113258043D01*
X115046428Y-113336591D01*
X114875764Y-113450626D01*
X114730626Y-113595764D01*
X114616591Y-113766428D01*
X114538043Y-113956060D01*
X114498000Y-114157372D01*
X111502000Y-114157372D01*
X111461957Y-113956060D01*
X111383409Y-113766428D01*
X111269374Y-113595764D01*
X111124236Y-113450626D01*
X110953572Y-113336591D01*
X110763940Y-113258043D01*
X110562628Y-113218000D01*
X110357372Y-113218000D01*
X110156060Y-113258043D01*
X109966428Y-113336591D01*
X109795764Y-113450626D01*
X109650626Y-113595764D01*
X109536591Y-113766428D01*
X109458043Y-113956060D01*
X109418000Y-114157372D01*
X100627000Y-114157372D01*
X100627000Y-113043170D01*
X169423000Y-113043170D01*
X169423000Y-113156830D01*
X169445174Y-113268305D01*
X169488669Y-113373312D01*
X169551815Y-113467816D01*
X169632184Y-113548185D01*
X169648001Y-113558753D01*
X169648000Y-114641247D01*
X169632184Y-114651815D01*
X169551815Y-114732184D01*
X169488669Y-114826688D01*
X169445174Y-114931695D01*
X169423000Y-115043170D01*
X169423000Y-115156830D01*
X169445174Y-115268305D01*
X169488669Y-115373312D01*
X169551815Y-115467816D01*
X169632184Y-115548185D01*
X169726688Y-115611331D01*
X169831695Y-115654826D01*
X169943170Y-115677000D01*
X170056830Y-115677000D01*
X170168305Y-115654826D01*
X170273312Y-115611331D01*
X170367816Y-115548185D01*
X170448185Y-115467816D01*
X170511331Y-115373312D01*
X170554826Y-115268305D01*
X170577000Y-115156830D01*
X170577000Y-115043170D01*
X170554826Y-114931695D01*
X170511331Y-114826688D01*
X170448185Y-114732184D01*
X170367816Y-114651815D01*
X170352000Y-114641247D01*
X170352000Y-113558753D01*
X170367816Y-113548185D01*
X170448185Y-113467816D01*
X170511331Y-113373312D01*
X170554826Y-113268305D01*
X170577000Y-113156830D01*
X170577000Y-113043170D01*
X170554826Y-112931695D01*
X170511331Y-112826688D01*
X170448185Y-112732184D01*
X170367816Y-112651815D01*
X170273312Y-112588669D01*
X170168305Y-112545174D01*
X170056830Y-112523000D01*
X169943170Y-112523000D01*
X169831695Y-112545174D01*
X169726688Y-112588669D01*
X169632184Y-112651815D01*
X169551815Y-112732184D01*
X169488669Y-112826688D01*
X169445174Y-112931695D01*
X169423000Y-113043170D01*
X100627000Y-113043170D01*
X100627000Y-110643170D01*
X133023000Y-110643170D01*
X133023000Y-110756830D01*
X133045174Y-110868305D01*
X133088669Y-110973312D01*
X133151815Y-111067816D01*
X133232184Y-111148185D01*
X133326688Y-111211331D01*
X133431695Y-111254826D01*
X133543170Y-111277000D01*
X133656830Y-111277000D01*
X133768305Y-111254826D01*
X133873312Y-111211331D01*
X133967816Y-111148185D01*
X133971231Y-111144770D01*
X134588139Y-111761679D01*
X134599159Y-111775107D01*
X134612587Y-111786127D01*
X134612590Y-111786130D01*
X134652758Y-111819094D01*
X134713908Y-111851780D01*
X134729351Y-111856465D01*
X134780261Y-111871908D01*
X134831973Y-111877001D01*
X134831976Y-111877001D01*
X134849265Y-111878704D01*
X134866554Y-111877001D01*
X136934712Y-111877001D01*
X136952001Y-111878704D01*
X136969290Y-111877001D01*
X136969293Y-111877001D01*
X137021005Y-111871908D01*
X137087357Y-111851780D01*
X137148508Y-111819094D01*
X137202107Y-111775107D01*
X137213136Y-111761668D01*
X137811676Y-111163129D01*
X137825104Y-111152109D01*
X137836127Y-111138678D01*
X137869092Y-111098511D01*
X137901777Y-111037360D01*
X137901778Y-111037359D01*
X137921906Y-110971007D01*
X137926999Y-110919295D01*
X137926999Y-110919293D01*
X137928702Y-110902004D01*
X137926999Y-110884715D01*
X137926999Y-105943170D01*
X138223000Y-105943170D01*
X138223000Y-106056830D01*
X138245174Y-106168305D01*
X138288669Y-106273312D01*
X138351815Y-106367816D01*
X138432184Y-106448185D01*
X138509730Y-106500000D01*
X138432184Y-106551815D01*
X138351815Y-106632184D01*
X138288669Y-106726688D01*
X138245174Y-106831695D01*
X138223000Y-106943170D01*
X138223000Y-107056830D01*
X138245174Y-107168305D01*
X138288669Y-107273312D01*
X138351815Y-107367816D01*
X138432184Y-107448185D01*
X138526688Y-107511331D01*
X138631695Y-107554826D01*
X138743170Y-107577000D01*
X138856830Y-107577000D01*
X138968305Y-107554826D01*
X139073312Y-107511331D01*
X139167816Y-107448185D01*
X139248185Y-107367816D01*
X139258753Y-107352000D01*
X143382711Y-107352000D01*
X143400000Y-107353703D01*
X143417289Y-107352000D01*
X143417292Y-107352000D01*
X143469004Y-107346907D01*
X143535356Y-107326779D01*
X143596507Y-107294093D01*
X143650106Y-107250106D01*
X143661135Y-107236667D01*
X146924515Y-103973289D01*
X146943170Y-103977000D01*
X147056830Y-103977000D01*
X147168305Y-103954826D01*
X147273312Y-103911331D01*
X147367816Y-103848185D01*
X147448185Y-103767816D01*
X147511331Y-103673312D01*
X147554826Y-103568305D01*
X147577000Y-103456830D01*
X147577000Y-103343170D01*
X147554826Y-103231695D01*
X147511331Y-103126688D01*
X147448185Y-103032184D01*
X147367816Y-102951815D01*
X147273312Y-102888669D01*
X147168305Y-102845174D01*
X147056830Y-102823000D01*
X146963838Y-102823000D01*
X146977000Y-102756830D01*
X146977000Y-102643170D01*
X146954826Y-102531695D01*
X146911331Y-102426688D01*
X146848185Y-102332184D01*
X146767816Y-102251815D01*
X146673312Y-102188669D01*
X146568305Y-102145174D01*
X146456830Y-102123000D01*
X146343170Y-102123000D01*
X146231695Y-102145174D01*
X146126688Y-102188669D01*
X146032184Y-102251815D01*
X145951815Y-102332184D01*
X145888669Y-102426688D01*
X145845174Y-102531695D01*
X145823000Y-102643170D01*
X145823000Y-102756830D01*
X145826711Y-102775485D01*
X142954198Y-105648000D01*
X139258753Y-105648000D01*
X139248185Y-105632184D01*
X139167816Y-105551815D01*
X139073312Y-105488669D01*
X138968305Y-105445174D01*
X138856830Y-105423000D01*
X138743170Y-105423000D01*
X138631695Y-105445174D01*
X138526688Y-105488669D01*
X138432184Y-105551815D01*
X138351815Y-105632184D01*
X138288669Y-105726688D01*
X138245174Y-105831695D01*
X138223000Y-105943170D01*
X137926999Y-105943170D01*
X137926999Y-103452881D01*
X137931695Y-103454826D01*
X138043170Y-103477000D01*
X138156830Y-103477000D01*
X138175487Y-103473289D01*
X139626711Y-104924514D01*
X139623000Y-104943170D01*
X139623000Y-105056830D01*
X139645174Y-105168305D01*
X139688669Y-105273312D01*
X139751815Y-105367816D01*
X139832184Y-105448185D01*
X139926688Y-105511331D01*
X140031695Y-105554826D01*
X140143170Y-105577000D01*
X140256830Y-105577000D01*
X140368305Y-105554826D01*
X140473312Y-105511331D01*
X140567816Y-105448185D01*
X140648185Y-105367816D01*
X140711331Y-105273312D01*
X140754826Y-105168305D01*
X140777000Y-105056830D01*
X140777000Y-104943170D01*
X140754826Y-104831695D01*
X140711331Y-104726688D01*
X140648185Y-104632184D01*
X140567816Y-104551815D01*
X140473312Y-104488669D01*
X140368305Y-104445174D01*
X140256830Y-104423000D01*
X140143170Y-104423000D01*
X140124514Y-104426711D01*
X139471819Y-103774017D01*
X139568297Y-103754826D01*
X139673304Y-103711331D01*
X139767808Y-103648185D01*
X139848177Y-103567816D01*
X139911323Y-103473312D01*
X139954818Y-103368305D01*
X139976992Y-103256830D01*
X139976992Y-103143170D01*
X139954818Y-103031695D01*
X139911323Y-102926688D01*
X139848177Y-102832184D01*
X139767808Y-102751815D01*
X139673304Y-102688669D01*
X139568297Y-102645174D01*
X139456822Y-102623000D01*
X139343162Y-102623000D01*
X139324506Y-102626711D01*
X138836126Y-102138331D01*
X138825097Y-102124893D01*
X138771498Y-102080906D01*
X138710347Y-102048220D01*
X138643995Y-102028092D01*
X138592283Y-102022999D01*
X138592280Y-102022999D01*
X138574991Y-102021296D01*
X138557702Y-102022999D01*
X137865287Y-102022999D01*
X137847998Y-102021296D01*
X137830709Y-102022999D01*
X137830707Y-102022999D01*
X137778995Y-102028092D01*
X137712643Y-102048220D01*
X137684177Y-102063435D01*
X137651491Y-102080906D01*
X137624395Y-102103144D01*
X137597893Y-102124893D01*
X137586868Y-102138327D01*
X137338327Y-102386869D01*
X137324894Y-102397893D01*
X137313871Y-102411325D01*
X137280906Y-102451492D01*
X137253112Y-102503493D01*
X137248221Y-102512643D01*
X137229845Y-102573222D01*
X137228093Y-102578996D01*
X137221296Y-102647999D01*
X137223000Y-102665298D01*
X137222999Y-110756200D01*
X136806199Y-111173001D01*
X134995069Y-111173001D01*
X134285399Y-110463332D01*
X134274370Y-110449894D01*
X134220771Y-110405907D01*
X134159620Y-110373221D01*
X134093268Y-110353093D01*
X134059964Y-110349813D01*
X134048185Y-110332184D01*
X133967816Y-110251815D01*
X133873312Y-110188669D01*
X133768305Y-110145174D01*
X133656830Y-110123000D01*
X133543170Y-110123000D01*
X133431695Y-110145174D01*
X133326688Y-110188669D01*
X133232184Y-110251815D01*
X133151815Y-110332184D01*
X133088669Y-110426688D01*
X133045174Y-110531695D01*
X133023000Y-110643170D01*
X100627000Y-110643170D01*
X100627000Y-100443170D01*
X129523000Y-100443170D01*
X129523000Y-100556830D01*
X129545174Y-100668305D01*
X129588669Y-100773312D01*
X129651815Y-100867816D01*
X129732184Y-100948185D01*
X129826688Y-101011331D01*
X129931695Y-101054826D01*
X130043170Y-101077000D01*
X130156830Y-101077000D01*
X130268305Y-101054826D01*
X130373312Y-101011331D01*
X130467816Y-100948185D01*
X130548185Y-100867816D01*
X130611331Y-100773312D01*
X130654826Y-100668305D01*
X130677000Y-100556830D01*
X130677000Y-100452000D01*
X131223000Y-100452000D01*
X131223000Y-100456830D01*
X131245174Y-100568305D01*
X131288669Y-100673312D01*
X131351815Y-100767816D01*
X131432184Y-100848185D01*
X131526688Y-100911331D01*
X131631695Y-100954826D01*
X131743170Y-100977000D01*
X131856830Y-100977000D01*
X131968305Y-100954826D01*
X132073312Y-100911331D01*
X132167816Y-100848185D01*
X132248185Y-100767816D01*
X132311331Y-100673312D01*
X132334867Y-100616490D01*
X132345174Y-100668305D01*
X132388669Y-100773312D01*
X132451815Y-100867816D01*
X132532184Y-100948185D01*
X132626688Y-101011331D01*
X132731695Y-101054826D01*
X132843170Y-101077000D01*
X132956830Y-101077000D01*
X133068305Y-101054826D01*
X133173312Y-101011331D01*
X133267816Y-100948185D01*
X133348185Y-100867816D01*
X133411331Y-100773312D01*
X133454826Y-100668305D01*
X133477000Y-100556830D01*
X133477000Y-100443170D01*
X133454826Y-100331695D01*
X133411331Y-100226688D01*
X133348185Y-100132184D01*
X133267816Y-100051815D01*
X133173312Y-99988669D01*
X133068305Y-99945174D01*
X132956830Y-99923000D01*
X132843170Y-99923000D01*
X132731695Y-99945174D01*
X132626688Y-99988669D01*
X132532184Y-100051815D01*
X132451815Y-100132184D01*
X132388669Y-100226688D01*
X132365133Y-100283510D01*
X132354826Y-100231695D01*
X132311331Y-100126688D01*
X132248185Y-100032184D01*
X132167816Y-99951815D01*
X132073312Y-99888669D01*
X131968305Y-99845174D01*
X131856830Y-99823000D01*
X131743170Y-99823000D01*
X131722375Y-99827136D01*
X131696507Y-99805907D01*
X131635356Y-99773221D01*
X131569004Y-99753093D01*
X131517292Y-99748000D01*
X131517289Y-99748000D01*
X131500000Y-99746297D01*
X131482711Y-99748000D01*
X130517280Y-99748000D01*
X130499999Y-99746298D01*
X130482718Y-99748000D01*
X130482708Y-99748000D01*
X130430996Y-99753093D01*
X130364644Y-99773221D01*
X130336178Y-99788436D01*
X130303492Y-99805907D01*
X130282665Y-99823000D01*
X130249894Y-99849894D01*
X130238870Y-99863328D01*
X130175486Y-99926711D01*
X130156830Y-99923000D01*
X130043170Y-99923000D01*
X129931695Y-99945174D01*
X129826688Y-99988669D01*
X129732184Y-100051815D01*
X129651815Y-100132184D01*
X129588669Y-100226688D01*
X129545174Y-100331695D01*
X129523000Y-100443170D01*
X100627000Y-100443170D01*
X100627000Y-98843170D01*
X133623000Y-98843170D01*
X133623000Y-98956830D01*
X133645174Y-99068305D01*
X133688669Y-99173312D01*
X133751815Y-99267816D01*
X133832184Y-99348185D01*
X133926688Y-99411331D01*
X134031695Y-99454826D01*
X134143170Y-99477000D01*
X134256830Y-99477000D01*
X134368305Y-99454826D01*
X134473312Y-99411331D01*
X134567816Y-99348185D01*
X134648185Y-99267816D01*
X134658753Y-99252000D01*
X135131200Y-99252000D01*
X136976339Y-101097140D01*
X136973942Y-101102927D01*
X136951768Y-101214402D01*
X136951768Y-101328062D01*
X136973942Y-101439537D01*
X137017437Y-101544544D01*
X137080583Y-101639048D01*
X137160952Y-101719417D01*
X137255456Y-101782563D01*
X137360463Y-101826058D01*
X137471938Y-101848232D01*
X137585598Y-101848232D01*
X137697073Y-101826058D01*
X137802080Y-101782563D01*
X137896584Y-101719417D01*
X137976953Y-101639048D01*
X138040099Y-101544544D01*
X138083594Y-101439537D01*
X138105768Y-101328062D01*
X138105768Y-101214402D01*
X138083594Y-101102927D01*
X138040099Y-100997920D01*
X137976953Y-100903416D01*
X137896584Y-100823047D01*
X137802080Y-100759901D01*
X137697073Y-100716406D01*
X137585598Y-100694232D01*
X137569037Y-100694232D01*
X135538137Y-98663333D01*
X135527108Y-98649894D01*
X135473509Y-98605907D01*
X135412358Y-98573221D01*
X135346006Y-98553093D01*
X135294294Y-98548000D01*
X135294291Y-98548000D01*
X135277002Y-98546297D01*
X135259713Y-98548000D01*
X134658753Y-98548000D01*
X134648185Y-98532184D01*
X134567816Y-98451815D01*
X134473312Y-98388669D01*
X134368305Y-98345174D01*
X134256830Y-98323000D01*
X134143170Y-98323000D01*
X134031695Y-98345174D01*
X133926688Y-98388669D01*
X133832184Y-98451815D01*
X133751815Y-98532184D01*
X133688669Y-98626688D01*
X133645174Y-98731695D01*
X133623000Y-98843170D01*
X100627000Y-98843170D01*
X100627000Y-96750000D01*
X136671660Y-96750000D01*
X136671660Y-97850000D01*
X136677008Y-97904301D01*
X136692847Y-97956516D01*
X136718569Y-98004637D01*
X136753184Y-98046816D01*
X136795363Y-98081431D01*
X136843484Y-98107153D01*
X136895699Y-98122992D01*
X136950000Y-98128340D01*
X138050000Y-98128340D01*
X138104301Y-98122992D01*
X138156516Y-98107153D01*
X138204637Y-98081431D01*
X138246816Y-98046816D01*
X138281431Y-98004637D01*
X138307153Y-97956516D01*
X138322992Y-97904301D01*
X138328340Y-97850000D01*
X138328340Y-97218548D01*
X139213000Y-97218548D01*
X139213000Y-97381452D01*
X139244782Y-97541227D01*
X139307123Y-97691731D01*
X139397628Y-97827181D01*
X139512819Y-97942372D01*
X139648269Y-98032877D01*
X139798773Y-98095218D01*
X139958548Y-98127000D01*
X140121452Y-98127000D01*
X140281227Y-98095218D01*
X140431731Y-98032877D01*
X140567181Y-97942372D01*
X140682372Y-97827181D01*
X140772877Y-97691731D01*
X140835218Y-97541227D01*
X140867000Y-97381452D01*
X140867000Y-97218548D01*
X140835218Y-97058773D01*
X140772877Y-96908269D01*
X140682372Y-96772819D01*
X140567181Y-96657628D01*
X140431731Y-96567123D01*
X140281227Y-96504782D01*
X140121452Y-96473000D01*
X139958548Y-96473000D01*
X139798773Y-96504782D01*
X139648269Y-96567123D01*
X139512819Y-96657628D01*
X139397628Y-96772819D01*
X139307123Y-96908269D01*
X139244782Y-97058773D01*
X139213000Y-97218548D01*
X138328340Y-97218548D01*
X138328340Y-96750000D01*
X138322992Y-96695699D01*
X138307153Y-96643484D01*
X138281431Y-96595363D01*
X138246816Y-96553184D01*
X138204637Y-96518569D01*
X138156516Y-96492847D01*
X138104301Y-96477008D01*
X138050000Y-96471660D01*
X136950000Y-96471660D01*
X136895699Y-96477008D01*
X136843484Y-96492847D01*
X136795363Y-96518569D01*
X136753184Y-96553184D01*
X136718569Y-96595363D01*
X136692847Y-96643484D01*
X136677008Y-96695699D01*
X136671660Y-96750000D01*
X100627000Y-96750000D01*
X100627000Y-94678548D01*
X136673000Y-94678548D01*
X136673000Y-94841452D01*
X136704782Y-95001227D01*
X136767123Y-95151731D01*
X136857628Y-95287181D01*
X136972819Y-95402372D01*
X137108269Y-95492877D01*
X137258773Y-95555218D01*
X137418548Y-95587000D01*
X137581452Y-95587000D01*
X137741227Y-95555218D01*
X137891731Y-95492877D01*
X138027181Y-95402372D01*
X138142372Y-95287181D01*
X138232877Y-95151731D01*
X138295218Y-95001227D01*
X138327000Y-94841452D01*
X138327000Y-94678548D01*
X139213000Y-94678548D01*
X139213000Y-94841452D01*
X139244782Y-95001227D01*
X139307123Y-95151731D01*
X139397628Y-95287181D01*
X139512819Y-95402372D01*
X139648269Y-95492877D01*
X139798773Y-95555218D01*
X139958548Y-95587000D01*
X140121452Y-95587000D01*
X140281227Y-95555218D01*
X140431731Y-95492877D01*
X140567181Y-95402372D01*
X140682372Y-95287181D01*
X140772877Y-95151731D01*
X140835218Y-95001227D01*
X140866658Y-94843170D01*
X163723000Y-94843170D01*
X163723000Y-94956830D01*
X163745174Y-95068305D01*
X163788669Y-95173312D01*
X163851815Y-95267816D01*
X163932184Y-95348185D01*
X164026688Y-95411331D01*
X164131695Y-95454826D01*
X164243170Y-95477000D01*
X164356830Y-95477000D01*
X164468305Y-95454826D01*
X164573312Y-95411331D01*
X164667816Y-95348185D01*
X164748185Y-95267816D01*
X164758753Y-95252000D01*
X184448000Y-95252000D01*
X184448001Y-99841246D01*
X184432184Y-99851815D01*
X184351815Y-99932184D01*
X184288669Y-100026688D01*
X184245174Y-100131695D01*
X184223000Y-100243170D01*
X184223000Y-100356830D01*
X184245174Y-100468305D01*
X184288669Y-100573312D01*
X184351815Y-100667816D01*
X184432184Y-100748185D01*
X184526688Y-100811331D01*
X184631695Y-100854826D01*
X184743170Y-100877000D01*
X184856830Y-100877000D01*
X184968305Y-100854826D01*
X185073312Y-100811331D01*
X185167816Y-100748185D01*
X185248185Y-100667816D01*
X185311331Y-100573312D01*
X185354826Y-100468305D01*
X185377000Y-100356830D01*
X185377000Y-100243170D01*
X185354826Y-100131695D01*
X185311331Y-100026688D01*
X185248185Y-99932184D01*
X185167816Y-99851815D01*
X185152000Y-99841247D01*
X185152000Y-95158753D01*
X185167816Y-95148185D01*
X185248185Y-95067816D01*
X185311331Y-94973312D01*
X185354826Y-94868305D01*
X185377000Y-94756830D01*
X185377000Y-94643170D01*
X185354826Y-94531695D01*
X185311331Y-94426688D01*
X185248185Y-94332184D01*
X185167816Y-94251815D01*
X185073312Y-94188669D01*
X184968305Y-94145174D01*
X184856830Y-94123000D01*
X184743170Y-94123000D01*
X184631695Y-94145174D01*
X184526688Y-94188669D01*
X184432184Y-94251815D01*
X184351815Y-94332184D01*
X184288669Y-94426688D01*
X184245174Y-94531695D01*
X184241931Y-94548000D01*
X164758753Y-94548000D01*
X164748185Y-94532184D01*
X164667816Y-94451815D01*
X164573312Y-94388669D01*
X164468305Y-94345174D01*
X164356830Y-94323000D01*
X164243170Y-94323000D01*
X164131695Y-94345174D01*
X164026688Y-94388669D01*
X163932184Y-94451815D01*
X163851815Y-94532184D01*
X163788669Y-94626688D01*
X163745174Y-94731695D01*
X163723000Y-94843170D01*
X140866658Y-94843170D01*
X140867000Y-94841452D01*
X140867000Y-94678548D01*
X140835218Y-94518773D01*
X140772877Y-94368269D01*
X140682372Y-94232819D01*
X140567181Y-94117628D01*
X140431731Y-94027123D01*
X140281227Y-93964782D01*
X140121452Y-93933000D01*
X139958548Y-93933000D01*
X139798773Y-93964782D01*
X139648269Y-94027123D01*
X139512819Y-94117628D01*
X139397628Y-94232819D01*
X139307123Y-94368269D01*
X139244782Y-94518773D01*
X139213000Y-94678548D01*
X138327000Y-94678548D01*
X138295218Y-94518773D01*
X138232877Y-94368269D01*
X138142372Y-94232819D01*
X138027181Y-94117628D01*
X137891731Y-94027123D01*
X137741227Y-93964782D01*
X137581452Y-93933000D01*
X137418548Y-93933000D01*
X137258773Y-93964782D01*
X137108269Y-94027123D01*
X136972819Y-94117628D01*
X136857628Y-94232819D01*
X136767123Y-94368269D01*
X136704782Y-94518773D01*
X136673000Y-94678548D01*
X100627000Y-94678548D01*
X100627000Y-90543170D01*
X162723000Y-90543170D01*
X162723000Y-90656830D01*
X162745174Y-90768305D01*
X162788669Y-90873312D01*
X162851815Y-90967816D01*
X162932184Y-91048185D01*
X163026688Y-91111331D01*
X163131695Y-91154826D01*
X163243170Y-91177000D01*
X163356830Y-91177000D01*
X163468305Y-91154826D01*
X163573312Y-91111331D01*
X163667816Y-91048185D01*
X163748185Y-90967816D01*
X163811331Y-90873312D01*
X163854826Y-90768305D01*
X163877000Y-90656830D01*
X163877000Y-90543170D01*
X163854826Y-90431695D01*
X163811331Y-90326688D01*
X163748185Y-90232184D01*
X163667816Y-90151815D01*
X163652000Y-90141247D01*
X163652000Y-84758069D01*
X163668305Y-84754826D01*
X163773312Y-84711331D01*
X163867816Y-84648185D01*
X163948185Y-84567816D01*
X164011331Y-84473312D01*
X164054826Y-84368305D01*
X164077000Y-84256830D01*
X164077000Y-84143170D01*
X164054826Y-84031695D01*
X164011331Y-83926688D01*
X163948185Y-83832184D01*
X163867816Y-83751815D01*
X163852000Y-83741247D01*
X163852000Y-81258753D01*
X163867816Y-81248185D01*
X163948185Y-81167816D01*
X164011331Y-81073312D01*
X164054826Y-80968305D01*
X164077000Y-80856830D01*
X164077000Y-80743170D01*
X164054826Y-80631695D01*
X164011331Y-80526688D01*
X163948185Y-80432184D01*
X163867816Y-80351815D01*
X163773312Y-80288669D01*
X163668305Y-80245174D01*
X163556830Y-80223000D01*
X163443170Y-80223000D01*
X163331695Y-80245174D01*
X163226688Y-80288669D01*
X163132184Y-80351815D01*
X163051815Y-80432184D01*
X162988669Y-80526688D01*
X162945174Y-80631695D01*
X162923000Y-80743170D01*
X162923000Y-80856830D01*
X162945174Y-80968305D01*
X162988669Y-81073312D01*
X163051815Y-81167816D01*
X163132184Y-81248185D01*
X163148000Y-81258753D01*
X163148001Y-83741246D01*
X163132184Y-83751815D01*
X163051815Y-83832184D01*
X162988669Y-83926688D01*
X162945174Y-84031695D01*
X162923000Y-84143170D01*
X162923000Y-84256830D01*
X162945174Y-84368305D01*
X162948603Y-84376585D01*
X162946297Y-84400000D01*
X162948001Y-84417299D01*
X162948000Y-90141247D01*
X162932184Y-90151815D01*
X162851815Y-90232184D01*
X162788669Y-90326688D01*
X162745174Y-90431695D01*
X162723000Y-90543170D01*
X100627000Y-90543170D01*
X100627000Y-84679528D01*
X118523000Y-84679528D01*
X118523000Y-84970472D01*
X118579760Y-85255825D01*
X118691099Y-85524622D01*
X118852739Y-85766533D01*
X119058467Y-85972261D01*
X119300378Y-86133901D01*
X119569175Y-86245240D01*
X119854528Y-86302000D01*
X120145472Y-86302000D01*
X120430825Y-86245240D01*
X120699622Y-86133901D01*
X120941533Y-85972261D01*
X121147261Y-85766533D01*
X121308901Y-85524622D01*
X121420240Y-85255825D01*
X121477000Y-84970472D01*
X121477000Y-84679528D01*
X121420240Y-84394175D01*
X121308901Y-84125378D01*
X121147261Y-83883467D01*
X120941533Y-83677739D01*
X120699622Y-83516099D01*
X120430825Y-83404760D01*
X120145472Y-83348000D01*
X119854528Y-83348000D01*
X119569175Y-83404760D01*
X119300378Y-83516099D01*
X119058467Y-83677739D01*
X118852739Y-83883467D01*
X118691099Y-84125378D01*
X118579760Y-84394175D01*
X118523000Y-84679528D01*
X100627000Y-84679528D01*
X100627000Y-82762669D01*
X129998000Y-82762669D01*
X129998000Y-83137331D01*
X130071093Y-83504793D01*
X130214469Y-83850935D01*
X130422620Y-84162454D01*
X130687546Y-84427380D01*
X130999065Y-84635531D01*
X131345207Y-84778907D01*
X131712669Y-84852000D01*
X132087331Y-84852000D01*
X132454793Y-84778907D01*
X132800935Y-84635531D01*
X133112454Y-84427380D01*
X133377380Y-84162454D01*
X133585531Y-83850935D01*
X133728907Y-83504793D01*
X133802000Y-83137331D01*
X133802000Y-82762669D01*
X133728907Y-82395207D01*
X133585531Y-82049065D01*
X133377380Y-81737546D01*
X133112454Y-81472620D01*
X132800935Y-81264469D01*
X132454793Y-81121093D01*
X132087331Y-81048000D01*
X131712669Y-81048000D01*
X131345207Y-81121093D01*
X130999065Y-81264469D01*
X130687546Y-81472620D01*
X130422620Y-81737546D01*
X130214469Y-82049065D01*
X130071093Y-82395207D01*
X129998000Y-82762669D01*
X100627000Y-82762669D01*
X100627000Y-81148774D01*
X124573000Y-81148774D01*
X124573000Y-81341226D01*
X124610546Y-81529980D01*
X124684194Y-81707783D01*
X124791115Y-81867801D01*
X124927199Y-82003885D01*
X125087217Y-82110806D01*
X125265020Y-82184454D01*
X125453774Y-82222000D01*
X125646226Y-82222000D01*
X125834980Y-82184454D01*
X126012783Y-82110806D01*
X126172801Y-82003885D01*
X126308885Y-81867801D01*
X126415806Y-81707783D01*
X126489454Y-81529980D01*
X126527000Y-81341226D01*
X126527000Y-81148774D01*
X126489454Y-80960020D01*
X126415806Y-80782217D01*
X126308885Y-80622199D01*
X126172801Y-80486115D01*
X126012783Y-80379194D01*
X125834980Y-80305546D01*
X125646226Y-80268000D01*
X125453774Y-80268000D01*
X125265020Y-80305546D01*
X125087217Y-80379194D01*
X124927199Y-80486115D01*
X124791115Y-80622199D01*
X124684194Y-80782217D01*
X124610546Y-80960020D01*
X124573000Y-81148774D01*
X100627000Y-81148774D01*
X100627000Y-79878774D01*
X122033000Y-79878774D01*
X122033000Y-80071226D01*
X122070546Y-80259980D01*
X122144194Y-80437783D01*
X122251115Y-80597801D01*
X122387199Y-80733885D01*
X122547217Y-80840806D01*
X122725020Y-80914454D01*
X122913774Y-80952000D01*
X123106226Y-80952000D01*
X123294980Y-80914454D01*
X123472783Y-80840806D01*
X123632801Y-80733885D01*
X123768885Y-80597801D01*
X123875806Y-80437783D01*
X123949454Y-80259980D01*
X123987000Y-80071226D01*
X123987000Y-79878774D01*
X123949454Y-79690020D01*
X123875806Y-79512217D01*
X123768885Y-79352199D01*
X123632801Y-79216115D01*
X123472783Y-79109194D01*
X123294980Y-79035546D01*
X123106226Y-78998000D01*
X122913774Y-78998000D01*
X122725020Y-79035546D01*
X122547217Y-79109194D01*
X122387199Y-79216115D01*
X122251115Y-79352199D01*
X122144194Y-79512217D01*
X122070546Y-79690020D01*
X122033000Y-79878774D01*
X100627000Y-79878774D01*
X100627000Y-78608774D01*
X124573000Y-78608774D01*
X124573000Y-78801226D01*
X124610546Y-78989980D01*
X124684194Y-79167783D01*
X124791115Y-79327801D01*
X124927199Y-79463885D01*
X125087217Y-79570806D01*
X125265020Y-79644454D01*
X125453774Y-79682000D01*
X125646226Y-79682000D01*
X125834980Y-79644454D01*
X126012783Y-79570806D01*
X126172801Y-79463885D01*
X126308885Y-79327801D01*
X126415806Y-79167783D01*
X126489454Y-78989980D01*
X126527000Y-78801226D01*
X126527000Y-78608774D01*
X126489454Y-78420020D01*
X126415806Y-78242217D01*
X126308885Y-78082199D01*
X126172801Y-77946115D01*
X126012783Y-77839194D01*
X125834980Y-77765546D01*
X125646226Y-77728000D01*
X125453774Y-77728000D01*
X125265020Y-77765546D01*
X125087217Y-77839194D01*
X124927199Y-77946115D01*
X124791115Y-78082199D01*
X124684194Y-78242217D01*
X124610546Y-78420020D01*
X124573000Y-78608774D01*
X100627000Y-78608774D01*
X100627000Y-77338774D01*
X122033000Y-77338774D01*
X122033000Y-77531226D01*
X122070546Y-77719980D01*
X122144194Y-77897783D01*
X122251115Y-78057801D01*
X122387199Y-78193885D01*
X122547217Y-78300806D01*
X122725020Y-78374454D01*
X122913774Y-78412000D01*
X123106226Y-78412000D01*
X123294980Y-78374454D01*
X123472783Y-78300806D01*
X123632801Y-78193885D01*
X123768885Y-78057801D01*
X123875806Y-77897783D01*
X123949454Y-77719980D01*
X123987000Y-77531226D01*
X123987000Y-77338774D01*
X123949454Y-77150020D01*
X123875806Y-76972217D01*
X123768885Y-76812199D01*
X123632801Y-76676115D01*
X123472783Y-76569194D01*
X123294980Y-76495546D01*
X123106226Y-76458000D01*
X122913774Y-76458000D01*
X122725020Y-76495546D01*
X122547217Y-76569194D01*
X122387199Y-76676115D01*
X122251115Y-76812199D01*
X122144194Y-76972217D01*
X122070546Y-77150020D01*
X122033000Y-77338774D01*
X100627000Y-77338774D01*
X100627000Y-76068774D01*
X124573000Y-76068774D01*
X124573000Y-76261226D01*
X124610546Y-76449980D01*
X124684194Y-76627783D01*
X124791115Y-76787801D01*
X124927199Y-76923885D01*
X125087217Y-77030806D01*
X125265020Y-77104454D01*
X125453774Y-77142000D01*
X125646226Y-77142000D01*
X125834980Y-77104454D01*
X126012783Y-77030806D01*
X126172801Y-76923885D01*
X126308885Y-76787801D01*
X126415806Y-76627783D01*
X126489454Y-76449980D01*
X126527000Y-76261226D01*
X126527000Y-76068774D01*
X126521907Y-76043170D01*
X143723000Y-76043170D01*
X143723000Y-76156830D01*
X143745174Y-76268305D01*
X143788669Y-76373312D01*
X143851815Y-76467816D01*
X143932184Y-76548185D01*
X144026688Y-76611331D01*
X144131695Y-76654826D01*
X144243170Y-76677000D01*
X144356830Y-76677000D01*
X144375487Y-76673289D01*
X152938874Y-85236678D01*
X152949894Y-85250106D01*
X152963322Y-85261126D01*
X152963325Y-85261129D01*
X153003493Y-85294093D01*
X153064643Y-85326779D01*
X153080086Y-85331464D01*
X153130996Y-85346907D01*
X153182708Y-85352000D01*
X153182711Y-85352000D01*
X153200000Y-85353703D01*
X153217289Y-85352000D01*
X158141247Y-85352000D01*
X158151815Y-85367816D01*
X158232184Y-85448185D01*
X158326688Y-85511331D01*
X158431695Y-85554826D01*
X158543170Y-85577000D01*
X158656830Y-85577000D01*
X158768305Y-85554826D01*
X158873312Y-85511331D01*
X158967816Y-85448185D01*
X159048185Y-85367816D01*
X159111331Y-85273312D01*
X159154826Y-85168305D01*
X159177000Y-85056830D01*
X159177000Y-84943170D01*
X159154826Y-84831695D01*
X159111331Y-84726688D01*
X159048185Y-84632184D01*
X158967816Y-84551815D01*
X158873312Y-84488669D01*
X158768305Y-84445174D01*
X158656830Y-84423000D01*
X158543170Y-84423000D01*
X158431695Y-84445174D01*
X158326688Y-84488669D01*
X158232184Y-84551815D01*
X158151815Y-84632184D01*
X158141247Y-84648000D01*
X153345804Y-84648000D01*
X144873289Y-76175487D01*
X144877000Y-76156830D01*
X144877000Y-76043170D01*
X144854826Y-75931695D01*
X144811331Y-75826688D01*
X144748185Y-75732184D01*
X144667816Y-75651815D01*
X144573312Y-75588669D01*
X144468305Y-75545174D01*
X144356830Y-75523000D01*
X144243170Y-75523000D01*
X144131695Y-75545174D01*
X144026688Y-75588669D01*
X143932184Y-75651815D01*
X143851815Y-75732184D01*
X143788669Y-75826688D01*
X143745174Y-75931695D01*
X143723000Y-76043170D01*
X126521907Y-76043170D01*
X126489454Y-75880020D01*
X126415806Y-75702217D01*
X126308885Y-75542199D01*
X126172801Y-75406115D01*
X126012783Y-75299194D01*
X125834980Y-75225546D01*
X125646226Y-75188000D01*
X125453774Y-75188000D01*
X125265020Y-75225546D01*
X125087217Y-75299194D01*
X124927199Y-75406115D01*
X124791115Y-75542199D01*
X124684194Y-75702217D01*
X124610546Y-75880020D01*
X124573000Y-76068774D01*
X100627000Y-76068774D01*
X100627000Y-74798774D01*
X122033000Y-74798774D01*
X122033000Y-74991226D01*
X122070546Y-75179980D01*
X122144194Y-75357783D01*
X122251115Y-75517801D01*
X122387199Y-75653885D01*
X122547217Y-75760806D01*
X122725020Y-75834454D01*
X122913774Y-75872000D01*
X123106226Y-75872000D01*
X123294980Y-75834454D01*
X123472783Y-75760806D01*
X123632801Y-75653885D01*
X123768885Y-75517801D01*
X123875806Y-75357783D01*
X123949454Y-75179980D01*
X123987000Y-74991226D01*
X123987000Y-74798774D01*
X123949454Y-74610020D01*
X123923048Y-74546269D01*
X124808336Y-74546269D01*
X124867797Y-74780037D01*
X125106242Y-74890934D01*
X125361740Y-74953183D01*
X125624473Y-74964390D01*
X125884344Y-74924125D01*
X126106072Y-74843170D01*
X144823000Y-74843170D01*
X144823000Y-74956830D01*
X144845174Y-75068305D01*
X144888669Y-75173312D01*
X144951815Y-75267816D01*
X145032184Y-75348185D01*
X145126688Y-75411331D01*
X145231695Y-75454826D01*
X145343170Y-75477000D01*
X145456830Y-75477000D01*
X145475487Y-75473289D01*
X153838870Y-83836673D01*
X153849894Y-83850106D01*
X153863325Y-83861128D01*
X153903492Y-83894093D01*
X153925595Y-83905907D01*
X153964644Y-83926779D01*
X154030996Y-83946907D01*
X154082708Y-83952000D01*
X154082711Y-83952000D01*
X154100000Y-83953703D01*
X154117289Y-83952000D01*
X158241247Y-83952000D01*
X158251815Y-83967816D01*
X158332184Y-84048185D01*
X158426688Y-84111331D01*
X158531695Y-84154826D01*
X158643170Y-84177000D01*
X158756830Y-84177000D01*
X158868305Y-84154826D01*
X158973312Y-84111331D01*
X159067816Y-84048185D01*
X159148185Y-83967816D01*
X159211331Y-83873312D01*
X159254826Y-83768305D01*
X159277000Y-83656830D01*
X159277000Y-83543170D01*
X159254826Y-83431695D01*
X159211331Y-83326688D01*
X159148185Y-83232184D01*
X159067816Y-83151815D01*
X158973312Y-83088669D01*
X158868305Y-83045174D01*
X158756830Y-83023000D01*
X158643170Y-83023000D01*
X158531695Y-83045174D01*
X158426688Y-83088669D01*
X158332184Y-83151815D01*
X158251815Y-83232184D01*
X158241247Y-83248000D01*
X154245803Y-83248000D01*
X145973289Y-74975487D01*
X145977000Y-74956830D01*
X145977000Y-74843170D01*
X145954826Y-74731695D01*
X145911331Y-74626688D01*
X145848185Y-74532184D01*
X145767816Y-74451815D01*
X145673312Y-74388669D01*
X145568305Y-74345174D01*
X145456830Y-74323000D01*
X145343170Y-74323000D01*
X145231695Y-74345174D01*
X145126688Y-74388669D01*
X145032184Y-74451815D01*
X144951815Y-74532184D01*
X144888669Y-74626688D01*
X144845174Y-74731695D01*
X144823000Y-74843170D01*
X126106072Y-74843170D01*
X126131366Y-74833935D01*
X126232203Y-74780037D01*
X126291664Y-74546269D01*
X125550000Y-73804605D01*
X124808336Y-74546269D01*
X123923048Y-74546269D01*
X123875806Y-74432217D01*
X123768885Y-74272199D01*
X123632801Y-74136115D01*
X123472783Y-74029194D01*
X123294980Y-73955546D01*
X123106226Y-73918000D01*
X122913774Y-73918000D01*
X122725020Y-73955546D01*
X122547217Y-74029194D01*
X122387199Y-74136115D01*
X122251115Y-74272199D01*
X122144194Y-74432217D01*
X122070546Y-74610020D01*
X122033000Y-74798774D01*
X100627000Y-74798774D01*
X100627000Y-73699473D01*
X124210610Y-73699473D01*
X124250875Y-73959344D01*
X124341065Y-74206366D01*
X124394963Y-74307203D01*
X124628731Y-74366664D01*
X125370395Y-73625000D01*
X125729605Y-73625000D01*
X126471269Y-74366664D01*
X126705037Y-74307203D01*
X126815934Y-74068758D01*
X126870895Y-73843170D01*
X155523000Y-73843170D01*
X155523000Y-73956830D01*
X155545174Y-74068305D01*
X155588669Y-74173312D01*
X155651815Y-74267816D01*
X155732184Y-74348185D01*
X155748000Y-74358753D01*
X155748001Y-75741246D01*
X155732184Y-75751815D01*
X155651815Y-75832184D01*
X155588669Y-75926688D01*
X155545174Y-76031695D01*
X155523000Y-76143170D01*
X155523000Y-76256830D01*
X155545174Y-76368305D01*
X155588669Y-76473312D01*
X155651815Y-76567816D01*
X155732184Y-76648185D01*
X155826688Y-76711331D01*
X155931695Y-76754826D01*
X156043170Y-76777000D01*
X156156830Y-76777000D01*
X156268305Y-76754826D01*
X156373312Y-76711331D01*
X156467816Y-76648185D01*
X156548185Y-76567816D01*
X156611331Y-76473312D01*
X156654826Y-76368305D01*
X156677000Y-76256830D01*
X156677000Y-76143170D01*
X156654826Y-76031695D01*
X156611331Y-75926688D01*
X156548185Y-75832184D01*
X156467816Y-75751815D01*
X156452000Y-75741247D01*
X156452000Y-74358753D01*
X156467816Y-74348185D01*
X156548185Y-74267816D01*
X156611331Y-74173312D01*
X156623816Y-74143170D01*
X168123000Y-74143170D01*
X168123000Y-74256830D01*
X168145174Y-74368305D01*
X168188669Y-74473312D01*
X168251815Y-74567816D01*
X168332184Y-74648185D01*
X168426688Y-74711331D01*
X168531695Y-74754826D01*
X168643170Y-74777000D01*
X168756830Y-74777000D01*
X168868305Y-74754826D01*
X168973312Y-74711331D01*
X169067816Y-74648185D01*
X169148185Y-74567816D01*
X169211331Y-74473312D01*
X169254826Y-74368305D01*
X169277000Y-74256830D01*
X169277000Y-74143170D01*
X169273289Y-74124513D01*
X169854632Y-73543170D01*
X174523000Y-73543170D01*
X174523000Y-73656830D01*
X174545174Y-73768305D01*
X174588669Y-73873312D01*
X174651815Y-73967816D01*
X174732184Y-74048185D01*
X174826688Y-74111331D01*
X174931695Y-74154826D01*
X175043170Y-74177000D01*
X175156830Y-74177000D01*
X175268305Y-74154826D01*
X175296445Y-74143170D01*
X183223000Y-74143170D01*
X183223000Y-74256830D01*
X183245174Y-74368305D01*
X183288669Y-74473312D01*
X183351815Y-74567816D01*
X183432184Y-74648185D01*
X183526688Y-74711331D01*
X183631695Y-74754826D01*
X183743170Y-74777000D01*
X183856830Y-74777000D01*
X183968305Y-74754826D01*
X184073312Y-74711331D01*
X184167816Y-74648185D01*
X184248185Y-74567816D01*
X184311331Y-74473312D01*
X184354826Y-74368305D01*
X184377000Y-74256830D01*
X184377000Y-74143170D01*
X184373289Y-74124513D01*
X184469872Y-74027931D01*
X184488669Y-74073312D01*
X184551815Y-74167816D01*
X184632184Y-74248185D01*
X184726688Y-74311331D01*
X184831695Y-74354826D01*
X184943170Y-74377000D01*
X185056830Y-74377000D01*
X185168305Y-74354826D01*
X185273312Y-74311331D01*
X185367816Y-74248185D01*
X185448185Y-74167816D01*
X185458753Y-74152000D01*
X187982711Y-74152000D01*
X188000000Y-74153703D01*
X188017289Y-74152000D01*
X188017292Y-74152000D01*
X188069004Y-74146907D01*
X188135356Y-74126779D01*
X188196507Y-74094093D01*
X188250106Y-74050106D01*
X188261135Y-74036667D01*
X189424514Y-72873289D01*
X189443170Y-72877000D01*
X189556830Y-72877000D01*
X189668305Y-72854826D01*
X189773312Y-72811331D01*
X189867816Y-72748185D01*
X189948185Y-72667816D01*
X190011331Y-72573312D01*
X190054826Y-72468305D01*
X190077000Y-72356830D01*
X190077000Y-72243170D01*
X190054826Y-72131695D01*
X190011331Y-72026688D01*
X189948185Y-71932184D01*
X189867816Y-71851815D01*
X189773312Y-71788669D01*
X189668305Y-71745174D01*
X189556830Y-71723000D01*
X189443170Y-71723000D01*
X189331695Y-71745174D01*
X189226688Y-71788669D01*
X189132184Y-71851815D01*
X189051815Y-71932184D01*
X188988669Y-72026688D01*
X188945174Y-72131695D01*
X188923000Y-72243170D01*
X188923000Y-72356830D01*
X188926711Y-72375486D01*
X187854198Y-73448000D01*
X185458753Y-73448000D01*
X185448185Y-73432184D01*
X185367816Y-73351815D01*
X185273312Y-73288669D01*
X185227931Y-73269872D01*
X189345803Y-69152000D01*
X190441247Y-69152000D01*
X190451815Y-69167816D01*
X190532184Y-69248185D01*
X190626688Y-69311331D01*
X190731695Y-69354826D01*
X190843170Y-69377000D01*
X190956830Y-69377000D01*
X191068305Y-69354826D01*
X191173312Y-69311331D01*
X191267816Y-69248185D01*
X191348185Y-69167816D01*
X191411331Y-69073312D01*
X191454826Y-68968305D01*
X191477000Y-68856830D01*
X191477000Y-68743170D01*
X191454826Y-68631695D01*
X191411331Y-68526688D01*
X191348185Y-68432184D01*
X191267816Y-68351815D01*
X191173312Y-68288669D01*
X191068305Y-68245174D01*
X190956830Y-68223000D01*
X190843170Y-68223000D01*
X190731695Y-68245174D01*
X190626688Y-68288669D01*
X190532184Y-68351815D01*
X190451815Y-68432184D01*
X190441247Y-68448000D01*
X189217288Y-68448000D01*
X189199999Y-68446297D01*
X189182710Y-68448000D01*
X189182708Y-68448000D01*
X189130996Y-68453093D01*
X189064644Y-68473221D01*
X189036178Y-68488436D01*
X189003492Y-68505907D01*
X188978171Y-68526688D01*
X188949894Y-68549894D01*
X188938870Y-68563327D01*
X183875487Y-73626711D01*
X183856830Y-73623000D01*
X183743170Y-73623000D01*
X183631695Y-73645174D01*
X183526688Y-73688669D01*
X183432184Y-73751815D01*
X183351815Y-73832184D01*
X183288669Y-73926688D01*
X183245174Y-74031695D01*
X183223000Y-74143170D01*
X175296445Y-74143170D01*
X175373312Y-74111331D01*
X175467816Y-74048185D01*
X175548185Y-73967816D01*
X175611331Y-73873312D01*
X175654826Y-73768305D01*
X175677000Y-73656830D01*
X175677000Y-73543170D01*
X175654826Y-73431695D01*
X175611331Y-73326688D01*
X175548185Y-73232184D01*
X175467816Y-73151815D01*
X175373312Y-73088669D01*
X175268305Y-73045174D01*
X175156830Y-73023000D01*
X175043170Y-73023000D01*
X174931695Y-73045174D01*
X174826688Y-73088669D01*
X174732184Y-73151815D01*
X174651815Y-73232184D01*
X174588669Y-73326688D01*
X174545174Y-73431695D01*
X174523000Y-73543170D01*
X169854632Y-73543170D01*
X170924514Y-72473289D01*
X170943170Y-72477000D01*
X171056830Y-72477000D01*
X171168305Y-72454826D01*
X171273312Y-72411331D01*
X171367816Y-72348185D01*
X171448185Y-72267816D01*
X171511331Y-72173312D01*
X171554826Y-72068305D01*
X171577000Y-71956830D01*
X171577000Y-71843170D01*
X171554826Y-71731695D01*
X171515054Y-71635674D01*
X181515496Y-71635674D01*
X181515496Y-71749334D01*
X181537670Y-71860809D01*
X181581165Y-71965816D01*
X181644311Y-72060320D01*
X181724680Y-72140689D01*
X181819184Y-72203835D01*
X181924191Y-72247330D01*
X182035666Y-72269504D01*
X182149326Y-72269504D01*
X182167982Y-72265793D01*
X182923000Y-73020812D01*
X182923000Y-73056840D01*
X182945174Y-73168315D01*
X182988669Y-73273322D01*
X183051815Y-73367826D01*
X183132184Y-73448195D01*
X183226688Y-73511341D01*
X183331695Y-73554836D01*
X183443170Y-73577010D01*
X183556830Y-73577010D01*
X183668305Y-73554836D01*
X183773312Y-73511341D01*
X183867816Y-73448195D01*
X183948185Y-73367826D01*
X184011331Y-73273322D01*
X184054826Y-73168315D01*
X184077000Y-73056840D01*
X184077000Y-72943180D01*
X184054826Y-72831705D01*
X184011331Y-72726698D01*
X183948185Y-72632194D01*
X183867816Y-72551825D01*
X183773312Y-72488679D01*
X183668305Y-72445184D01*
X183556830Y-72423010D01*
X183443170Y-72423010D01*
X183341107Y-72443312D01*
X182665785Y-71767990D01*
X182669496Y-71749334D01*
X182669496Y-71635674D01*
X182647322Y-71524199D01*
X182603827Y-71419192D01*
X182540681Y-71324688D01*
X182460312Y-71244319D01*
X182365808Y-71181173D01*
X182260801Y-71137678D01*
X182149326Y-71115504D01*
X182035666Y-71115504D01*
X181924191Y-71137678D01*
X181819184Y-71181173D01*
X181724680Y-71244319D01*
X181644311Y-71324688D01*
X181581165Y-71419192D01*
X181537670Y-71524199D01*
X181515496Y-71635674D01*
X171515054Y-71635674D01*
X171511331Y-71626688D01*
X171448185Y-71532184D01*
X171367816Y-71451815D01*
X171273312Y-71388669D01*
X171168305Y-71345174D01*
X171056830Y-71323000D01*
X170943170Y-71323000D01*
X170831695Y-71345174D01*
X170726688Y-71388669D01*
X170632184Y-71451815D01*
X170551815Y-71532184D01*
X170488669Y-71626688D01*
X170445174Y-71731695D01*
X170423000Y-71843170D01*
X170423000Y-71956830D01*
X170426711Y-71975486D01*
X169874018Y-72528179D01*
X169854826Y-72431695D01*
X169811331Y-72326688D01*
X169748185Y-72232184D01*
X169667816Y-72151815D01*
X169652000Y-72141247D01*
X169652000Y-71158753D01*
X169667816Y-71148185D01*
X169748185Y-71067816D01*
X169811331Y-70973312D01*
X169854826Y-70868305D01*
X169877000Y-70756830D01*
X169877000Y-70643170D01*
X169854826Y-70531695D01*
X169811331Y-70426688D01*
X169748185Y-70332184D01*
X169667816Y-70251815D01*
X169573312Y-70188669D01*
X169468305Y-70145174D01*
X169356830Y-70123000D01*
X169243170Y-70123000D01*
X169131695Y-70145174D01*
X169026688Y-70188669D01*
X168932184Y-70251815D01*
X168851815Y-70332184D01*
X168788669Y-70426688D01*
X168745174Y-70531695D01*
X168723000Y-70643170D01*
X168723000Y-70756830D01*
X168745174Y-70868305D01*
X168788669Y-70973312D01*
X168851815Y-71067816D01*
X168932184Y-71148185D01*
X168948001Y-71158753D01*
X168948000Y-72141247D01*
X168932184Y-72151815D01*
X168851815Y-72232184D01*
X168788669Y-72326688D01*
X168745174Y-72431695D01*
X168723000Y-72543170D01*
X168723000Y-72656830D01*
X168745174Y-72768305D01*
X168788669Y-72873312D01*
X168851815Y-72967816D01*
X168932184Y-73048185D01*
X169026688Y-73111331D01*
X169131695Y-73154826D01*
X169228179Y-73174018D01*
X168775487Y-73626711D01*
X168756830Y-73623000D01*
X168643170Y-73623000D01*
X168531695Y-73645174D01*
X168426688Y-73688669D01*
X168332184Y-73751815D01*
X168251815Y-73832184D01*
X168188669Y-73926688D01*
X168145174Y-74031695D01*
X168123000Y-74143170D01*
X156623816Y-74143170D01*
X156654826Y-74068305D01*
X156677000Y-73956830D01*
X156677000Y-73843170D01*
X156654826Y-73731695D01*
X156611331Y-73626688D01*
X156548185Y-73532184D01*
X156467816Y-73451815D01*
X156373312Y-73388669D01*
X156268305Y-73345174D01*
X156156830Y-73323000D01*
X156043170Y-73323000D01*
X155931695Y-73345174D01*
X155826688Y-73388669D01*
X155732184Y-73451815D01*
X155651815Y-73532184D01*
X155588669Y-73626688D01*
X155545174Y-73731695D01*
X155523000Y-73843170D01*
X126870895Y-73843170D01*
X126878183Y-73813260D01*
X126889390Y-73550527D01*
X126849125Y-73290656D01*
X126758935Y-73043634D01*
X126705037Y-72942797D01*
X126471269Y-72883336D01*
X125729605Y-73625000D01*
X125370395Y-73625000D01*
X124628731Y-72883336D01*
X124394963Y-72942797D01*
X124284066Y-73181242D01*
X124221817Y-73436740D01*
X124210610Y-73699473D01*
X100627000Y-73699473D01*
X100627000Y-73276269D01*
X122268336Y-73276269D01*
X122327797Y-73510037D01*
X122566242Y-73620934D01*
X122821740Y-73683183D01*
X123084473Y-73694390D01*
X123344344Y-73654125D01*
X123591366Y-73563935D01*
X123692203Y-73510037D01*
X123751664Y-73276269D01*
X123010000Y-72534605D01*
X122268336Y-73276269D01*
X100627000Y-73276269D01*
X100627000Y-72429473D01*
X121670610Y-72429473D01*
X121710875Y-72689344D01*
X121801065Y-72936366D01*
X121854963Y-73037203D01*
X122088731Y-73096664D01*
X122830395Y-72355000D01*
X123189605Y-72355000D01*
X123931269Y-73096664D01*
X124165037Y-73037203D01*
X124275934Y-72798758D01*
X124299086Y-72703731D01*
X124808336Y-72703731D01*
X125550000Y-73445395D01*
X126291664Y-72703731D01*
X126232203Y-72469963D01*
X125993758Y-72359066D01*
X125738260Y-72296817D01*
X125475527Y-72285610D01*
X125215656Y-72325875D01*
X124968634Y-72416065D01*
X124867797Y-72469963D01*
X124808336Y-72703731D01*
X124299086Y-72703731D01*
X124338183Y-72543260D01*
X124349390Y-72280527D01*
X124309125Y-72020656D01*
X124218935Y-71773634D01*
X124165037Y-71672797D01*
X123931269Y-71613336D01*
X123189605Y-72355000D01*
X122830395Y-72355000D01*
X122088731Y-71613336D01*
X121854963Y-71672797D01*
X121744066Y-71911242D01*
X121681817Y-72166740D01*
X121670610Y-72429473D01*
X100627000Y-72429473D01*
X100627000Y-71433731D01*
X122268336Y-71433731D01*
X123010000Y-72175395D01*
X123751664Y-71433731D01*
X123692203Y-71199963D01*
X123453758Y-71089066D01*
X123198260Y-71026817D01*
X122935527Y-71015610D01*
X122675656Y-71055875D01*
X122428634Y-71146065D01*
X122327797Y-71199963D01*
X122268336Y-71433731D01*
X100627000Y-71433731D01*
X100627000Y-70462669D01*
X129998000Y-70462669D01*
X129998000Y-70837331D01*
X130071093Y-71204793D01*
X130214469Y-71550935D01*
X130422620Y-71862454D01*
X130687546Y-72127380D01*
X130999065Y-72335531D01*
X131345207Y-72478907D01*
X131712669Y-72552000D01*
X132087331Y-72552000D01*
X132454793Y-72478907D01*
X132800935Y-72335531D01*
X133112454Y-72127380D01*
X133377380Y-71862454D01*
X133585531Y-71550935D01*
X133728907Y-71204793D01*
X133802000Y-70837331D01*
X133802000Y-70462669D01*
X133728907Y-70095207D01*
X133585531Y-69749065D01*
X133377380Y-69437546D01*
X133112454Y-69172620D01*
X132800935Y-68964469D01*
X132454793Y-68821093D01*
X132087331Y-68748000D01*
X131712669Y-68748000D01*
X131345207Y-68821093D01*
X130999065Y-68964469D01*
X130687546Y-69172620D01*
X130422620Y-69437546D01*
X130214469Y-69749065D01*
X130071093Y-70095207D01*
X129998000Y-70462669D01*
X100627000Y-70462669D01*
X100627000Y-68629528D01*
X118523000Y-68629528D01*
X118523000Y-68920472D01*
X118579760Y-69205825D01*
X118691099Y-69474622D01*
X118852739Y-69716533D01*
X119058467Y-69922261D01*
X119300378Y-70083901D01*
X119569175Y-70195240D01*
X119854528Y-70252000D01*
X120145472Y-70252000D01*
X120430825Y-70195240D01*
X120699622Y-70083901D01*
X120941533Y-69922261D01*
X121147261Y-69716533D01*
X121308901Y-69474622D01*
X121420240Y-69205825D01*
X121477000Y-68920472D01*
X121477000Y-68629528D01*
X121420240Y-68344175D01*
X121308901Y-68075378D01*
X121147261Y-67833467D01*
X120941533Y-67627739D01*
X120699622Y-67466099D01*
X120430825Y-67354760D01*
X120145472Y-67298000D01*
X119854528Y-67298000D01*
X119569175Y-67354760D01*
X119300378Y-67466099D01*
X119058467Y-67627739D01*
X118852739Y-67833467D01*
X118691099Y-68075378D01*
X118579760Y-68344175D01*
X118523000Y-68629528D01*
X100627000Y-68629528D01*
X100627000Y-56219302D01*
X120193000Y-56219302D01*
X120193000Y-56480698D01*
X120243996Y-56737072D01*
X120344028Y-56978570D01*
X120489252Y-57195913D01*
X120674087Y-57380748D01*
X120891430Y-57525972D01*
X121132928Y-57626004D01*
X121389302Y-57677000D01*
X121650698Y-57677000D01*
X121907072Y-57626004D01*
X122148570Y-57525972D01*
X122365913Y-57380748D01*
X122550748Y-57195913D01*
X122695972Y-56978570D01*
X122796004Y-56737072D01*
X122847000Y-56480698D01*
X122847000Y-56219302D01*
X136073000Y-56219302D01*
X136073000Y-56480698D01*
X136123996Y-56737072D01*
X136224028Y-56978570D01*
X136369252Y-57195913D01*
X136554087Y-57380748D01*
X136771430Y-57525972D01*
X137012928Y-57626004D01*
X137269302Y-57677000D01*
X137530698Y-57677000D01*
X137787072Y-57626004D01*
X138028570Y-57525972D01*
X138245913Y-57380748D01*
X138430748Y-57195913D01*
X138575972Y-56978570D01*
X138676004Y-56737072D01*
X138727000Y-56480698D01*
X138727000Y-56219302D01*
X138676004Y-55962928D01*
X138575972Y-55721430D01*
X138430748Y-55504087D01*
X138245913Y-55319252D01*
X138028570Y-55174028D01*
X137787072Y-55073996D01*
X137530698Y-55023000D01*
X137269302Y-55023000D01*
X137012928Y-55073996D01*
X136771430Y-55174028D01*
X136554087Y-55319252D01*
X136369252Y-55504087D01*
X136224028Y-55721430D01*
X136123996Y-55962928D01*
X136073000Y-56219302D01*
X122847000Y-56219302D01*
X122796004Y-55962928D01*
X122695972Y-55721430D01*
X122550748Y-55504087D01*
X122365913Y-55319252D01*
X122148570Y-55174028D01*
X121907072Y-55073996D01*
X121650698Y-55023000D01*
X121389302Y-55023000D01*
X121132928Y-55073996D01*
X120891430Y-55174028D01*
X120674087Y-55319252D01*
X120489252Y-55504087D01*
X120344028Y-55721430D01*
X120243996Y-55962928D01*
X120193000Y-56219302D01*
X100627000Y-56219302D01*
X100627000Y-53039302D01*
X120193000Y-53039302D01*
X120193000Y-53300698D01*
X120243996Y-53557072D01*
X120344028Y-53798570D01*
X120489252Y-54015913D01*
X120674087Y-54200748D01*
X120891430Y-54345972D01*
X121132928Y-54446004D01*
X121389302Y-54497000D01*
X121650698Y-54497000D01*
X121907072Y-54446004D01*
X122148570Y-54345972D01*
X122365913Y-54200748D01*
X122550748Y-54015913D01*
X122695972Y-53798570D01*
X122796004Y-53557072D01*
X122847000Y-53300698D01*
X122847000Y-53039302D01*
X122796004Y-52782928D01*
X122695972Y-52541430D01*
X122550748Y-52324087D01*
X122365913Y-52139252D01*
X122148570Y-51994028D01*
X122025789Y-51943170D01*
X145823000Y-51943170D01*
X145823000Y-52056830D01*
X145845174Y-52168305D01*
X145888669Y-52273312D01*
X145951815Y-52367816D01*
X146032184Y-52448185D01*
X146048000Y-52458753D01*
X146048001Y-61582701D01*
X146046297Y-61600000D01*
X146053094Y-61669003D01*
X146073222Y-61735356D01*
X146105907Y-61796507D01*
X146133004Y-61829524D01*
X146149895Y-61850106D01*
X146163328Y-61861130D01*
X154426711Y-70124515D01*
X154423000Y-70143170D01*
X154423000Y-70256830D01*
X154445174Y-70368305D01*
X154488669Y-70473312D01*
X154551815Y-70567816D01*
X154632184Y-70648185D01*
X154726688Y-70711331D01*
X154831695Y-70754826D01*
X154943170Y-70777000D01*
X155056830Y-70777000D01*
X155168305Y-70754826D01*
X155273312Y-70711331D01*
X155367816Y-70648185D01*
X155448185Y-70567816D01*
X155511331Y-70473312D01*
X155554826Y-70368305D01*
X155577000Y-70256830D01*
X155577000Y-70143170D01*
X155554826Y-70031695D01*
X155511331Y-69926688D01*
X155448185Y-69832184D01*
X155367816Y-69751815D01*
X155273312Y-69688669D01*
X155168305Y-69645174D01*
X155056830Y-69623000D01*
X154943170Y-69623000D01*
X154924515Y-69626711D01*
X147840973Y-62543170D01*
X159123000Y-62543170D01*
X159123000Y-62656830D01*
X159145174Y-62768305D01*
X159188669Y-62873312D01*
X159251815Y-62967816D01*
X159332184Y-63048185D01*
X159426688Y-63111331D01*
X159531695Y-63154826D01*
X159643170Y-63177000D01*
X159756830Y-63177000D01*
X159868305Y-63154826D01*
X159973312Y-63111331D01*
X160067816Y-63048185D01*
X160148185Y-62967816D01*
X160158753Y-62952000D01*
X161082711Y-62952000D01*
X161100000Y-62953703D01*
X161117289Y-62952000D01*
X161117292Y-62952000D01*
X161169004Y-62946907D01*
X161235356Y-62926779D01*
X161296507Y-62894093D01*
X161350106Y-62850106D01*
X161361135Y-62836667D01*
X161623000Y-62574803D01*
X161623000Y-62734703D01*
X161621296Y-62752001D01*
X161624908Y-62788669D01*
X161628093Y-62821005D01*
X161641331Y-62864644D01*
X161648221Y-62887357D01*
X161680906Y-62948508D01*
X161685170Y-62953703D01*
X161724894Y-63002107D01*
X161738327Y-63013131D01*
X164938210Y-66213015D01*
X164934499Y-66231671D01*
X164934499Y-66323000D01*
X164843170Y-66323000D01*
X164731695Y-66345174D01*
X164626688Y-66388669D01*
X164532184Y-66451815D01*
X164451815Y-66532184D01*
X164388669Y-66626688D01*
X164345174Y-66731695D01*
X164323000Y-66843170D01*
X164323000Y-66956830D01*
X164345174Y-67068305D01*
X164388669Y-67173312D01*
X164451815Y-67267816D01*
X164532184Y-67348185D01*
X164626688Y-67411331D01*
X164731695Y-67454826D01*
X164843170Y-67477000D01*
X164956830Y-67477000D01*
X165068305Y-67454826D01*
X165173312Y-67411331D01*
X165267816Y-67348185D01*
X165348185Y-67267816D01*
X165358753Y-67252000D01*
X168041247Y-67252000D01*
X168051815Y-67267816D01*
X168132184Y-67348185D01*
X168226688Y-67411331D01*
X168331695Y-67454826D01*
X168443170Y-67477000D01*
X168556830Y-67477000D01*
X168668305Y-67454826D01*
X168773312Y-67411331D01*
X168867816Y-67348185D01*
X168948185Y-67267816D01*
X169011331Y-67173312D01*
X169054826Y-67068305D01*
X169077000Y-66956830D01*
X169077000Y-66843170D01*
X169054826Y-66731695D01*
X169011331Y-66626688D01*
X168948185Y-66532184D01*
X168867816Y-66451815D01*
X168773312Y-66388669D01*
X168668305Y-66345174D01*
X168556830Y-66323000D01*
X168443170Y-66323000D01*
X168331695Y-66345174D01*
X168226688Y-66388669D01*
X168132184Y-66451815D01*
X168051815Y-66532184D01*
X168041247Y-66548000D01*
X166028551Y-66548000D01*
X166066325Y-66456806D01*
X166088499Y-66345331D01*
X166088499Y-66231671D01*
X166066325Y-66120196D01*
X166022830Y-66015189D01*
X165959684Y-65920685D01*
X165879315Y-65840316D01*
X165784811Y-65777170D01*
X165679804Y-65733675D01*
X165568329Y-65711501D01*
X165454669Y-65711501D01*
X165436013Y-65715212D01*
X165363971Y-65643170D01*
X168023000Y-65643170D01*
X168023000Y-65756830D01*
X168045174Y-65868305D01*
X168088669Y-65973312D01*
X168151815Y-66067816D01*
X168232184Y-66148185D01*
X168326688Y-66211331D01*
X168431695Y-66254826D01*
X168543170Y-66277000D01*
X168656830Y-66277000D01*
X168768305Y-66254826D01*
X168873312Y-66211331D01*
X168897420Y-66195222D01*
X169726711Y-67024514D01*
X169723000Y-67043170D01*
X169723000Y-67156830D01*
X169745174Y-67268305D01*
X169788669Y-67373312D01*
X169851815Y-67467816D01*
X169932184Y-67548185D01*
X170026688Y-67611331D01*
X170131695Y-67654826D01*
X170243170Y-67677000D01*
X170356830Y-67677000D01*
X170468305Y-67654826D01*
X170573312Y-67611331D01*
X170667816Y-67548185D01*
X170748185Y-67467816D01*
X170811331Y-67373312D01*
X170854826Y-67268305D01*
X170877000Y-67156830D01*
X170877000Y-67043170D01*
X170854826Y-66931695D01*
X170811331Y-66826688D01*
X170748185Y-66732184D01*
X170667816Y-66651815D01*
X170573312Y-66588669D01*
X170468305Y-66545174D01*
X170356830Y-66523000D01*
X170243170Y-66523000D01*
X170224514Y-66526711D01*
X169855229Y-66157427D01*
X169868305Y-66154826D01*
X169973312Y-66111331D01*
X170067816Y-66048185D01*
X170148185Y-65967816D01*
X170211331Y-65873312D01*
X170254826Y-65768305D01*
X170277000Y-65656830D01*
X170277000Y-65543170D01*
X170254826Y-65431695D01*
X170211331Y-65326688D01*
X170148185Y-65232184D01*
X170067816Y-65151815D01*
X169973312Y-65088669D01*
X169868305Y-65045174D01*
X169756830Y-65023000D01*
X169643170Y-65023000D01*
X169531695Y-65045174D01*
X169426688Y-65088669D01*
X169332184Y-65151815D01*
X169251815Y-65232184D01*
X169188669Y-65326688D01*
X169145174Y-65431695D01*
X169142754Y-65443861D01*
X169098585Y-65407612D01*
X169048185Y-65332184D01*
X168967816Y-65251815D01*
X168873312Y-65188669D01*
X168768305Y-65145174D01*
X168656830Y-65123000D01*
X168543170Y-65123000D01*
X168431695Y-65145174D01*
X168326688Y-65188669D01*
X168232184Y-65251815D01*
X168151815Y-65332184D01*
X168088669Y-65426688D01*
X168045174Y-65531695D01*
X168023000Y-65643170D01*
X165363971Y-65643170D01*
X162663971Y-62943170D01*
X172072997Y-62943170D01*
X172072997Y-63056830D01*
X172095171Y-63168305D01*
X172138666Y-63273312D01*
X172201812Y-63367816D01*
X172282181Y-63448185D01*
X172376685Y-63511331D01*
X172481692Y-63554826D01*
X172593167Y-63577000D01*
X172706827Y-63577000D01*
X172818302Y-63554826D01*
X172923309Y-63511331D01*
X173017813Y-63448185D01*
X173024999Y-63441000D01*
X173032184Y-63448185D01*
X173126688Y-63511331D01*
X173231695Y-63554826D01*
X173343170Y-63577000D01*
X173456830Y-63577000D01*
X173568305Y-63554826D01*
X173673312Y-63511331D01*
X173767816Y-63448185D01*
X173848185Y-63367816D01*
X173911331Y-63273312D01*
X173923816Y-63243170D01*
X174423000Y-63243170D01*
X174423000Y-63356830D01*
X174445174Y-63468305D01*
X174488669Y-63573312D01*
X174551815Y-63667816D01*
X174632184Y-63748185D01*
X174726688Y-63811331D01*
X174831695Y-63854826D01*
X174943170Y-63877000D01*
X175056830Y-63877000D01*
X175075486Y-63873289D01*
X175348000Y-64145803D01*
X175348001Y-65541247D01*
X175332184Y-65551815D01*
X175251815Y-65632184D01*
X175188669Y-65726688D01*
X175145174Y-65831695D01*
X175123000Y-65943170D01*
X175123000Y-66056830D01*
X175145174Y-66168305D01*
X175188669Y-66273312D01*
X175251815Y-66367816D01*
X175332184Y-66448185D01*
X175426688Y-66511331D01*
X175531695Y-66554826D01*
X175643170Y-66577000D01*
X175756830Y-66577000D01*
X175868305Y-66554826D01*
X175973312Y-66511331D01*
X176067816Y-66448185D01*
X176148185Y-66367816D01*
X176211331Y-66273312D01*
X176254826Y-66168305D01*
X176277000Y-66056830D01*
X176277000Y-65943170D01*
X176254826Y-65831695D01*
X176211331Y-65726688D01*
X176148185Y-65632184D01*
X176067816Y-65551815D01*
X176052000Y-65541247D01*
X176052000Y-65435413D01*
X186544192Y-65435413D01*
X186639956Y-65699814D01*
X186929571Y-65840704D01*
X187241108Y-65922384D01*
X187562595Y-65941718D01*
X187881675Y-65897961D01*
X188186088Y-65792795D01*
X188360044Y-65699814D01*
X188455808Y-65435413D01*
X187500000Y-64479605D01*
X186544192Y-65435413D01*
X176052000Y-65435413D01*
X176052000Y-64362595D01*
X185858282Y-64362595D01*
X185902039Y-64681675D01*
X186007205Y-64986088D01*
X186100186Y-65160044D01*
X186364587Y-65255808D01*
X187320395Y-64300000D01*
X187679605Y-64300000D01*
X188635413Y-65255808D01*
X188899814Y-65160044D01*
X189040704Y-64870429D01*
X189122384Y-64558892D01*
X189141718Y-64237405D01*
X189133054Y-64174226D01*
X191303000Y-64174226D01*
X191303000Y-64425774D01*
X191352074Y-64672487D01*
X191448337Y-64904886D01*
X191588089Y-65114040D01*
X191765960Y-65291911D01*
X191975114Y-65431663D01*
X192207513Y-65527926D01*
X192454226Y-65577000D01*
X192705774Y-65577000D01*
X192952487Y-65527926D01*
X193184886Y-65431663D01*
X193394040Y-65291911D01*
X193571911Y-65114040D01*
X193711663Y-64904886D01*
X193807926Y-64672487D01*
X193857000Y-64425774D01*
X193857000Y-64174226D01*
X193807926Y-63927513D01*
X193711663Y-63695114D01*
X193571911Y-63485960D01*
X193394040Y-63308089D01*
X193184886Y-63168337D01*
X192952487Y-63072074D01*
X192705774Y-63023000D01*
X192454226Y-63023000D01*
X192207513Y-63072074D01*
X191975114Y-63168337D01*
X191765960Y-63308089D01*
X191588089Y-63485960D01*
X191448337Y-63695114D01*
X191352074Y-63927513D01*
X191303000Y-64174226D01*
X189133054Y-64174226D01*
X189097961Y-63918325D01*
X188992795Y-63613912D01*
X188899814Y-63439956D01*
X188635413Y-63344192D01*
X187679605Y-64300000D01*
X187320395Y-64300000D01*
X186364587Y-63344192D01*
X186100186Y-63439956D01*
X185959296Y-63729571D01*
X185877616Y-64041108D01*
X185858282Y-64362595D01*
X176052000Y-64362595D01*
X176052000Y-64017280D01*
X176053702Y-63999999D01*
X176052000Y-63982718D01*
X176052000Y-63982708D01*
X176046907Y-63930996D01*
X176026779Y-63864644D01*
X175994094Y-63803494D01*
X175994093Y-63803492D01*
X175961128Y-63763325D01*
X175961126Y-63763323D01*
X175950105Y-63749894D01*
X175936677Y-63738874D01*
X175573289Y-63375486D01*
X175577000Y-63356830D01*
X175577000Y-63243170D01*
X175561369Y-63164587D01*
X186544192Y-63164587D01*
X187500000Y-64120395D01*
X188455808Y-63164587D01*
X188360044Y-62900186D01*
X188070429Y-62759296D01*
X187758892Y-62677616D01*
X187437405Y-62658282D01*
X187118325Y-62702039D01*
X186813912Y-62807205D01*
X186639956Y-62900186D01*
X186544192Y-63164587D01*
X175561369Y-63164587D01*
X175554826Y-63131695D01*
X175511331Y-63026688D01*
X175448185Y-62932184D01*
X175367816Y-62851815D01*
X175273312Y-62788669D01*
X175168305Y-62745174D01*
X175056830Y-62723000D01*
X174943170Y-62723000D01*
X174831695Y-62745174D01*
X174726688Y-62788669D01*
X174632184Y-62851815D01*
X174551815Y-62932184D01*
X174488669Y-63026688D01*
X174445174Y-63131695D01*
X174423000Y-63243170D01*
X173923816Y-63243170D01*
X173954826Y-63168305D01*
X173977000Y-63056830D01*
X173977000Y-62943170D01*
X173954826Y-62831695D01*
X173911331Y-62726688D01*
X173848185Y-62632184D01*
X173767816Y-62551815D01*
X173673312Y-62488669D01*
X173663284Y-62484515D01*
X175395800Y-60752000D01*
X180241247Y-60752000D01*
X180251815Y-60767816D01*
X180332184Y-60848185D01*
X180426688Y-60911331D01*
X180531695Y-60954826D01*
X180643170Y-60977000D01*
X180756830Y-60977000D01*
X180868305Y-60954826D01*
X180973312Y-60911331D01*
X181067816Y-60848185D01*
X181148185Y-60767816D01*
X181211331Y-60673312D01*
X181254826Y-60568305D01*
X181277000Y-60456830D01*
X181277000Y-60343170D01*
X181254826Y-60231695D01*
X181211331Y-60126688D01*
X181148185Y-60032184D01*
X181067816Y-59951815D01*
X180973312Y-59888669D01*
X180868305Y-59845174D01*
X180756830Y-59823000D01*
X180643170Y-59823000D01*
X180531695Y-59845174D01*
X180426688Y-59888669D01*
X180332184Y-59951815D01*
X180251815Y-60032184D01*
X180241247Y-60048000D01*
X179168001Y-60048000D01*
X179248185Y-59967816D01*
X179311331Y-59873312D01*
X179354826Y-59768305D01*
X179377000Y-59656830D01*
X179377000Y-59543170D01*
X179354826Y-59431695D01*
X179311331Y-59326688D01*
X179248185Y-59232184D01*
X179167816Y-59151815D01*
X179073312Y-59088669D01*
X178968305Y-59045174D01*
X178856830Y-59023000D01*
X178743170Y-59023000D01*
X178631695Y-59045174D01*
X178526688Y-59088669D01*
X178432184Y-59151815D01*
X178351815Y-59232184D01*
X178341247Y-59248000D01*
X175117289Y-59248000D01*
X175100000Y-59246297D01*
X175082711Y-59248000D01*
X175082708Y-59248000D01*
X175030996Y-59253093D01*
X174980086Y-59268536D01*
X174964643Y-59273221D01*
X174903493Y-59305907D01*
X174849894Y-59349894D01*
X174838870Y-59363327D01*
X172775487Y-61426711D01*
X172756830Y-61423000D01*
X172643170Y-61423000D01*
X172531695Y-61445174D01*
X172426688Y-61488669D01*
X172332184Y-61551815D01*
X172251815Y-61632184D01*
X172188669Y-61726688D01*
X172145174Y-61831695D01*
X172123000Y-61943170D01*
X172123000Y-62056830D01*
X172145174Y-62168305D01*
X172188669Y-62273312D01*
X172251815Y-62367816D01*
X172332184Y-62448185D01*
X172386616Y-62484556D01*
X172376685Y-62488669D01*
X172282181Y-62551815D01*
X172201812Y-62632184D01*
X172138666Y-62726688D01*
X172095171Y-62831695D01*
X172072997Y-62943170D01*
X162663971Y-62943170D01*
X162326999Y-62606199D01*
X162326999Y-62393801D01*
X162468801Y-62252000D01*
X162841247Y-62252000D01*
X162851815Y-62267816D01*
X162932184Y-62348185D01*
X163026688Y-62411331D01*
X163131695Y-62454826D01*
X163243170Y-62477000D01*
X163356830Y-62477000D01*
X163468305Y-62454826D01*
X163573312Y-62411331D01*
X163667816Y-62348185D01*
X163748185Y-62267816D01*
X163811331Y-62173312D01*
X163854826Y-62068305D01*
X163877000Y-61956830D01*
X163877000Y-61843170D01*
X163854826Y-61731695D01*
X163811331Y-61626688D01*
X163748185Y-61532184D01*
X163667816Y-61451815D01*
X163573312Y-61388669D01*
X163468305Y-61345174D01*
X163356830Y-61323000D01*
X163243170Y-61323000D01*
X163131695Y-61345174D01*
X163026688Y-61388669D01*
X162932184Y-61451815D01*
X162851815Y-61532184D01*
X162841247Y-61548000D01*
X162340287Y-61548000D01*
X162322998Y-61546297D01*
X162305709Y-61548000D01*
X161817280Y-61548000D01*
X161799999Y-61546298D01*
X161782718Y-61548000D01*
X161782708Y-61548000D01*
X161730996Y-61553093D01*
X161664644Y-61573221D01*
X161636178Y-61588436D01*
X161603492Y-61605907D01*
X161589620Y-61617292D01*
X161549894Y-61649894D01*
X161538870Y-61663327D01*
X160954198Y-62248000D01*
X160158753Y-62248000D01*
X160148185Y-62232184D01*
X160067816Y-62151815D01*
X159973312Y-62088669D01*
X159868305Y-62045174D01*
X159756830Y-62023000D01*
X159643170Y-62023000D01*
X159531695Y-62045174D01*
X159426688Y-62088669D01*
X159332184Y-62151815D01*
X159251815Y-62232184D01*
X159188669Y-62326688D01*
X159145174Y-62431695D01*
X159123000Y-62543170D01*
X147840973Y-62543170D01*
X146752000Y-61454198D01*
X146752000Y-56743170D01*
X171023000Y-56743170D01*
X171023000Y-56856830D01*
X171045174Y-56968305D01*
X171088669Y-57073312D01*
X171151815Y-57167816D01*
X171232184Y-57248185D01*
X171326688Y-57311331D01*
X171431695Y-57354826D01*
X171543170Y-57377000D01*
X171656830Y-57377000D01*
X171675487Y-57373289D01*
X172048001Y-57745804D01*
X172048000Y-58682711D01*
X172046297Y-58700000D01*
X172048000Y-58717289D01*
X172048000Y-58717291D01*
X172053093Y-58769003D01*
X172073221Y-58835355D01*
X172073222Y-58835356D01*
X172105907Y-58896507D01*
X172128145Y-58923603D01*
X172149894Y-58950105D01*
X172163328Y-58961130D01*
X172676711Y-59474514D01*
X172673000Y-59493170D01*
X172673000Y-59606830D01*
X172695174Y-59718305D01*
X172738669Y-59823312D01*
X172801815Y-59917816D01*
X172882184Y-59998185D01*
X172976688Y-60061331D01*
X173081695Y-60104826D01*
X173193170Y-60127000D01*
X173306830Y-60127000D01*
X173418305Y-60104826D01*
X173523312Y-60061331D01*
X173617816Y-59998185D01*
X173698185Y-59917816D01*
X173761331Y-59823312D01*
X173804826Y-59718305D01*
X173827000Y-59606830D01*
X173827000Y-59493170D01*
X173804826Y-59381695D01*
X173761331Y-59276688D01*
X173698185Y-59182184D01*
X173617816Y-59101815D01*
X173523312Y-59038669D01*
X173418305Y-58995174D01*
X173306830Y-58973000D01*
X173193170Y-58973000D01*
X173174514Y-58976711D01*
X172752000Y-58554198D01*
X172752000Y-57617289D01*
X172753703Y-57600000D01*
X172752000Y-57582708D01*
X172746907Y-57530997D01*
X172726779Y-57464645D01*
X172694093Y-57403493D01*
X172650106Y-57349894D01*
X172636673Y-57338870D01*
X172173289Y-56875487D01*
X172177000Y-56856830D01*
X172177000Y-56750000D01*
X179671660Y-56750000D01*
X179671660Y-57850000D01*
X179677008Y-57904301D01*
X179692847Y-57956516D01*
X179718569Y-58004637D01*
X179753184Y-58046816D01*
X179795363Y-58081431D01*
X179843484Y-58107153D01*
X179895699Y-58122992D01*
X179950000Y-58128340D01*
X181050000Y-58128340D01*
X181104301Y-58122992D01*
X181156516Y-58107153D01*
X181204637Y-58081431D01*
X181246816Y-58046816D01*
X181281431Y-58004637D01*
X181307153Y-57956516D01*
X181322992Y-57904301D01*
X181328340Y-57850000D01*
X181328340Y-57218548D01*
X182213000Y-57218548D01*
X182213000Y-57381452D01*
X182244782Y-57541227D01*
X182307123Y-57691731D01*
X182397628Y-57827181D01*
X182512819Y-57942372D01*
X182648269Y-58032877D01*
X182798773Y-58095218D01*
X182958548Y-58127000D01*
X183121452Y-58127000D01*
X183281227Y-58095218D01*
X183431731Y-58032877D01*
X183567181Y-57942372D01*
X183682372Y-57827181D01*
X183772877Y-57691731D01*
X183835218Y-57541227D01*
X183867000Y-57381452D01*
X183867000Y-57218548D01*
X183835218Y-57058773D01*
X183772877Y-56908269D01*
X183682372Y-56772819D01*
X183567181Y-56657628D01*
X183431731Y-56567123D01*
X183281227Y-56504782D01*
X183121452Y-56473000D01*
X182958548Y-56473000D01*
X182798773Y-56504782D01*
X182648269Y-56567123D01*
X182512819Y-56657628D01*
X182397628Y-56772819D01*
X182307123Y-56908269D01*
X182244782Y-57058773D01*
X182213000Y-57218548D01*
X181328340Y-57218548D01*
X181328340Y-56750000D01*
X181322992Y-56695699D01*
X181307153Y-56643484D01*
X181281431Y-56595363D01*
X181246816Y-56553184D01*
X181204637Y-56518569D01*
X181156516Y-56492847D01*
X181104301Y-56477008D01*
X181050000Y-56471660D01*
X179950000Y-56471660D01*
X179895699Y-56477008D01*
X179843484Y-56492847D01*
X179795363Y-56518569D01*
X179753184Y-56553184D01*
X179718569Y-56595363D01*
X179692847Y-56643484D01*
X179677008Y-56695699D01*
X179671660Y-56750000D01*
X172177000Y-56750000D01*
X172177000Y-56743170D01*
X172154826Y-56631695D01*
X172111331Y-56526688D01*
X172068161Y-56462080D01*
X172143170Y-56477000D01*
X172256830Y-56477000D01*
X172368305Y-56454826D01*
X172473312Y-56411331D01*
X172567816Y-56348185D01*
X172648185Y-56267816D01*
X172711331Y-56173312D01*
X172754826Y-56068305D01*
X172777000Y-55956830D01*
X172777000Y-55843170D01*
X172773289Y-55824513D01*
X173919255Y-54678548D01*
X179673000Y-54678548D01*
X179673000Y-54841452D01*
X179704782Y-55001227D01*
X179767123Y-55151731D01*
X179857628Y-55287181D01*
X179972819Y-55402372D01*
X180108269Y-55492877D01*
X180258773Y-55555218D01*
X180418548Y-55587000D01*
X180581452Y-55587000D01*
X180741227Y-55555218D01*
X180891731Y-55492877D01*
X181027181Y-55402372D01*
X181142372Y-55287181D01*
X181232877Y-55151731D01*
X181295218Y-55001227D01*
X181327000Y-54841452D01*
X181327000Y-54678548D01*
X182213000Y-54678548D01*
X182213000Y-54841452D01*
X182244782Y-55001227D01*
X182307123Y-55151731D01*
X182397628Y-55287181D01*
X182512819Y-55402372D01*
X182648269Y-55492877D01*
X182798773Y-55555218D01*
X182958548Y-55587000D01*
X183121452Y-55587000D01*
X183281227Y-55555218D01*
X183431731Y-55492877D01*
X183567181Y-55402372D01*
X183682372Y-55287181D01*
X183772877Y-55151731D01*
X183835218Y-55001227D01*
X183867000Y-54841452D01*
X183867000Y-54678548D01*
X183835218Y-54518773D01*
X183772877Y-54368269D01*
X183682372Y-54232819D01*
X183567181Y-54117628D01*
X183431731Y-54027123D01*
X183281227Y-53964782D01*
X183121452Y-53933000D01*
X182958548Y-53933000D01*
X182798773Y-53964782D01*
X182648269Y-54027123D01*
X182512819Y-54117628D01*
X182397628Y-54232819D01*
X182307123Y-54368269D01*
X182244782Y-54518773D01*
X182213000Y-54678548D01*
X181327000Y-54678548D01*
X181295218Y-54518773D01*
X181232877Y-54368269D01*
X181142372Y-54232819D01*
X181027181Y-54117628D01*
X180891731Y-54027123D01*
X180741227Y-53964782D01*
X180581452Y-53933000D01*
X180418548Y-53933000D01*
X180258773Y-53964782D01*
X180108269Y-54027123D01*
X179972819Y-54117628D01*
X179857628Y-54232819D01*
X179767123Y-54368269D01*
X179704782Y-54518773D01*
X179673000Y-54678548D01*
X173919255Y-54678548D01*
X174824515Y-53773289D01*
X174843170Y-53777000D01*
X174956830Y-53777000D01*
X175068305Y-53754826D01*
X175173312Y-53711331D01*
X175267816Y-53648185D01*
X175348185Y-53567816D01*
X175411331Y-53473312D01*
X175454826Y-53368305D01*
X175477000Y-53256830D01*
X175477000Y-53143170D01*
X175454826Y-53031695D01*
X175411331Y-52926688D01*
X175348185Y-52832184D01*
X175267816Y-52751815D01*
X175173312Y-52688669D01*
X175068305Y-52645174D01*
X174956830Y-52623000D01*
X174843170Y-52623000D01*
X174731695Y-52645174D01*
X174626688Y-52688669D01*
X174532184Y-52751815D01*
X174451815Y-52832184D01*
X174388669Y-52926688D01*
X174345174Y-53031695D01*
X174323000Y-53143170D01*
X174323000Y-53256830D01*
X174326711Y-53275485D01*
X172275487Y-55326711D01*
X172256830Y-55323000D01*
X172143170Y-55323000D01*
X172031695Y-55345174D01*
X171926688Y-55388669D01*
X171832184Y-55451815D01*
X171751815Y-55532184D01*
X171688669Y-55626688D01*
X171645174Y-55731695D01*
X171623000Y-55843170D01*
X171623000Y-55956830D01*
X171645174Y-56068305D01*
X171688669Y-56173312D01*
X171731839Y-56237920D01*
X171656830Y-56223000D01*
X171543170Y-56223000D01*
X171431695Y-56245174D01*
X171326688Y-56288669D01*
X171232184Y-56351815D01*
X171151815Y-56432184D01*
X171088669Y-56526688D01*
X171045174Y-56631695D01*
X171023000Y-56743170D01*
X146752000Y-56743170D01*
X146752000Y-54243170D01*
X160823000Y-54243170D01*
X160823000Y-54356830D01*
X160845174Y-54468305D01*
X160888669Y-54573312D01*
X160951815Y-54667816D01*
X161032184Y-54748185D01*
X161126688Y-54811331D01*
X161231695Y-54854826D01*
X161343170Y-54877000D01*
X161456830Y-54877000D01*
X161475486Y-54873289D01*
X161738870Y-55136673D01*
X161749894Y-55150106D01*
X161763325Y-55161128D01*
X161803492Y-55194093D01*
X161836178Y-55211564D01*
X161864644Y-55226779D01*
X161930996Y-55246907D01*
X161982708Y-55252000D01*
X161982710Y-55252000D01*
X161999999Y-55253703D01*
X162017288Y-55252000D01*
X165341247Y-55252000D01*
X165351815Y-55267816D01*
X165432184Y-55348185D01*
X165526688Y-55411331D01*
X165631695Y-55454826D01*
X165743170Y-55477000D01*
X165856830Y-55477000D01*
X165968305Y-55454826D01*
X166073312Y-55411331D01*
X166167816Y-55348185D01*
X166248185Y-55267816D01*
X166311331Y-55173312D01*
X166354826Y-55068305D01*
X166377000Y-54956830D01*
X166377000Y-54843170D01*
X166354826Y-54731695D01*
X166311331Y-54626688D01*
X166248185Y-54532184D01*
X166167816Y-54451815D01*
X166073312Y-54388669D01*
X165968305Y-54345174D01*
X165856830Y-54323000D01*
X165743170Y-54323000D01*
X165631695Y-54345174D01*
X165526688Y-54388669D01*
X165432184Y-54451815D01*
X165351815Y-54532184D01*
X165341247Y-54548000D01*
X162145803Y-54548000D01*
X161973289Y-54375486D01*
X161977000Y-54356830D01*
X161977000Y-54243170D01*
X161954826Y-54131695D01*
X161911331Y-54026688D01*
X161848185Y-53932184D01*
X161767816Y-53851815D01*
X161673312Y-53788669D01*
X161568305Y-53745174D01*
X161456830Y-53723000D01*
X161343170Y-53723000D01*
X161231695Y-53745174D01*
X161126688Y-53788669D01*
X161032184Y-53851815D01*
X160951815Y-53932184D01*
X160888669Y-54026688D01*
X160845174Y-54131695D01*
X160823000Y-54243170D01*
X146752000Y-54243170D01*
X146752000Y-52458753D01*
X146767816Y-52448185D01*
X146848185Y-52367816D01*
X146911331Y-52273312D01*
X146954826Y-52168305D01*
X146977000Y-52056830D01*
X146977000Y-51943170D01*
X146954826Y-51831695D01*
X146911331Y-51726688D01*
X146848185Y-51632184D01*
X146767816Y-51551815D01*
X146673312Y-51488669D01*
X146568305Y-51445174D01*
X146456830Y-51423000D01*
X146343170Y-51423000D01*
X146231695Y-51445174D01*
X146126688Y-51488669D01*
X146032184Y-51551815D01*
X145951815Y-51632184D01*
X145888669Y-51726688D01*
X145845174Y-51831695D01*
X145823000Y-51943170D01*
X122025789Y-51943170D01*
X121907072Y-51893996D01*
X121650698Y-51843000D01*
X121389302Y-51843000D01*
X121132928Y-51893996D01*
X120891430Y-51994028D01*
X120674087Y-52139252D01*
X120489252Y-52324087D01*
X120344028Y-52541430D01*
X120243996Y-52782928D01*
X120193000Y-53039302D01*
X100627000Y-53039302D01*
X100627000Y-51243170D01*
X167123000Y-51243170D01*
X167123000Y-51356830D01*
X167145174Y-51468305D01*
X167188669Y-51573312D01*
X167251815Y-51667816D01*
X167332184Y-51748185D01*
X167426688Y-51811331D01*
X167531695Y-51854826D01*
X167643170Y-51877000D01*
X167756830Y-51877000D01*
X167868305Y-51854826D01*
X167973312Y-51811331D01*
X168067816Y-51748185D01*
X168148185Y-51667816D01*
X168158753Y-51652000D01*
X168982711Y-51652000D01*
X169000000Y-51653703D01*
X169017289Y-51652000D01*
X169017292Y-51652000D01*
X169069004Y-51646907D01*
X169135356Y-51626779D01*
X169196507Y-51594093D01*
X169250106Y-51550106D01*
X169261135Y-51536667D01*
X170424514Y-50373289D01*
X170443170Y-50377000D01*
X170556830Y-50377000D01*
X170668305Y-50354826D01*
X170773312Y-50311331D01*
X170867816Y-50248185D01*
X170948185Y-50167816D01*
X171011331Y-50073312D01*
X171054826Y-49968305D01*
X171077000Y-49856830D01*
X171077000Y-49743170D01*
X171054826Y-49631695D01*
X171011331Y-49526688D01*
X170948185Y-49432184D01*
X170867816Y-49351815D01*
X170773312Y-49288669D01*
X170668305Y-49245174D01*
X170556830Y-49223000D01*
X170443170Y-49223000D01*
X170331695Y-49245174D01*
X170226688Y-49288669D01*
X170132184Y-49351815D01*
X170051815Y-49432184D01*
X169988669Y-49526688D01*
X169945174Y-49631695D01*
X169923000Y-49743170D01*
X169923000Y-49856830D01*
X169926711Y-49875486D01*
X168854198Y-50948000D01*
X168158753Y-50948000D01*
X168148185Y-50932184D01*
X168067816Y-50851815D01*
X167973312Y-50788669D01*
X167868305Y-50745174D01*
X167756830Y-50723000D01*
X167643170Y-50723000D01*
X167531695Y-50745174D01*
X167426688Y-50788669D01*
X167332184Y-50851815D01*
X167251815Y-50932184D01*
X167188669Y-51026688D01*
X167145174Y-51131695D01*
X167123000Y-51243170D01*
X100627000Y-51243170D01*
X100627000Y-47991066D01*
X120528539Y-47991066D01*
X120630339Y-48260579D01*
X120928477Y-48406463D01*
X121249346Y-48491380D01*
X121580617Y-48512066D01*
X121909557Y-48467728D01*
X122223527Y-48360069D01*
X122409661Y-48260579D01*
X122511461Y-47991066D01*
X136408539Y-47991066D01*
X136510339Y-48260579D01*
X136808477Y-48406463D01*
X137129346Y-48491380D01*
X137460617Y-48512066D01*
X137789557Y-48467728D01*
X138103527Y-48360069D01*
X138289661Y-48260579D01*
X138391461Y-47991066D01*
X137400000Y-46999605D01*
X136408539Y-47991066D01*
X122511461Y-47991066D01*
X121520000Y-46999605D01*
X120528539Y-47991066D01*
X100627000Y-47991066D01*
X100627000Y-46880617D01*
X119827934Y-46880617D01*
X119872272Y-47209557D01*
X119979931Y-47523527D01*
X120079421Y-47709661D01*
X120348934Y-47811461D01*
X121340395Y-46820000D01*
X121699605Y-46820000D01*
X122691066Y-47811461D01*
X122960579Y-47709661D01*
X123106463Y-47411523D01*
X123191380Y-47090654D01*
X123204495Y-46880617D01*
X135707934Y-46880617D01*
X135752272Y-47209557D01*
X135859931Y-47523527D01*
X135959421Y-47709661D01*
X136228934Y-47811461D01*
X137220395Y-46820000D01*
X137579605Y-46820000D01*
X138571066Y-47811461D01*
X138840579Y-47709661D01*
X138986463Y-47411523D01*
X139071380Y-47090654D01*
X139092066Y-46759383D01*
X139047728Y-46430443D01*
X138940069Y-46116473D01*
X138840579Y-45930339D01*
X138571066Y-45828539D01*
X137579605Y-46820000D01*
X137220395Y-46820000D01*
X136228934Y-45828539D01*
X135959421Y-45930339D01*
X135813537Y-46228477D01*
X135728620Y-46549346D01*
X135707934Y-46880617D01*
X123204495Y-46880617D01*
X123212066Y-46759383D01*
X123167728Y-46430443D01*
X123060069Y-46116473D01*
X122960579Y-45930339D01*
X122691066Y-45828539D01*
X121699605Y-46820000D01*
X121340395Y-46820000D01*
X120348934Y-45828539D01*
X120079421Y-45930339D01*
X119933537Y-46228477D01*
X119848620Y-46549346D01*
X119827934Y-46880617D01*
X100627000Y-46880617D01*
X100627000Y-45648934D01*
X120528539Y-45648934D01*
X121520000Y-46640395D01*
X122511461Y-45648934D01*
X136408539Y-45648934D01*
X137400000Y-46640395D01*
X138391461Y-45648934D01*
X138289661Y-45379421D01*
X137991523Y-45233537D01*
X137670654Y-45148620D01*
X137339383Y-45127934D01*
X137010443Y-45172272D01*
X136696473Y-45279931D01*
X136510339Y-45379421D01*
X136408539Y-45648934D01*
X122511461Y-45648934D01*
X122409661Y-45379421D01*
X122111523Y-45233537D01*
X121790654Y-45148620D01*
X121459383Y-45127934D01*
X121130443Y-45172272D01*
X120816473Y-45279931D01*
X120630339Y-45379421D01*
X120528539Y-45648934D01*
X100627000Y-45648934D01*
X100627000Y-40337372D01*
X145018000Y-40337372D01*
X145018000Y-40542628D01*
X145058043Y-40743940D01*
X145136591Y-40933572D01*
X145250626Y-41104236D01*
X145395764Y-41249374D01*
X145566428Y-41363409D01*
X145756060Y-41441957D01*
X145957372Y-41482000D01*
X146162628Y-41482000D01*
X146363940Y-41441957D01*
X146553572Y-41363409D01*
X146724236Y-41249374D01*
X146869374Y-41104236D01*
X146983409Y-40933572D01*
X147061957Y-40743940D01*
X147102000Y-40542628D01*
X147102000Y-40337372D01*
X150098000Y-40337372D01*
X150098000Y-40542628D01*
X150138043Y-40743940D01*
X150216591Y-40933572D01*
X150330626Y-41104236D01*
X150475764Y-41249374D01*
X150646428Y-41363409D01*
X150836060Y-41441957D01*
X151037372Y-41482000D01*
X151242628Y-41482000D01*
X151443940Y-41441957D01*
X151633572Y-41363409D01*
X151804236Y-41249374D01*
X151949374Y-41104236D01*
X152063409Y-40933572D01*
X152141957Y-40743940D01*
X152182000Y-40542628D01*
X152182000Y-40337372D01*
X152141957Y-40136060D01*
X152063409Y-39946428D01*
X151949374Y-39775764D01*
X151804236Y-39630626D01*
X151633572Y-39516591D01*
X151443940Y-39438043D01*
X151242628Y-39398000D01*
X151037372Y-39398000D01*
X150836060Y-39438043D01*
X150646428Y-39516591D01*
X150475764Y-39630626D01*
X150330626Y-39775764D01*
X150216591Y-39946428D01*
X150138043Y-40136060D01*
X150098000Y-40337372D01*
X147102000Y-40337372D01*
X147061957Y-40136060D01*
X146983409Y-39946428D01*
X146869374Y-39775764D01*
X146724236Y-39630626D01*
X146553572Y-39516591D01*
X146363940Y-39438043D01*
X146162628Y-39398000D01*
X145957372Y-39398000D01*
X145756060Y-39438043D01*
X145566428Y-39516591D01*
X145395764Y-39630626D01*
X145250626Y-39775764D01*
X145136591Y-39946428D01*
X145058043Y-40136060D01*
X145018000Y-40337372D01*
X100627000Y-40337372D01*
X100627000Y-36932500D01*
X147354160Y-36932500D01*
X147354160Y-38867500D01*
X147359508Y-38921801D01*
X147375347Y-38974016D01*
X147401069Y-39022137D01*
X147435684Y-39064316D01*
X147477863Y-39098931D01*
X147525984Y-39124653D01*
X147578199Y-39140492D01*
X147632500Y-39145840D01*
X149567500Y-39145840D01*
X149621801Y-39140492D01*
X149674016Y-39124653D01*
X149722137Y-39098931D01*
X149764316Y-39064316D01*
X149798931Y-39022137D01*
X149824653Y-38974016D01*
X149840492Y-38921801D01*
X149845840Y-38867500D01*
X149845840Y-36932500D01*
X149840492Y-36878199D01*
X149824653Y-36825984D01*
X149798931Y-36777863D01*
X149764316Y-36735684D01*
X149722137Y-36701069D01*
X149674016Y-36675347D01*
X149621801Y-36659508D01*
X149567500Y-36654160D01*
X147632500Y-36654160D01*
X147578199Y-36659508D01*
X147525984Y-36675347D01*
X147477863Y-36701069D01*
X147435684Y-36735684D01*
X147401069Y-36777863D01*
X147375347Y-36825984D01*
X147359508Y-36878199D01*
X147354160Y-36932500D01*
X100627000Y-36932500D01*
X100627000Y-35257372D01*
X145018000Y-35257372D01*
X145018000Y-35462628D01*
X145058043Y-35663940D01*
X145136591Y-35853572D01*
X145250626Y-36024236D01*
X145395764Y-36169374D01*
X145566428Y-36283409D01*
X145756060Y-36361957D01*
X145957372Y-36402000D01*
X146162628Y-36402000D01*
X146363940Y-36361957D01*
X146553572Y-36283409D01*
X146724236Y-36169374D01*
X146869374Y-36024236D01*
X146983409Y-35853572D01*
X147061957Y-35663940D01*
X147102000Y-35462628D01*
X147102000Y-35257372D01*
X150098000Y-35257372D01*
X150098000Y-35462628D01*
X150138043Y-35663940D01*
X150216591Y-35853572D01*
X150330626Y-36024236D01*
X150475764Y-36169374D01*
X150646428Y-36283409D01*
X150836060Y-36361957D01*
X151037372Y-36402000D01*
X151242628Y-36402000D01*
X151443940Y-36361957D01*
X151633572Y-36283409D01*
X151804236Y-36169374D01*
X151949374Y-36024236D01*
X152063409Y-35853572D01*
X152141957Y-35663940D01*
X152182000Y-35462628D01*
X152182000Y-35257372D01*
X152141957Y-35056060D01*
X152063409Y-34866428D01*
X151949374Y-34695764D01*
X151804236Y-34550626D01*
X151633572Y-34436591D01*
X151443940Y-34358043D01*
X151242628Y-34318000D01*
X151037372Y-34318000D01*
X150836060Y-34358043D01*
X150646428Y-34436591D01*
X150475764Y-34550626D01*
X150330626Y-34695764D01*
X150216591Y-34866428D01*
X150138043Y-35056060D01*
X150098000Y-35257372D01*
X147102000Y-35257372D01*
X147061957Y-35056060D01*
X146983409Y-34866428D01*
X146869374Y-34695764D01*
X146724236Y-34550626D01*
X146553572Y-34436591D01*
X146363940Y-34358043D01*
X146162628Y-34318000D01*
X145957372Y-34318000D01*
X145756060Y-34358043D01*
X145566428Y-34436591D01*
X145395764Y-34550626D01*
X145250626Y-34695764D01*
X145136591Y-34866428D01*
X145058043Y-35056060D01*
X145018000Y-35257372D01*
X100627000Y-35257372D01*
X100627000Y-30627000D01*
X199373001Y-30627000D01*
X199373000Y-129373000D01*
%TA.AperFunction,Conductor*%
D20*
G36*
X199373000Y-129373000D02*
G01*
X100627000Y-129373000D01*
X100627000Y-119237372D01*
X109418000Y-119237372D01*
X109418000Y-119442628D01*
X109458043Y-119643940D01*
X109536591Y-119833572D01*
X109650626Y-120004236D01*
X109795764Y-120149374D01*
X109966428Y-120263409D01*
X110156060Y-120341957D01*
X110357372Y-120382000D01*
X110562628Y-120382000D01*
X110763940Y-120341957D01*
X110953572Y-120263409D01*
X111124236Y-120149374D01*
X111269374Y-120004236D01*
X111383409Y-119833572D01*
X111461957Y-119643940D01*
X111502000Y-119442628D01*
X111502000Y-119237372D01*
X114498000Y-119237372D01*
X114498000Y-119442628D01*
X114538043Y-119643940D01*
X114616591Y-119833572D01*
X114730626Y-120004236D01*
X114875764Y-120149374D01*
X115046428Y-120263409D01*
X115236060Y-120341957D01*
X115437372Y-120382000D01*
X115642628Y-120382000D01*
X115843940Y-120341957D01*
X116033572Y-120263409D01*
X116204236Y-120149374D01*
X116349374Y-120004236D01*
X116463409Y-119833572D01*
X116541957Y-119643940D01*
X116582000Y-119442628D01*
X116582000Y-119237372D01*
X116541957Y-119036060D01*
X116463409Y-118846428D01*
X116349374Y-118675764D01*
X116204236Y-118530626D01*
X116033572Y-118416591D01*
X115843940Y-118338043D01*
X115642628Y-118298000D01*
X115437372Y-118298000D01*
X115236060Y-118338043D01*
X115046428Y-118416591D01*
X114875764Y-118530626D01*
X114730626Y-118675764D01*
X114616591Y-118846428D01*
X114538043Y-119036060D01*
X114498000Y-119237372D01*
X111502000Y-119237372D01*
X111461957Y-119036060D01*
X111383409Y-118846428D01*
X111269374Y-118675764D01*
X111124236Y-118530626D01*
X110953572Y-118416591D01*
X110763940Y-118338043D01*
X110562628Y-118298000D01*
X110357372Y-118298000D01*
X110156060Y-118338043D01*
X109966428Y-118416591D01*
X109795764Y-118530626D01*
X109650626Y-118675764D01*
X109536591Y-118846428D01*
X109458043Y-119036060D01*
X109418000Y-119237372D01*
X100627000Y-119237372D01*
X100627000Y-115832500D01*
X111754160Y-115832500D01*
X111754160Y-117767500D01*
X111759508Y-117821801D01*
X111775347Y-117874016D01*
X111801069Y-117922137D01*
X111835684Y-117964316D01*
X111877863Y-117998931D01*
X111925984Y-118024653D01*
X111978199Y-118040492D01*
X112032500Y-118045840D01*
X113967500Y-118045840D01*
X114021801Y-118040492D01*
X114074016Y-118024653D01*
X114122137Y-117998931D01*
X114164316Y-117964316D01*
X114198931Y-117922137D01*
X114224653Y-117874016D01*
X114240492Y-117821801D01*
X114245840Y-117767500D01*
X114245840Y-116843170D01*
X184323000Y-116843170D01*
X184323000Y-116956830D01*
X184345174Y-117068305D01*
X184388669Y-117173312D01*
X184451815Y-117267816D01*
X184532184Y-117348185D01*
X184626688Y-117411331D01*
X184731695Y-117454826D01*
X184843170Y-117477000D01*
X184956830Y-117477000D01*
X185068305Y-117454826D01*
X185173312Y-117411331D01*
X185267816Y-117348185D01*
X185348185Y-117267816D01*
X185411331Y-117173312D01*
X185454826Y-117068305D01*
X185477000Y-116956830D01*
X185477000Y-116843170D01*
X185454826Y-116731695D01*
X185411331Y-116626688D01*
X185348185Y-116532184D01*
X185267816Y-116451815D01*
X185173312Y-116388669D01*
X185068305Y-116345174D01*
X184956830Y-116323000D01*
X184843170Y-116323000D01*
X184731695Y-116345174D01*
X184626688Y-116388669D01*
X184532184Y-116451815D01*
X184451815Y-116532184D01*
X184388669Y-116626688D01*
X184345174Y-116731695D01*
X184323000Y-116843170D01*
X114245840Y-116843170D01*
X114245840Y-115832500D01*
X114240492Y-115778199D01*
X114224653Y-115725984D01*
X114198931Y-115677863D01*
X114164316Y-115635684D01*
X114122137Y-115601069D01*
X114074016Y-115575347D01*
X114021801Y-115559508D01*
X113967500Y-115554160D01*
X112032500Y-115554160D01*
X111978199Y-115559508D01*
X111925984Y-115575347D01*
X111877863Y-115601069D01*
X111835684Y-115635684D01*
X111801069Y-115677863D01*
X111775347Y-115725984D01*
X111759508Y-115778199D01*
X111754160Y-115832500D01*
X100627000Y-115832500D01*
X100627000Y-114157372D01*
X109418000Y-114157372D01*
X109418000Y-114362628D01*
X109458043Y-114563940D01*
X109536591Y-114753572D01*
X109650626Y-114924236D01*
X109795764Y-115069374D01*
X109966428Y-115183409D01*
X110156060Y-115261957D01*
X110357372Y-115302000D01*
X110562628Y-115302000D01*
X110763940Y-115261957D01*
X110953572Y-115183409D01*
X111124236Y-115069374D01*
X111269374Y-114924236D01*
X111383409Y-114753572D01*
X111461957Y-114563940D01*
X111502000Y-114362628D01*
X111502000Y-114157372D01*
X114498000Y-114157372D01*
X114498000Y-114362628D01*
X114538043Y-114563940D01*
X114616591Y-114753572D01*
X114730626Y-114924236D01*
X114875764Y-115069374D01*
X115046428Y-115183409D01*
X115236060Y-115261957D01*
X115437372Y-115302000D01*
X115642628Y-115302000D01*
X115843940Y-115261957D01*
X116033572Y-115183409D01*
X116204236Y-115069374D01*
X116349374Y-114924236D01*
X116463409Y-114753572D01*
X116541957Y-114563940D01*
X116582000Y-114362628D01*
X116582000Y-114157372D01*
X116541957Y-113956060D01*
X116463409Y-113766428D01*
X116349374Y-113595764D01*
X116204236Y-113450626D01*
X116033572Y-113336591D01*
X115843940Y-113258043D01*
X115642628Y-113218000D01*
X115437372Y-113218000D01*
X115236060Y-113258043D01*
X115046428Y-113336591D01*
X114875764Y-113450626D01*
X114730626Y-113595764D01*
X114616591Y-113766428D01*
X114538043Y-113956060D01*
X114498000Y-114157372D01*
X111502000Y-114157372D01*
X111461957Y-113956060D01*
X111383409Y-113766428D01*
X111269374Y-113595764D01*
X111124236Y-113450626D01*
X110953572Y-113336591D01*
X110763940Y-113258043D01*
X110562628Y-113218000D01*
X110357372Y-113218000D01*
X110156060Y-113258043D01*
X109966428Y-113336591D01*
X109795764Y-113450626D01*
X109650626Y-113595764D01*
X109536591Y-113766428D01*
X109458043Y-113956060D01*
X109418000Y-114157372D01*
X100627000Y-114157372D01*
X100627000Y-113043170D01*
X169423000Y-113043170D01*
X169423000Y-113156830D01*
X169445174Y-113268305D01*
X169488669Y-113373312D01*
X169551815Y-113467816D01*
X169632184Y-113548185D01*
X169648001Y-113558753D01*
X169648000Y-114641247D01*
X169632184Y-114651815D01*
X169551815Y-114732184D01*
X169488669Y-114826688D01*
X169445174Y-114931695D01*
X169423000Y-115043170D01*
X169423000Y-115156830D01*
X169445174Y-115268305D01*
X169488669Y-115373312D01*
X169551815Y-115467816D01*
X169632184Y-115548185D01*
X169726688Y-115611331D01*
X169831695Y-115654826D01*
X169943170Y-115677000D01*
X170056830Y-115677000D01*
X170168305Y-115654826D01*
X170273312Y-115611331D01*
X170367816Y-115548185D01*
X170448185Y-115467816D01*
X170511331Y-115373312D01*
X170554826Y-115268305D01*
X170577000Y-115156830D01*
X170577000Y-115043170D01*
X170554826Y-114931695D01*
X170511331Y-114826688D01*
X170448185Y-114732184D01*
X170367816Y-114651815D01*
X170352000Y-114641247D01*
X170352000Y-113558753D01*
X170367816Y-113548185D01*
X170448185Y-113467816D01*
X170511331Y-113373312D01*
X170554826Y-113268305D01*
X170577000Y-113156830D01*
X170577000Y-113043170D01*
X170554826Y-112931695D01*
X170511331Y-112826688D01*
X170448185Y-112732184D01*
X170367816Y-112651815D01*
X170273312Y-112588669D01*
X170168305Y-112545174D01*
X170056830Y-112523000D01*
X169943170Y-112523000D01*
X169831695Y-112545174D01*
X169726688Y-112588669D01*
X169632184Y-112651815D01*
X169551815Y-112732184D01*
X169488669Y-112826688D01*
X169445174Y-112931695D01*
X169423000Y-113043170D01*
X100627000Y-113043170D01*
X100627000Y-110643170D01*
X133023000Y-110643170D01*
X133023000Y-110756830D01*
X133045174Y-110868305D01*
X133088669Y-110973312D01*
X133151815Y-111067816D01*
X133232184Y-111148185D01*
X133326688Y-111211331D01*
X133431695Y-111254826D01*
X133543170Y-111277000D01*
X133656830Y-111277000D01*
X133768305Y-111254826D01*
X133873312Y-111211331D01*
X133967816Y-111148185D01*
X133971231Y-111144770D01*
X134588139Y-111761679D01*
X134599159Y-111775107D01*
X134612587Y-111786127D01*
X134612590Y-111786130D01*
X134652758Y-111819094D01*
X134713908Y-111851780D01*
X134729351Y-111856465D01*
X134780261Y-111871908D01*
X134831973Y-111877001D01*
X134831976Y-111877001D01*
X134849265Y-111878704D01*
X134866554Y-111877001D01*
X136934712Y-111877001D01*
X136952001Y-111878704D01*
X136969290Y-111877001D01*
X136969293Y-111877001D01*
X137021005Y-111871908D01*
X137087357Y-111851780D01*
X137148508Y-111819094D01*
X137202107Y-111775107D01*
X137213136Y-111761668D01*
X137811676Y-111163129D01*
X137825104Y-111152109D01*
X137836127Y-111138678D01*
X137869092Y-111098511D01*
X137901777Y-111037360D01*
X137901778Y-111037359D01*
X137921906Y-110971007D01*
X137926999Y-110919295D01*
X137926999Y-110919293D01*
X137928702Y-110902004D01*
X137926999Y-110884715D01*
X137926999Y-105943170D01*
X138223000Y-105943170D01*
X138223000Y-106056830D01*
X138245174Y-106168305D01*
X138288669Y-106273312D01*
X138351815Y-106367816D01*
X138432184Y-106448185D01*
X138509730Y-106500000D01*
X138432184Y-106551815D01*
X138351815Y-106632184D01*
X138288669Y-106726688D01*
X138245174Y-106831695D01*
X138223000Y-106943170D01*
X138223000Y-107056830D01*
X138245174Y-107168305D01*
X138288669Y-107273312D01*
X138351815Y-107367816D01*
X138432184Y-107448185D01*
X138526688Y-107511331D01*
X138631695Y-107554826D01*
X138743170Y-107577000D01*
X138856830Y-107577000D01*
X138968305Y-107554826D01*
X139073312Y-107511331D01*
X139167816Y-107448185D01*
X139248185Y-107367816D01*
X139258753Y-107352000D01*
X143382711Y-107352000D01*
X143400000Y-107353703D01*
X143417289Y-107352000D01*
X143417292Y-107352000D01*
X143469004Y-107346907D01*
X143535356Y-107326779D01*
X143596507Y-107294093D01*
X143650106Y-107250106D01*
X143661135Y-107236667D01*
X146924515Y-103973289D01*
X146943170Y-103977000D01*
X147056830Y-103977000D01*
X147168305Y-103954826D01*
X147273312Y-103911331D01*
X147367816Y-103848185D01*
X147448185Y-103767816D01*
X147511331Y-103673312D01*
X147554826Y-103568305D01*
X147577000Y-103456830D01*
X147577000Y-103343170D01*
X147554826Y-103231695D01*
X147511331Y-103126688D01*
X147448185Y-103032184D01*
X147367816Y-102951815D01*
X147273312Y-102888669D01*
X147168305Y-102845174D01*
X147056830Y-102823000D01*
X146963838Y-102823000D01*
X146977000Y-102756830D01*
X146977000Y-102643170D01*
X146954826Y-102531695D01*
X146911331Y-102426688D01*
X146848185Y-102332184D01*
X146767816Y-102251815D01*
X146673312Y-102188669D01*
X146568305Y-102145174D01*
X146456830Y-102123000D01*
X146343170Y-102123000D01*
X146231695Y-102145174D01*
X146126688Y-102188669D01*
X146032184Y-102251815D01*
X145951815Y-102332184D01*
X145888669Y-102426688D01*
X145845174Y-102531695D01*
X145823000Y-102643170D01*
X145823000Y-102756830D01*
X145826711Y-102775485D01*
X142954198Y-105648000D01*
X139258753Y-105648000D01*
X139248185Y-105632184D01*
X139167816Y-105551815D01*
X139073312Y-105488669D01*
X138968305Y-105445174D01*
X138856830Y-105423000D01*
X138743170Y-105423000D01*
X138631695Y-105445174D01*
X138526688Y-105488669D01*
X138432184Y-105551815D01*
X138351815Y-105632184D01*
X138288669Y-105726688D01*
X138245174Y-105831695D01*
X138223000Y-105943170D01*
X137926999Y-105943170D01*
X137926999Y-103452881D01*
X137931695Y-103454826D01*
X138043170Y-103477000D01*
X138156830Y-103477000D01*
X138175487Y-103473289D01*
X139626711Y-104924514D01*
X139623000Y-104943170D01*
X139623000Y-105056830D01*
X139645174Y-105168305D01*
X139688669Y-105273312D01*
X139751815Y-105367816D01*
X139832184Y-105448185D01*
X139926688Y-105511331D01*
X140031695Y-105554826D01*
X140143170Y-105577000D01*
X140256830Y-105577000D01*
X140368305Y-105554826D01*
X140473312Y-105511331D01*
X140567816Y-105448185D01*
X140648185Y-105367816D01*
X140711331Y-105273312D01*
X140754826Y-105168305D01*
X140777000Y-105056830D01*
X140777000Y-104943170D01*
X140754826Y-104831695D01*
X140711331Y-104726688D01*
X140648185Y-104632184D01*
X140567816Y-104551815D01*
X140473312Y-104488669D01*
X140368305Y-104445174D01*
X140256830Y-104423000D01*
X140143170Y-104423000D01*
X140124514Y-104426711D01*
X139471819Y-103774017D01*
X139568297Y-103754826D01*
X139673304Y-103711331D01*
X139767808Y-103648185D01*
X139848177Y-103567816D01*
X139911323Y-103473312D01*
X139954818Y-103368305D01*
X139976992Y-103256830D01*
X139976992Y-103143170D01*
X139954818Y-103031695D01*
X139911323Y-102926688D01*
X139848177Y-102832184D01*
X139767808Y-102751815D01*
X139673304Y-102688669D01*
X139568297Y-102645174D01*
X139456822Y-102623000D01*
X139343162Y-102623000D01*
X139324506Y-102626711D01*
X138836126Y-102138331D01*
X138825097Y-102124893D01*
X138771498Y-102080906D01*
X138710347Y-102048220D01*
X138643995Y-102028092D01*
X138592283Y-102022999D01*
X138592280Y-102022999D01*
X138574991Y-102021296D01*
X138557702Y-102022999D01*
X137865287Y-102022999D01*
X137847998Y-102021296D01*
X137830709Y-102022999D01*
X137830707Y-102022999D01*
X137778995Y-102028092D01*
X137712643Y-102048220D01*
X137684177Y-102063435D01*
X137651491Y-102080906D01*
X137624395Y-102103144D01*
X137597893Y-102124893D01*
X137586868Y-102138327D01*
X137338327Y-102386869D01*
X137324894Y-102397893D01*
X137313871Y-102411325D01*
X137280906Y-102451492D01*
X137253112Y-102503493D01*
X137248221Y-102512643D01*
X137229845Y-102573222D01*
X137228093Y-102578996D01*
X137221296Y-102647999D01*
X137223000Y-102665298D01*
X137222999Y-110756200D01*
X136806199Y-111173001D01*
X134995069Y-111173001D01*
X134285399Y-110463332D01*
X134274370Y-110449894D01*
X134220771Y-110405907D01*
X134159620Y-110373221D01*
X134093268Y-110353093D01*
X134059964Y-110349813D01*
X134048185Y-110332184D01*
X133967816Y-110251815D01*
X133873312Y-110188669D01*
X133768305Y-110145174D01*
X133656830Y-110123000D01*
X133543170Y-110123000D01*
X133431695Y-110145174D01*
X133326688Y-110188669D01*
X133232184Y-110251815D01*
X133151815Y-110332184D01*
X133088669Y-110426688D01*
X133045174Y-110531695D01*
X133023000Y-110643170D01*
X100627000Y-110643170D01*
X100627000Y-100443170D01*
X129523000Y-100443170D01*
X129523000Y-100556830D01*
X129545174Y-100668305D01*
X129588669Y-100773312D01*
X129651815Y-100867816D01*
X129732184Y-100948185D01*
X129826688Y-101011331D01*
X129931695Y-101054826D01*
X130043170Y-101077000D01*
X130156830Y-101077000D01*
X130268305Y-101054826D01*
X130373312Y-101011331D01*
X130467816Y-100948185D01*
X130548185Y-100867816D01*
X130611331Y-100773312D01*
X130654826Y-100668305D01*
X130677000Y-100556830D01*
X130677000Y-100452000D01*
X131223000Y-100452000D01*
X131223000Y-100456830D01*
X131245174Y-100568305D01*
X131288669Y-100673312D01*
X131351815Y-100767816D01*
X131432184Y-100848185D01*
X131526688Y-100911331D01*
X131631695Y-100954826D01*
X131743170Y-100977000D01*
X131856830Y-100977000D01*
X131968305Y-100954826D01*
X132073312Y-100911331D01*
X132167816Y-100848185D01*
X132248185Y-100767816D01*
X132311331Y-100673312D01*
X132334867Y-100616490D01*
X132345174Y-100668305D01*
X132388669Y-100773312D01*
X132451815Y-100867816D01*
X132532184Y-100948185D01*
X132626688Y-101011331D01*
X132731695Y-101054826D01*
X132843170Y-101077000D01*
X132956830Y-101077000D01*
X133068305Y-101054826D01*
X133173312Y-101011331D01*
X133267816Y-100948185D01*
X133348185Y-100867816D01*
X133411331Y-100773312D01*
X133454826Y-100668305D01*
X133477000Y-100556830D01*
X133477000Y-100443170D01*
X133454826Y-100331695D01*
X133411331Y-100226688D01*
X133348185Y-100132184D01*
X133267816Y-100051815D01*
X133173312Y-99988669D01*
X133068305Y-99945174D01*
X132956830Y-99923000D01*
X132843170Y-99923000D01*
X132731695Y-99945174D01*
X132626688Y-99988669D01*
X132532184Y-100051815D01*
X132451815Y-100132184D01*
X132388669Y-100226688D01*
X132365133Y-100283510D01*
X132354826Y-100231695D01*
X132311331Y-100126688D01*
X132248185Y-100032184D01*
X132167816Y-99951815D01*
X132073312Y-99888669D01*
X131968305Y-99845174D01*
X131856830Y-99823000D01*
X131743170Y-99823000D01*
X131722375Y-99827136D01*
X131696507Y-99805907D01*
X131635356Y-99773221D01*
X131569004Y-99753093D01*
X131517292Y-99748000D01*
X131517289Y-99748000D01*
X131500000Y-99746297D01*
X131482711Y-99748000D01*
X130517280Y-99748000D01*
X130499999Y-99746298D01*
X130482718Y-99748000D01*
X130482708Y-99748000D01*
X130430996Y-99753093D01*
X130364644Y-99773221D01*
X130336178Y-99788436D01*
X130303492Y-99805907D01*
X130282665Y-99823000D01*
X130249894Y-99849894D01*
X130238870Y-99863328D01*
X130175486Y-99926711D01*
X130156830Y-99923000D01*
X130043170Y-99923000D01*
X129931695Y-99945174D01*
X129826688Y-99988669D01*
X129732184Y-100051815D01*
X129651815Y-100132184D01*
X129588669Y-100226688D01*
X129545174Y-100331695D01*
X129523000Y-100443170D01*
X100627000Y-100443170D01*
X100627000Y-98843170D01*
X133623000Y-98843170D01*
X133623000Y-98956830D01*
X133645174Y-99068305D01*
X133688669Y-99173312D01*
X133751815Y-99267816D01*
X133832184Y-99348185D01*
X133926688Y-99411331D01*
X134031695Y-99454826D01*
X134143170Y-99477000D01*
X134256830Y-99477000D01*
X134368305Y-99454826D01*
X134473312Y-99411331D01*
X134567816Y-99348185D01*
X134648185Y-99267816D01*
X134658753Y-99252000D01*
X135131200Y-99252000D01*
X136976339Y-101097140D01*
X136973942Y-101102927D01*
X136951768Y-101214402D01*
X136951768Y-101328062D01*
X136973942Y-101439537D01*
X137017437Y-101544544D01*
X137080583Y-101639048D01*
X137160952Y-101719417D01*
X137255456Y-101782563D01*
X137360463Y-101826058D01*
X137471938Y-101848232D01*
X137585598Y-101848232D01*
X137697073Y-101826058D01*
X137802080Y-101782563D01*
X137896584Y-101719417D01*
X137976953Y-101639048D01*
X138040099Y-101544544D01*
X138083594Y-101439537D01*
X138105768Y-101328062D01*
X138105768Y-101214402D01*
X138083594Y-101102927D01*
X138040099Y-100997920D01*
X137976953Y-100903416D01*
X137896584Y-100823047D01*
X137802080Y-100759901D01*
X137697073Y-100716406D01*
X137585598Y-100694232D01*
X137569037Y-100694232D01*
X135538137Y-98663333D01*
X135527108Y-98649894D01*
X135473509Y-98605907D01*
X135412358Y-98573221D01*
X135346006Y-98553093D01*
X135294294Y-98548000D01*
X135294291Y-98548000D01*
X135277002Y-98546297D01*
X135259713Y-98548000D01*
X134658753Y-98548000D01*
X134648185Y-98532184D01*
X134567816Y-98451815D01*
X134473312Y-98388669D01*
X134368305Y-98345174D01*
X134256830Y-98323000D01*
X134143170Y-98323000D01*
X134031695Y-98345174D01*
X133926688Y-98388669D01*
X133832184Y-98451815D01*
X133751815Y-98532184D01*
X133688669Y-98626688D01*
X133645174Y-98731695D01*
X133623000Y-98843170D01*
X100627000Y-98843170D01*
X100627000Y-96750000D01*
X136671660Y-96750000D01*
X136671660Y-97850000D01*
X136677008Y-97904301D01*
X136692847Y-97956516D01*
X136718569Y-98004637D01*
X136753184Y-98046816D01*
X136795363Y-98081431D01*
X136843484Y-98107153D01*
X136895699Y-98122992D01*
X136950000Y-98128340D01*
X138050000Y-98128340D01*
X138104301Y-98122992D01*
X138156516Y-98107153D01*
X138204637Y-98081431D01*
X138246816Y-98046816D01*
X138281431Y-98004637D01*
X138307153Y-97956516D01*
X138322992Y-97904301D01*
X138328340Y-97850000D01*
X138328340Y-97218548D01*
X139213000Y-97218548D01*
X139213000Y-97381452D01*
X139244782Y-97541227D01*
X139307123Y-97691731D01*
X139397628Y-97827181D01*
X139512819Y-97942372D01*
X139648269Y-98032877D01*
X139798773Y-98095218D01*
X139958548Y-98127000D01*
X140121452Y-98127000D01*
X140281227Y-98095218D01*
X140431731Y-98032877D01*
X140567181Y-97942372D01*
X140682372Y-97827181D01*
X140772877Y-97691731D01*
X140835218Y-97541227D01*
X140867000Y-97381452D01*
X140867000Y-97218548D01*
X140835218Y-97058773D01*
X140772877Y-96908269D01*
X140682372Y-96772819D01*
X140567181Y-96657628D01*
X140431731Y-96567123D01*
X140281227Y-96504782D01*
X140121452Y-96473000D01*
X139958548Y-96473000D01*
X139798773Y-96504782D01*
X139648269Y-96567123D01*
X139512819Y-96657628D01*
X139397628Y-96772819D01*
X139307123Y-96908269D01*
X139244782Y-97058773D01*
X139213000Y-97218548D01*
X138328340Y-97218548D01*
X138328340Y-96750000D01*
X138322992Y-96695699D01*
X138307153Y-96643484D01*
X138281431Y-96595363D01*
X138246816Y-96553184D01*
X138204637Y-96518569D01*
X138156516Y-96492847D01*
X138104301Y-96477008D01*
X138050000Y-96471660D01*
X136950000Y-96471660D01*
X136895699Y-96477008D01*
X136843484Y-96492847D01*
X136795363Y-96518569D01*
X136753184Y-96553184D01*
X136718569Y-96595363D01*
X136692847Y-96643484D01*
X136677008Y-96695699D01*
X136671660Y-96750000D01*
X100627000Y-96750000D01*
X100627000Y-94678548D01*
X136673000Y-94678548D01*
X136673000Y-94841452D01*
X136704782Y-95001227D01*
X136767123Y-95151731D01*
X136857628Y-95287181D01*
X136972819Y-95402372D01*
X137108269Y-95492877D01*
X137258773Y-95555218D01*
X137418548Y-95587000D01*
X137581452Y-95587000D01*
X137741227Y-95555218D01*
X137891731Y-95492877D01*
X138027181Y-95402372D01*
X138142372Y-95287181D01*
X138232877Y-95151731D01*
X138295218Y-95001227D01*
X138327000Y-94841452D01*
X138327000Y-94678548D01*
X139213000Y-94678548D01*
X139213000Y-94841452D01*
X139244782Y-95001227D01*
X139307123Y-95151731D01*
X139397628Y-95287181D01*
X139512819Y-95402372D01*
X139648269Y-95492877D01*
X139798773Y-95555218D01*
X139958548Y-95587000D01*
X140121452Y-95587000D01*
X140281227Y-95555218D01*
X140431731Y-95492877D01*
X140567181Y-95402372D01*
X140682372Y-95287181D01*
X140772877Y-95151731D01*
X140835218Y-95001227D01*
X140866658Y-94843170D01*
X163723000Y-94843170D01*
X163723000Y-94956830D01*
X163745174Y-95068305D01*
X163788669Y-95173312D01*
X163851815Y-95267816D01*
X163932184Y-95348185D01*
X164026688Y-95411331D01*
X164131695Y-95454826D01*
X164243170Y-95477000D01*
X164356830Y-95477000D01*
X164468305Y-95454826D01*
X164573312Y-95411331D01*
X164667816Y-95348185D01*
X164748185Y-95267816D01*
X164758753Y-95252000D01*
X184448000Y-95252000D01*
X184448001Y-99841246D01*
X184432184Y-99851815D01*
X184351815Y-99932184D01*
X184288669Y-100026688D01*
X184245174Y-100131695D01*
X184223000Y-100243170D01*
X184223000Y-100356830D01*
X184245174Y-100468305D01*
X184288669Y-100573312D01*
X184351815Y-100667816D01*
X184432184Y-100748185D01*
X184526688Y-100811331D01*
X184631695Y-100854826D01*
X184743170Y-100877000D01*
X184856830Y-100877000D01*
X184968305Y-100854826D01*
X185073312Y-100811331D01*
X185167816Y-100748185D01*
X185248185Y-100667816D01*
X185311331Y-100573312D01*
X185354826Y-100468305D01*
X185377000Y-100356830D01*
X185377000Y-100243170D01*
X185354826Y-100131695D01*
X185311331Y-100026688D01*
X185248185Y-99932184D01*
X185167816Y-99851815D01*
X185152000Y-99841247D01*
X185152000Y-95158753D01*
X185167816Y-95148185D01*
X185248185Y-95067816D01*
X185311331Y-94973312D01*
X185354826Y-94868305D01*
X185377000Y-94756830D01*
X185377000Y-94643170D01*
X185354826Y-94531695D01*
X185311331Y-94426688D01*
X185248185Y-94332184D01*
X185167816Y-94251815D01*
X185073312Y-94188669D01*
X184968305Y-94145174D01*
X184856830Y-94123000D01*
X184743170Y-94123000D01*
X184631695Y-94145174D01*
X184526688Y-94188669D01*
X184432184Y-94251815D01*
X184351815Y-94332184D01*
X184288669Y-94426688D01*
X184245174Y-94531695D01*
X184241931Y-94548000D01*
X164758753Y-94548000D01*
X164748185Y-94532184D01*
X164667816Y-94451815D01*
X164573312Y-94388669D01*
X164468305Y-94345174D01*
X164356830Y-94323000D01*
X164243170Y-94323000D01*
X164131695Y-94345174D01*
X164026688Y-94388669D01*
X163932184Y-94451815D01*
X163851815Y-94532184D01*
X163788669Y-94626688D01*
X163745174Y-94731695D01*
X163723000Y-94843170D01*
X140866658Y-94843170D01*
X140867000Y-94841452D01*
X140867000Y-94678548D01*
X140835218Y-94518773D01*
X140772877Y-94368269D01*
X140682372Y-94232819D01*
X140567181Y-94117628D01*
X140431731Y-94027123D01*
X140281227Y-93964782D01*
X140121452Y-93933000D01*
X139958548Y-93933000D01*
X139798773Y-93964782D01*
X139648269Y-94027123D01*
X139512819Y-94117628D01*
X139397628Y-94232819D01*
X139307123Y-94368269D01*
X139244782Y-94518773D01*
X139213000Y-94678548D01*
X138327000Y-94678548D01*
X138295218Y-94518773D01*
X138232877Y-94368269D01*
X138142372Y-94232819D01*
X138027181Y-94117628D01*
X137891731Y-94027123D01*
X137741227Y-93964782D01*
X137581452Y-93933000D01*
X137418548Y-93933000D01*
X137258773Y-93964782D01*
X137108269Y-94027123D01*
X136972819Y-94117628D01*
X136857628Y-94232819D01*
X136767123Y-94368269D01*
X136704782Y-94518773D01*
X136673000Y-94678548D01*
X100627000Y-94678548D01*
X100627000Y-90543170D01*
X162723000Y-90543170D01*
X162723000Y-90656830D01*
X162745174Y-90768305D01*
X162788669Y-90873312D01*
X162851815Y-90967816D01*
X162932184Y-91048185D01*
X163026688Y-91111331D01*
X163131695Y-91154826D01*
X163243170Y-91177000D01*
X163356830Y-91177000D01*
X163468305Y-91154826D01*
X163573312Y-91111331D01*
X163667816Y-91048185D01*
X163748185Y-90967816D01*
X163811331Y-90873312D01*
X163854826Y-90768305D01*
X163877000Y-90656830D01*
X163877000Y-90543170D01*
X163854826Y-90431695D01*
X163811331Y-90326688D01*
X163748185Y-90232184D01*
X163667816Y-90151815D01*
X163652000Y-90141247D01*
X163652000Y-84758069D01*
X163668305Y-84754826D01*
X163773312Y-84711331D01*
X163867816Y-84648185D01*
X163948185Y-84567816D01*
X164011331Y-84473312D01*
X164054826Y-84368305D01*
X164077000Y-84256830D01*
X164077000Y-84143170D01*
X164054826Y-84031695D01*
X164011331Y-83926688D01*
X163948185Y-83832184D01*
X163867816Y-83751815D01*
X163852000Y-83741247D01*
X163852000Y-81258753D01*
X163867816Y-81248185D01*
X163948185Y-81167816D01*
X164011331Y-81073312D01*
X164054826Y-80968305D01*
X164077000Y-80856830D01*
X164077000Y-80743170D01*
X164054826Y-80631695D01*
X164011331Y-80526688D01*
X163948185Y-80432184D01*
X163867816Y-80351815D01*
X163773312Y-80288669D01*
X163668305Y-80245174D01*
X163556830Y-80223000D01*
X163443170Y-80223000D01*
X163331695Y-80245174D01*
X163226688Y-80288669D01*
X163132184Y-80351815D01*
X163051815Y-80432184D01*
X162988669Y-80526688D01*
X162945174Y-80631695D01*
X162923000Y-80743170D01*
X162923000Y-80856830D01*
X162945174Y-80968305D01*
X162988669Y-81073312D01*
X163051815Y-81167816D01*
X163132184Y-81248185D01*
X163148000Y-81258753D01*
X163148001Y-83741246D01*
X163132184Y-83751815D01*
X163051815Y-83832184D01*
X162988669Y-83926688D01*
X162945174Y-84031695D01*
X162923000Y-84143170D01*
X162923000Y-84256830D01*
X162945174Y-84368305D01*
X162948603Y-84376585D01*
X162946297Y-84400000D01*
X162948001Y-84417299D01*
X162948000Y-90141247D01*
X162932184Y-90151815D01*
X162851815Y-90232184D01*
X162788669Y-90326688D01*
X162745174Y-90431695D01*
X162723000Y-90543170D01*
X100627000Y-90543170D01*
X100627000Y-84679528D01*
X118523000Y-84679528D01*
X118523000Y-84970472D01*
X118579760Y-85255825D01*
X118691099Y-85524622D01*
X118852739Y-85766533D01*
X119058467Y-85972261D01*
X119300378Y-86133901D01*
X119569175Y-86245240D01*
X119854528Y-86302000D01*
X120145472Y-86302000D01*
X120430825Y-86245240D01*
X120699622Y-86133901D01*
X120941533Y-85972261D01*
X121147261Y-85766533D01*
X121308901Y-85524622D01*
X121420240Y-85255825D01*
X121477000Y-84970472D01*
X121477000Y-84679528D01*
X121420240Y-84394175D01*
X121308901Y-84125378D01*
X121147261Y-83883467D01*
X120941533Y-83677739D01*
X120699622Y-83516099D01*
X120430825Y-83404760D01*
X120145472Y-83348000D01*
X119854528Y-83348000D01*
X119569175Y-83404760D01*
X119300378Y-83516099D01*
X119058467Y-83677739D01*
X118852739Y-83883467D01*
X118691099Y-84125378D01*
X118579760Y-84394175D01*
X118523000Y-84679528D01*
X100627000Y-84679528D01*
X100627000Y-82762669D01*
X129998000Y-82762669D01*
X129998000Y-83137331D01*
X130071093Y-83504793D01*
X130214469Y-83850935D01*
X130422620Y-84162454D01*
X130687546Y-84427380D01*
X130999065Y-84635531D01*
X131345207Y-84778907D01*
X131712669Y-84852000D01*
X132087331Y-84852000D01*
X132454793Y-84778907D01*
X132800935Y-84635531D01*
X133112454Y-84427380D01*
X133377380Y-84162454D01*
X133585531Y-83850935D01*
X133728907Y-83504793D01*
X133802000Y-83137331D01*
X133802000Y-82762669D01*
X133728907Y-82395207D01*
X133585531Y-82049065D01*
X133377380Y-81737546D01*
X133112454Y-81472620D01*
X132800935Y-81264469D01*
X132454793Y-81121093D01*
X132087331Y-81048000D01*
X131712669Y-81048000D01*
X131345207Y-81121093D01*
X130999065Y-81264469D01*
X130687546Y-81472620D01*
X130422620Y-81737546D01*
X130214469Y-82049065D01*
X130071093Y-82395207D01*
X129998000Y-82762669D01*
X100627000Y-82762669D01*
X100627000Y-81148774D01*
X124573000Y-81148774D01*
X124573000Y-81341226D01*
X124610546Y-81529980D01*
X124684194Y-81707783D01*
X124791115Y-81867801D01*
X124927199Y-82003885D01*
X125087217Y-82110806D01*
X125265020Y-82184454D01*
X125453774Y-82222000D01*
X125646226Y-82222000D01*
X125834980Y-82184454D01*
X126012783Y-82110806D01*
X126172801Y-82003885D01*
X126308885Y-81867801D01*
X126415806Y-81707783D01*
X126489454Y-81529980D01*
X126527000Y-81341226D01*
X126527000Y-81148774D01*
X126489454Y-80960020D01*
X126415806Y-80782217D01*
X126308885Y-80622199D01*
X126172801Y-80486115D01*
X126012783Y-80379194D01*
X125834980Y-80305546D01*
X125646226Y-80268000D01*
X125453774Y-80268000D01*
X125265020Y-80305546D01*
X125087217Y-80379194D01*
X124927199Y-80486115D01*
X124791115Y-80622199D01*
X124684194Y-80782217D01*
X124610546Y-80960020D01*
X124573000Y-81148774D01*
X100627000Y-81148774D01*
X100627000Y-79878774D01*
X122033000Y-79878774D01*
X122033000Y-80071226D01*
X122070546Y-80259980D01*
X122144194Y-80437783D01*
X122251115Y-80597801D01*
X122387199Y-80733885D01*
X122547217Y-80840806D01*
X122725020Y-80914454D01*
X122913774Y-80952000D01*
X123106226Y-80952000D01*
X123294980Y-80914454D01*
X123472783Y-80840806D01*
X123632801Y-80733885D01*
X123768885Y-80597801D01*
X123875806Y-80437783D01*
X123949454Y-80259980D01*
X123987000Y-80071226D01*
X123987000Y-79878774D01*
X123949454Y-79690020D01*
X123875806Y-79512217D01*
X123768885Y-79352199D01*
X123632801Y-79216115D01*
X123472783Y-79109194D01*
X123294980Y-79035546D01*
X123106226Y-78998000D01*
X122913774Y-78998000D01*
X122725020Y-79035546D01*
X122547217Y-79109194D01*
X122387199Y-79216115D01*
X122251115Y-79352199D01*
X122144194Y-79512217D01*
X122070546Y-79690020D01*
X122033000Y-79878774D01*
X100627000Y-79878774D01*
X100627000Y-78608774D01*
X124573000Y-78608774D01*
X124573000Y-78801226D01*
X124610546Y-78989980D01*
X124684194Y-79167783D01*
X124791115Y-79327801D01*
X124927199Y-79463885D01*
X125087217Y-79570806D01*
X125265020Y-79644454D01*
X125453774Y-79682000D01*
X125646226Y-79682000D01*
X125834980Y-79644454D01*
X126012783Y-79570806D01*
X126172801Y-79463885D01*
X126308885Y-79327801D01*
X126415806Y-79167783D01*
X126489454Y-78989980D01*
X126527000Y-78801226D01*
X126527000Y-78608774D01*
X126489454Y-78420020D01*
X126415806Y-78242217D01*
X126308885Y-78082199D01*
X126172801Y-77946115D01*
X126012783Y-77839194D01*
X125834980Y-77765546D01*
X125646226Y-77728000D01*
X125453774Y-77728000D01*
X125265020Y-77765546D01*
X125087217Y-77839194D01*
X124927199Y-77946115D01*
X124791115Y-78082199D01*
X124684194Y-78242217D01*
X124610546Y-78420020D01*
X124573000Y-78608774D01*
X100627000Y-78608774D01*
X100627000Y-77338774D01*
X122033000Y-77338774D01*
X122033000Y-77531226D01*
X122070546Y-77719980D01*
X122144194Y-77897783D01*
X122251115Y-78057801D01*
X122387199Y-78193885D01*
X122547217Y-78300806D01*
X122725020Y-78374454D01*
X122913774Y-78412000D01*
X123106226Y-78412000D01*
X123294980Y-78374454D01*
X123472783Y-78300806D01*
X123632801Y-78193885D01*
X123768885Y-78057801D01*
X123875806Y-77897783D01*
X123949454Y-77719980D01*
X123987000Y-77531226D01*
X123987000Y-77338774D01*
X123949454Y-77150020D01*
X123875806Y-76972217D01*
X123768885Y-76812199D01*
X123632801Y-76676115D01*
X123472783Y-76569194D01*
X123294980Y-76495546D01*
X123106226Y-76458000D01*
X122913774Y-76458000D01*
X122725020Y-76495546D01*
X122547217Y-76569194D01*
X122387199Y-76676115D01*
X122251115Y-76812199D01*
X122144194Y-76972217D01*
X122070546Y-77150020D01*
X122033000Y-77338774D01*
X100627000Y-77338774D01*
X100627000Y-76068774D01*
X124573000Y-76068774D01*
X124573000Y-76261226D01*
X124610546Y-76449980D01*
X124684194Y-76627783D01*
X124791115Y-76787801D01*
X124927199Y-76923885D01*
X125087217Y-77030806D01*
X125265020Y-77104454D01*
X125453774Y-77142000D01*
X125646226Y-77142000D01*
X125834980Y-77104454D01*
X126012783Y-77030806D01*
X126172801Y-76923885D01*
X126308885Y-76787801D01*
X126415806Y-76627783D01*
X126489454Y-76449980D01*
X126527000Y-76261226D01*
X126527000Y-76068774D01*
X126521907Y-76043170D01*
X143723000Y-76043170D01*
X143723000Y-76156830D01*
X143745174Y-76268305D01*
X143788669Y-76373312D01*
X143851815Y-76467816D01*
X143932184Y-76548185D01*
X144026688Y-76611331D01*
X144131695Y-76654826D01*
X144243170Y-76677000D01*
X144356830Y-76677000D01*
X144375487Y-76673289D01*
X152938874Y-85236678D01*
X152949894Y-85250106D01*
X152963322Y-85261126D01*
X152963325Y-85261129D01*
X153003493Y-85294093D01*
X153064643Y-85326779D01*
X153080086Y-85331464D01*
X153130996Y-85346907D01*
X153182708Y-85352000D01*
X153182711Y-85352000D01*
X153200000Y-85353703D01*
X153217289Y-85352000D01*
X158141247Y-85352000D01*
X158151815Y-85367816D01*
X158232184Y-85448185D01*
X158326688Y-85511331D01*
X158431695Y-85554826D01*
X158543170Y-85577000D01*
X158656830Y-85577000D01*
X158768305Y-85554826D01*
X158873312Y-85511331D01*
X158967816Y-85448185D01*
X159048185Y-85367816D01*
X159111331Y-85273312D01*
X159154826Y-85168305D01*
X159177000Y-85056830D01*
X159177000Y-84943170D01*
X159154826Y-84831695D01*
X159111331Y-84726688D01*
X159048185Y-84632184D01*
X158967816Y-84551815D01*
X158873312Y-84488669D01*
X158768305Y-84445174D01*
X158656830Y-84423000D01*
X158543170Y-84423000D01*
X158431695Y-84445174D01*
X158326688Y-84488669D01*
X158232184Y-84551815D01*
X158151815Y-84632184D01*
X158141247Y-84648000D01*
X153345804Y-84648000D01*
X144873289Y-76175487D01*
X144877000Y-76156830D01*
X144877000Y-76043170D01*
X144854826Y-75931695D01*
X144811331Y-75826688D01*
X144748185Y-75732184D01*
X144667816Y-75651815D01*
X144573312Y-75588669D01*
X144468305Y-75545174D01*
X144356830Y-75523000D01*
X144243170Y-75523000D01*
X144131695Y-75545174D01*
X144026688Y-75588669D01*
X143932184Y-75651815D01*
X143851815Y-75732184D01*
X143788669Y-75826688D01*
X143745174Y-75931695D01*
X143723000Y-76043170D01*
X126521907Y-76043170D01*
X126489454Y-75880020D01*
X126415806Y-75702217D01*
X126308885Y-75542199D01*
X126172801Y-75406115D01*
X126012783Y-75299194D01*
X125834980Y-75225546D01*
X125646226Y-75188000D01*
X125453774Y-75188000D01*
X125265020Y-75225546D01*
X125087217Y-75299194D01*
X124927199Y-75406115D01*
X124791115Y-75542199D01*
X124684194Y-75702217D01*
X124610546Y-75880020D01*
X124573000Y-76068774D01*
X100627000Y-76068774D01*
X100627000Y-74798774D01*
X122033000Y-74798774D01*
X122033000Y-74991226D01*
X122070546Y-75179980D01*
X122144194Y-75357783D01*
X122251115Y-75517801D01*
X122387199Y-75653885D01*
X122547217Y-75760806D01*
X122725020Y-75834454D01*
X122913774Y-75872000D01*
X123106226Y-75872000D01*
X123294980Y-75834454D01*
X123472783Y-75760806D01*
X123632801Y-75653885D01*
X123768885Y-75517801D01*
X123875806Y-75357783D01*
X123949454Y-75179980D01*
X123987000Y-74991226D01*
X123987000Y-74798774D01*
X123949454Y-74610020D01*
X123923048Y-74546269D01*
X124808336Y-74546269D01*
X124867797Y-74780037D01*
X125106242Y-74890934D01*
X125361740Y-74953183D01*
X125624473Y-74964390D01*
X125884344Y-74924125D01*
X126106072Y-74843170D01*
X144823000Y-74843170D01*
X144823000Y-74956830D01*
X144845174Y-75068305D01*
X144888669Y-75173312D01*
X144951815Y-75267816D01*
X145032184Y-75348185D01*
X145126688Y-75411331D01*
X145231695Y-75454826D01*
X145343170Y-75477000D01*
X145456830Y-75477000D01*
X145475487Y-75473289D01*
X153838870Y-83836673D01*
X153849894Y-83850106D01*
X153863325Y-83861128D01*
X153903492Y-83894093D01*
X153925595Y-83905907D01*
X153964644Y-83926779D01*
X154030996Y-83946907D01*
X154082708Y-83952000D01*
X154082711Y-83952000D01*
X154100000Y-83953703D01*
X154117289Y-83952000D01*
X158241247Y-83952000D01*
X158251815Y-83967816D01*
X158332184Y-84048185D01*
X158426688Y-84111331D01*
X158531695Y-84154826D01*
X158643170Y-84177000D01*
X158756830Y-84177000D01*
X158868305Y-84154826D01*
X158973312Y-84111331D01*
X159067816Y-84048185D01*
X159148185Y-83967816D01*
X159211331Y-83873312D01*
X159254826Y-83768305D01*
X159277000Y-83656830D01*
X159277000Y-83543170D01*
X159254826Y-83431695D01*
X159211331Y-83326688D01*
X159148185Y-83232184D01*
X159067816Y-83151815D01*
X158973312Y-83088669D01*
X158868305Y-83045174D01*
X158756830Y-83023000D01*
X158643170Y-83023000D01*
X158531695Y-83045174D01*
X158426688Y-83088669D01*
X158332184Y-83151815D01*
X158251815Y-83232184D01*
X158241247Y-83248000D01*
X154245803Y-83248000D01*
X145973289Y-74975487D01*
X145977000Y-74956830D01*
X145977000Y-74843170D01*
X145954826Y-74731695D01*
X145911331Y-74626688D01*
X145848185Y-74532184D01*
X145767816Y-74451815D01*
X145673312Y-74388669D01*
X145568305Y-74345174D01*
X145456830Y-74323000D01*
X145343170Y-74323000D01*
X145231695Y-74345174D01*
X145126688Y-74388669D01*
X145032184Y-74451815D01*
X144951815Y-74532184D01*
X144888669Y-74626688D01*
X144845174Y-74731695D01*
X144823000Y-74843170D01*
X126106072Y-74843170D01*
X126131366Y-74833935D01*
X126232203Y-74780037D01*
X126291664Y-74546269D01*
X125550000Y-73804605D01*
X124808336Y-74546269D01*
X123923048Y-74546269D01*
X123875806Y-74432217D01*
X123768885Y-74272199D01*
X123632801Y-74136115D01*
X123472783Y-74029194D01*
X123294980Y-73955546D01*
X123106226Y-73918000D01*
X122913774Y-73918000D01*
X122725020Y-73955546D01*
X122547217Y-74029194D01*
X122387199Y-74136115D01*
X122251115Y-74272199D01*
X122144194Y-74432217D01*
X122070546Y-74610020D01*
X122033000Y-74798774D01*
X100627000Y-74798774D01*
X100627000Y-73699473D01*
X124210610Y-73699473D01*
X124250875Y-73959344D01*
X124341065Y-74206366D01*
X124394963Y-74307203D01*
X124628731Y-74366664D01*
X125370395Y-73625000D01*
X125729605Y-73625000D01*
X126471269Y-74366664D01*
X126705037Y-74307203D01*
X126815934Y-74068758D01*
X126870895Y-73843170D01*
X155523000Y-73843170D01*
X155523000Y-73956830D01*
X155545174Y-74068305D01*
X155588669Y-74173312D01*
X155651815Y-74267816D01*
X155732184Y-74348185D01*
X155748000Y-74358753D01*
X155748001Y-75741246D01*
X155732184Y-75751815D01*
X155651815Y-75832184D01*
X155588669Y-75926688D01*
X155545174Y-76031695D01*
X155523000Y-76143170D01*
X155523000Y-76256830D01*
X155545174Y-76368305D01*
X155588669Y-76473312D01*
X155651815Y-76567816D01*
X155732184Y-76648185D01*
X155826688Y-76711331D01*
X155931695Y-76754826D01*
X156043170Y-76777000D01*
X156156830Y-76777000D01*
X156268305Y-76754826D01*
X156373312Y-76711331D01*
X156467816Y-76648185D01*
X156548185Y-76567816D01*
X156611331Y-76473312D01*
X156654826Y-76368305D01*
X156677000Y-76256830D01*
X156677000Y-76143170D01*
X156654826Y-76031695D01*
X156611331Y-75926688D01*
X156548185Y-75832184D01*
X156467816Y-75751815D01*
X156452000Y-75741247D01*
X156452000Y-74358753D01*
X156467816Y-74348185D01*
X156548185Y-74267816D01*
X156611331Y-74173312D01*
X156623816Y-74143170D01*
X168123000Y-74143170D01*
X168123000Y-74256830D01*
X168145174Y-74368305D01*
X168188669Y-74473312D01*
X168251815Y-74567816D01*
X168332184Y-74648185D01*
X168426688Y-74711331D01*
X168531695Y-74754826D01*
X168643170Y-74777000D01*
X168756830Y-74777000D01*
X168868305Y-74754826D01*
X168973312Y-74711331D01*
X169067816Y-74648185D01*
X169148185Y-74567816D01*
X169211331Y-74473312D01*
X169254826Y-74368305D01*
X169277000Y-74256830D01*
X169277000Y-74143170D01*
X169273289Y-74124513D01*
X169854632Y-73543170D01*
X174523000Y-73543170D01*
X174523000Y-73656830D01*
X174545174Y-73768305D01*
X174588669Y-73873312D01*
X174651815Y-73967816D01*
X174732184Y-74048185D01*
X174826688Y-74111331D01*
X174931695Y-74154826D01*
X175043170Y-74177000D01*
X175156830Y-74177000D01*
X175268305Y-74154826D01*
X175296445Y-74143170D01*
X183223000Y-74143170D01*
X183223000Y-74256830D01*
X183245174Y-74368305D01*
X183288669Y-74473312D01*
X183351815Y-74567816D01*
X183432184Y-74648185D01*
X183526688Y-74711331D01*
X183631695Y-74754826D01*
X183743170Y-74777000D01*
X183856830Y-74777000D01*
X183968305Y-74754826D01*
X184073312Y-74711331D01*
X184167816Y-74648185D01*
X184248185Y-74567816D01*
X184311331Y-74473312D01*
X184354826Y-74368305D01*
X184377000Y-74256830D01*
X184377000Y-74143170D01*
X184373289Y-74124513D01*
X184469872Y-74027931D01*
X184488669Y-74073312D01*
X184551815Y-74167816D01*
X184632184Y-74248185D01*
X184726688Y-74311331D01*
X184831695Y-74354826D01*
X184943170Y-74377000D01*
X185056830Y-74377000D01*
X185168305Y-74354826D01*
X185273312Y-74311331D01*
X185367816Y-74248185D01*
X185448185Y-74167816D01*
X185458753Y-74152000D01*
X187982711Y-74152000D01*
X188000000Y-74153703D01*
X188017289Y-74152000D01*
X188017292Y-74152000D01*
X188069004Y-74146907D01*
X188135356Y-74126779D01*
X188196507Y-74094093D01*
X188250106Y-74050106D01*
X188261135Y-74036667D01*
X189424514Y-72873289D01*
X189443170Y-72877000D01*
X189556830Y-72877000D01*
X189668305Y-72854826D01*
X189773312Y-72811331D01*
X189867816Y-72748185D01*
X189948185Y-72667816D01*
X190011331Y-72573312D01*
X190054826Y-72468305D01*
X190077000Y-72356830D01*
X190077000Y-72243170D01*
X190054826Y-72131695D01*
X190011331Y-72026688D01*
X189948185Y-71932184D01*
X189867816Y-71851815D01*
X189773312Y-71788669D01*
X189668305Y-71745174D01*
X189556830Y-71723000D01*
X189443170Y-71723000D01*
X189331695Y-71745174D01*
X189226688Y-71788669D01*
X189132184Y-71851815D01*
X189051815Y-71932184D01*
X188988669Y-72026688D01*
X188945174Y-72131695D01*
X188923000Y-72243170D01*
X188923000Y-72356830D01*
X188926711Y-72375486D01*
X187854198Y-73448000D01*
X185458753Y-73448000D01*
X185448185Y-73432184D01*
X185367816Y-73351815D01*
X185273312Y-73288669D01*
X185227931Y-73269872D01*
X189345803Y-69152000D01*
X190441247Y-69152000D01*
X190451815Y-69167816D01*
X190532184Y-69248185D01*
X190626688Y-69311331D01*
X190731695Y-69354826D01*
X190843170Y-69377000D01*
X190956830Y-69377000D01*
X191068305Y-69354826D01*
X191173312Y-69311331D01*
X191267816Y-69248185D01*
X191348185Y-69167816D01*
X191411331Y-69073312D01*
X191454826Y-68968305D01*
X191477000Y-68856830D01*
X191477000Y-68743170D01*
X191454826Y-68631695D01*
X191411331Y-68526688D01*
X191348185Y-68432184D01*
X191267816Y-68351815D01*
X191173312Y-68288669D01*
X191068305Y-68245174D01*
X190956830Y-68223000D01*
X190843170Y-68223000D01*
X190731695Y-68245174D01*
X190626688Y-68288669D01*
X190532184Y-68351815D01*
X190451815Y-68432184D01*
X190441247Y-68448000D01*
X189217288Y-68448000D01*
X189199999Y-68446297D01*
X189182710Y-68448000D01*
X189182708Y-68448000D01*
X189130996Y-68453093D01*
X189064644Y-68473221D01*
X189036178Y-68488436D01*
X189003492Y-68505907D01*
X188978171Y-68526688D01*
X188949894Y-68549894D01*
X188938870Y-68563327D01*
X183875487Y-73626711D01*
X183856830Y-73623000D01*
X183743170Y-73623000D01*
X183631695Y-73645174D01*
X183526688Y-73688669D01*
X183432184Y-73751815D01*
X183351815Y-73832184D01*
X183288669Y-73926688D01*
X183245174Y-74031695D01*
X183223000Y-74143170D01*
X175296445Y-74143170D01*
X175373312Y-74111331D01*
X175467816Y-74048185D01*
X175548185Y-73967816D01*
X175611331Y-73873312D01*
X175654826Y-73768305D01*
X175677000Y-73656830D01*
X175677000Y-73543170D01*
X175654826Y-73431695D01*
X175611331Y-73326688D01*
X175548185Y-73232184D01*
X175467816Y-73151815D01*
X175373312Y-73088669D01*
X175268305Y-73045174D01*
X175156830Y-73023000D01*
X175043170Y-73023000D01*
X174931695Y-73045174D01*
X174826688Y-73088669D01*
X174732184Y-73151815D01*
X174651815Y-73232184D01*
X174588669Y-73326688D01*
X174545174Y-73431695D01*
X174523000Y-73543170D01*
X169854632Y-73543170D01*
X170924514Y-72473289D01*
X170943170Y-72477000D01*
X171056830Y-72477000D01*
X171168305Y-72454826D01*
X171273312Y-72411331D01*
X171367816Y-72348185D01*
X171448185Y-72267816D01*
X171511331Y-72173312D01*
X171554826Y-72068305D01*
X171577000Y-71956830D01*
X171577000Y-71843170D01*
X171554826Y-71731695D01*
X171515054Y-71635674D01*
X181515496Y-71635674D01*
X181515496Y-71749334D01*
X181537670Y-71860809D01*
X181581165Y-71965816D01*
X181644311Y-72060320D01*
X181724680Y-72140689D01*
X181819184Y-72203835D01*
X181924191Y-72247330D01*
X182035666Y-72269504D01*
X182149326Y-72269504D01*
X182167982Y-72265793D01*
X182923000Y-73020812D01*
X182923000Y-73056840D01*
X182945174Y-73168315D01*
X182988669Y-73273322D01*
X183051815Y-73367826D01*
X183132184Y-73448195D01*
X183226688Y-73511341D01*
X183331695Y-73554836D01*
X183443170Y-73577010D01*
X183556830Y-73577010D01*
X183668305Y-73554836D01*
X183773312Y-73511341D01*
X183867816Y-73448195D01*
X183948185Y-73367826D01*
X184011331Y-73273322D01*
X184054826Y-73168315D01*
X184077000Y-73056840D01*
X184077000Y-72943180D01*
X184054826Y-72831705D01*
X184011331Y-72726698D01*
X183948185Y-72632194D01*
X183867816Y-72551825D01*
X183773312Y-72488679D01*
X183668305Y-72445184D01*
X183556830Y-72423010D01*
X183443170Y-72423010D01*
X183341107Y-72443312D01*
X182665785Y-71767990D01*
X182669496Y-71749334D01*
X182669496Y-71635674D01*
X182647322Y-71524199D01*
X182603827Y-71419192D01*
X182540681Y-71324688D01*
X182460312Y-71244319D01*
X182365808Y-71181173D01*
X182260801Y-71137678D01*
X182149326Y-71115504D01*
X182035666Y-71115504D01*
X181924191Y-71137678D01*
X181819184Y-71181173D01*
X181724680Y-71244319D01*
X181644311Y-71324688D01*
X181581165Y-71419192D01*
X181537670Y-71524199D01*
X181515496Y-71635674D01*
X171515054Y-71635674D01*
X171511331Y-71626688D01*
X171448185Y-71532184D01*
X171367816Y-71451815D01*
X171273312Y-71388669D01*
X171168305Y-71345174D01*
X171056830Y-71323000D01*
X170943170Y-71323000D01*
X170831695Y-71345174D01*
X170726688Y-71388669D01*
X170632184Y-71451815D01*
X170551815Y-71532184D01*
X170488669Y-71626688D01*
X170445174Y-71731695D01*
X170423000Y-71843170D01*
X170423000Y-71956830D01*
X170426711Y-71975486D01*
X169874018Y-72528179D01*
X169854826Y-72431695D01*
X169811331Y-72326688D01*
X169748185Y-72232184D01*
X169667816Y-72151815D01*
X169652000Y-72141247D01*
X169652000Y-71158753D01*
X169667816Y-71148185D01*
X169748185Y-71067816D01*
X169811331Y-70973312D01*
X169854826Y-70868305D01*
X169877000Y-70756830D01*
X169877000Y-70643170D01*
X169854826Y-70531695D01*
X169811331Y-70426688D01*
X169748185Y-70332184D01*
X169667816Y-70251815D01*
X169573312Y-70188669D01*
X169468305Y-70145174D01*
X169356830Y-70123000D01*
X169243170Y-70123000D01*
X169131695Y-70145174D01*
X169026688Y-70188669D01*
X168932184Y-70251815D01*
X168851815Y-70332184D01*
X168788669Y-70426688D01*
X168745174Y-70531695D01*
X168723000Y-70643170D01*
X168723000Y-70756830D01*
X168745174Y-70868305D01*
X168788669Y-70973312D01*
X168851815Y-71067816D01*
X168932184Y-71148185D01*
X168948001Y-71158753D01*
X168948000Y-72141247D01*
X168932184Y-72151815D01*
X168851815Y-72232184D01*
X168788669Y-72326688D01*
X168745174Y-72431695D01*
X168723000Y-72543170D01*
X168723000Y-72656830D01*
X168745174Y-72768305D01*
X168788669Y-72873312D01*
X168851815Y-72967816D01*
X168932184Y-73048185D01*
X169026688Y-73111331D01*
X169131695Y-73154826D01*
X169228179Y-73174018D01*
X168775487Y-73626711D01*
X168756830Y-73623000D01*
X168643170Y-73623000D01*
X168531695Y-73645174D01*
X168426688Y-73688669D01*
X168332184Y-73751815D01*
X168251815Y-73832184D01*
X168188669Y-73926688D01*
X168145174Y-74031695D01*
X168123000Y-74143170D01*
X156623816Y-74143170D01*
X156654826Y-74068305D01*
X156677000Y-73956830D01*
X156677000Y-73843170D01*
X156654826Y-73731695D01*
X156611331Y-73626688D01*
X156548185Y-73532184D01*
X156467816Y-73451815D01*
X156373312Y-73388669D01*
X156268305Y-73345174D01*
X156156830Y-73323000D01*
X156043170Y-73323000D01*
X155931695Y-73345174D01*
X155826688Y-73388669D01*
X155732184Y-73451815D01*
X155651815Y-73532184D01*
X155588669Y-73626688D01*
X155545174Y-73731695D01*
X155523000Y-73843170D01*
X126870895Y-73843170D01*
X126878183Y-73813260D01*
X126889390Y-73550527D01*
X126849125Y-73290656D01*
X126758935Y-73043634D01*
X126705037Y-72942797D01*
X126471269Y-72883336D01*
X125729605Y-73625000D01*
X125370395Y-73625000D01*
X124628731Y-72883336D01*
X124394963Y-72942797D01*
X124284066Y-73181242D01*
X124221817Y-73436740D01*
X124210610Y-73699473D01*
X100627000Y-73699473D01*
X100627000Y-73276269D01*
X122268336Y-73276269D01*
X122327797Y-73510037D01*
X122566242Y-73620934D01*
X122821740Y-73683183D01*
X123084473Y-73694390D01*
X123344344Y-73654125D01*
X123591366Y-73563935D01*
X123692203Y-73510037D01*
X123751664Y-73276269D01*
X123010000Y-72534605D01*
X122268336Y-73276269D01*
X100627000Y-73276269D01*
X100627000Y-72429473D01*
X121670610Y-72429473D01*
X121710875Y-72689344D01*
X121801065Y-72936366D01*
X121854963Y-73037203D01*
X122088731Y-73096664D01*
X122830395Y-72355000D01*
X123189605Y-72355000D01*
X123931269Y-73096664D01*
X124165037Y-73037203D01*
X124275934Y-72798758D01*
X124299086Y-72703731D01*
X124808336Y-72703731D01*
X125550000Y-73445395D01*
X126291664Y-72703731D01*
X126232203Y-72469963D01*
X125993758Y-72359066D01*
X125738260Y-72296817D01*
X125475527Y-72285610D01*
X125215656Y-72325875D01*
X124968634Y-72416065D01*
X124867797Y-72469963D01*
X124808336Y-72703731D01*
X124299086Y-72703731D01*
X124338183Y-72543260D01*
X124349390Y-72280527D01*
X124309125Y-72020656D01*
X124218935Y-71773634D01*
X124165037Y-71672797D01*
X123931269Y-71613336D01*
X123189605Y-72355000D01*
X122830395Y-72355000D01*
X122088731Y-71613336D01*
X121854963Y-71672797D01*
X121744066Y-71911242D01*
X121681817Y-72166740D01*
X121670610Y-72429473D01*
X100627000Y-72429473D01*
X100627000Y-71433731D01*
X122268336Y-71433731D01*
X123010000Y-72175395D01*
X123751664Y-71433731D01*
X123692203Y-71199963D01*
X123453758Y-71089066D01*
X123198260Y-71026817D01*
X122935527Y-71015610D01*
X122675656Y-71055875D01*
X122428634Y-71146065D01*
X122327797Y-71199963D01*
X122268336Y-71433731D01*
X100627000Y-71433731D01*
X100627000Y-70462669D01*
X129998000Y-70462669D01*
X129998000Y-70837331D01*
X130071093Y-71204793D01*
X130214469Y-71550935D01*
X130422620Y-71862454D01*
X130687546Y-72127380D01*
X130999065Y-72335531D01*
X131345207Y-72478907D01*
X131712669Y-72552000D01*
X132087331Y-72552000D01*
X132454793Y-72478907D01*
X132800935Y-72335531D01*
X133112454Y-72127380D01*
X133377380Y-71862454D01*
X133585531Y-71550935D01*
X133728907Y-71204793D01*
X133802000Y-70837331D01*
X133802000Y-70462669D01*
X133728907Y-70095207D01*
X133585531Y-69749065D01*
X133377380Y-69437546D01*
X133112454Y-69172620D01*
X132800935Y-68964469D01*
X132454793Y-68821093D01*
X132087331Y-68748000D01*
X131712669Y-68748000D01*
X131345207Y-68821093D01*
X130999065Y-68964469D01*
X130687546Y-69172620D01*
X130422620Y-69437546D01*
X130214469Y-69749065D01*
X130071093Y-70095207D01*
X129998000Y-70462669D01*
X100627000Y-70462669D01*
X100627000Y-68629528D01*
X118523000Y-68629528D01*
X118523000Y-68920472D01*
X118579760Y-69205825D01*
X118691099Y-69474622D01*
X118852739Y-69716533D01*
X119058467Y-69922261D01*
X119300378Y-70083901D01*
X119569175Y-70195240D01*
X119854528Y-70252000D01*
X120145472Y-70252000D01*
X120430825Y-70195240D01*
X120699622Y-70083901D01*
X120941533Y-69922261D01*
X121147261Y-69716533D01*
X121308901Y-69474622D01*
X121420240Y-69205825D01*
X121477000Y-68920472D01*
X121477000Y-68629528D01*
X121420240Y-68344175D01*
X121308901Y-68075378D01*
X121147261Y-67833467D01*
X120941533Y-67627739D01*
X120699622Y-67466099D01*
X120430825Y-67354760D01*
X120145472Y-67298000D01*
X119854528Y-67298000D01*
X119569175Y-67354760D01*
X119300378Y-67466099D01*
X119058467Y-67627739D01*
X118852739Y-67833467D01*
X118691099Y-68075378D01*
X118579760Y-68344175D01*
X118523000Y-68629528D01*
X100627000Y-68629528D01*
X100627000Y-56219302D01*
X120193000Y-56219302D01*
X120193000Y-56480698D01*
X120243996Y-56737072D01*
X120344028Y-56978570D01*
X120489252Y-57195913D01*
X120674087Y-57380748D01*
X120891430Y-57525972D01*
X121132928Y-57626004D01*
X121389302Y-57677000D01*
X121650698Y-57677000D01*
X121907072Y-57626004D01*
X122148570Y-57525972D01*
X122365913Y-57380748D01*
X122550748Y-57195913D01*
X122695972Y-56978570D01*
X122796004Y-56737072D01*
X122847000Y-56480698D01*
X122847000Y-56219302D01*
X136073000Y-56219302D01*
X136073000Y-56480698D01*
X136123996Y-56737072D01*
X136224028Y-56978570D01*
X136369252Y-57195913D01*
X136554087Y-57380748D01*
X136771430Y-57525972D01*
X137012928Y-57626004D01*
X137269302Y-57677000D01*
X137530698Y-57677000D01*
X137787072Y-57626004D01*
X138028570Y-57525972D01*
X138245913Y-57380748D01*
X138430748Y-57195913D01*
X138575972Y-56978570D01*
X138676004Y-56737072D01*
X138727000Y-56480698D01*
X138727000Y-56219302D01*
X138676004Y-55962928D01*
X138575972Y-55721430D01*
X138430748Y-55504087D01*
X138245913Y-55319252D01*
X138028570Y-55174028D01*
X137787072Y-55073996D01*
X137530698Y-55023000D01*
X137269302Y-55023000D01*
X137012928Y-55073996D01*
X136771430Y-55174028D01*
X136554087Y-55319252D01*
X136369252Y-55504087D01*
X136224028Y-55721430D01*
X136123996Y-55962928D01*
X136073000Y-56219302D01*
X122847000Y-56219302D01*
X122796004Y-55962928D01*
X122695972Y-55721430D01*
X122550748Y-55504087D01*
X122365913Y-55319252D01*
X122148570Y-55174028D01*
X121907072Y-55073996D01*
X121650698Y-55023000D01*
X121389302Y-55023000D01*
X121132928Y-55073996D01*
X120891430Y-55174028D01*
X120674087Y-55319252D01*
X120489252Y-55504087D01*
X120344028Y-55721430D01*
X120243996Y-55962928D01*
X120193000Y-56219302D01*
X100627000Y-56219302D01*
X100627000Y-53039302D01*
X120193000Y-53039302D01*
X120193000Y-53300698D01*
X120243996Y-53557072D01*
X120344028Y-53798570D01*
X120489252Y-54015913D01*
X120674087Y-54200748D01*
X120891430Y-54345972D01*
X121132928Y-54446004D01*
X121389302Y-54497000D01*
X121650698Y-54497000D01*
X121907072Y-54446004D01*
X122148570Y-54345972D01*
X122365913Y-54200748D01*
X122550748Y-54015913D01*
X122695972Y-53798570D01*
X122796004Y-53557072D01*
X122847000Y-53300698D01*
X122847000Y-53039302D01*
X122796004Y-52782928D01*
X122695972Y-52541430D01*
X122550748Y-52324087D01*
X122365913Y-52139252D01*
X122148570Y-51994028D01*
X122025789Y-51943170D01*
X145823000Y-51943170D01*
X145823000Y-52056830D01*
X145845174Y-52168305D01*
X145888669Y-52273312D01*
X145951815Y-52367816D01*
X146032184Y-52448185D01*
X146048000Y-52458753D01*
X146048001Y-61582701D01*
X146046297Y-61600000D01*
X146053094Y-61669003D01*
X146073222Y-61735356D01*
X146105907Y-61796507D01*
X146133004Y-61829524D01*
X146149895Y-61850106D01*
X146163328Y-61861130D01*
X154426711Y-70124515D01*
X154423000Y-70143170D01*
X154423000Y-70256830D01*
X154445174Y-70368305D01*
X154488669Y-70473312D01*
X154551815Y-70567816D01*
X154632184Y-70648185D01*
X154726688Y-70711331D01*
X154831695Y-70754826D01*
X154943170Y-70777000D01*
X155056830Y-70777000D01*
X155168305Y-70754826D01*
X155273312Y-70711331D01*
X155367816Y-70648185D01*
X155448185Y-70567816D01*
X155511331Y-70473312D01*
X155554826Y-70368305D01*
X155577000Y-70256830D01*
X155577000Y-70143170D01*
X155554826Y-70031695D01*
X155511331Y-69926688D01*
X155448185Y-69832184D01*
X155367816Y-69751815D01*
X155273312Y-69688669D01*
X155168305Y-69645174D01*
X155056830Y-69623000D01*
X154943170Y-69623000D01*
X154924515Y-69626711D01*
X147840973Y-62543170D01*
X159123000Y-62543170D01*
X159123000Y-62656830D01*
X159145174Y-62768305D01*
X159188669Y-62873312D01*
X159251815Y-62967816D01*
X159332184Y-63048185D01*
X159426688Y-63111331D01*
X159531695Y-63154826D01*
X159643170Y-63177000D01*
X159756830Y-63177000D01*
X159868305Y-63154826D01*
X159973312Y-63111331D01*
X160067816Y-63048185D01*
X160148185Y-62967816D01*
X160158753Y-62952000D01*
X161082711Y-62952000D01*
X161100000Y-62953703D01*
X161117289Y-62952000D01*
X161117292Y-62952000D01*
X161169004Y-62946907D01*
X161235356Y-62926779D01*
X161296507Y-62894093D01*
X161350106Y-62850106D01*
X161361135Y-62836667D01*
X161623000Y-62574803D01*
X161623000Y-62734703D01*
X161621296Y-62752001D01*
X161624908Y-62788669D01*
X161628093Y-62821005D01*
X161641331Y-62864644D01*
X161648221Y-62887357D01*
X161680906Y-62948508D01*
X161685170Y-62953703D01*
X161724894Y-63002107D01*
X161738327Y-63013131D01*
X164938210Y-66213015D01*
X164934499Y-66231671D01*
X164934499Y-66323000D01*
X164843170Y-66323000D01*
X164731695Y-66345174D01*
X164626688Y-66388669D01*
X164532184Y-66451815D01*
X164451815Y-66532184D01*
X164388669Y-66626688D01*
X164345174Y-66731695D01*
X164323000Y-66843170D01*
X164323000Y-66956830D01*
X164345174Y-67068305D01*
X164388669Y-67173312D01*
X164451815Y-67267816D01*
X164532184Y-67348185D01*
X164626688Y-67411331D01*
X164731695Y-67454826D01*
X164843170Y-67477000D01*
X164956830Y-67477000D01*
X165068305Y-67454826D01*
X165173312Y-67411331D01*
X165267816Y-67348185D01*
X165348185Y-67267816D01*
X165358753Y-67252000D01*
X168041247Y-67252000D01*
X168051815Y-67267816D01*
X168132184Y-67348185D01*
X168226688Y-67411331D01*
X168331695Y-67454826D01*
X168443170Y-67477000D01*
X168556830Y-67477000D01*
X168668305Y-67454826D01*
X168773312Y-67411331D01*
X168867816Y-67348185D01*
X168948185Y-67267816D01*
X169011331Y-67173312D01*
X169054826Y-67068305D01*
X169077000Y-66956830D01*
X169077000Y-66843170D01*
X169054826Y-66731695D01*
X169011331Y-66626688D01*
X168948185Y-66532184D01*
X168867816Y-66451815D01*
X168773312Y-66388669D01*
X168668305Y-66345174D01*
X168556830Y-66323000D01*
X168443170Y-66323000D01*
X168331695Y-66345174D01*
X168226688Y-66388669D01*
X168132184Y-66451815D01*
X168051815Y-66532184D01*
X168041247Y-66548000D01*
X166028551Y-66548000D01*
X166066325Y-66456806D01*
X166088499Y-66345331D01*
X166088499Y-66231671D01*
X166066325Y-66120196D01*
X166022830Y-66015189D01*
X165959684Y-65920685D01*
X165879315Y-65840316D01*
X165784811Y-65777170D01*
X165679804Y-65733675D01*
X165568329Y-65711501D01*
X165454669Y-65711501D01*
X165436013Y-65715212D01*
X165363971Y-65643170D01*
X168023000Y-65643170D01*
X168023000Y-65756830D01*
X168045174Y-65868305D01*
X168088669Y-65973312D01*
X168151815Y-66067816D01*
X168232184Y-66148185D01*
X168326688Y-66211331D01*
X168431695Y-66254826D01*
X168543170Y-66277000D01*
X168656830Y-66277000D01*
X168768305Y-66254826D01*
X168873312Y-66211331D01*
X168897420Y-66195222D01*
X169726711Y-67024514D01*
X169723000Y-67043170D01*
X169723000Y-67156830D01*
X169745174Y-67268305D01*
X169788669Y-67373312D01*
X169851815Y-67467816D01*
X169932184Y-67548185D01*
X170026688Y-67611331D01*
X170131695Y-67654826D01*
X170243170Y-67677000D01*
X170356830Y-67677000D01*
X170468305Y-67654826D01*
X170573312Y-67611331D01*
X170667816Y-67548185D01*
X170748185Y-67467816D01*
X170811331Y-67373312D01*
X170854826Y-67268305D01*
X170877000Y-67156830D01*
X170877000Y-67043170D01*
X170854826Y-66931695D01*
X170811331Y-66826688D01*
X170748185Y-66732184D01*
X170667816Y-66651815D01*
X170573312Y-66588669D01*
X170468305Y-66545174D01*
X170356830Y-66523000D01*
X170243170Y-66523000D01*
X170224514Y-66526711D01*
X169855229Y-66157427D01*
X169868305Y-66154826D01*
X169973312Y-66111331D01*
X170067816Y-66048185D01*
X170148185Y-65967816D01*
X170211331Y-65873312D01*
X170254826Y-65768305D01*
X170277000Y-65656830D01*
X170277000Y-65543170D01*
X170254826Y-65431695D01*
X170211331Y-65326688D01*
X170148185Y-65232184D01*
X170067816Y-65151815D01*
X169973312Y-65088669D01*
X169868305Y-65045174D01*
X169756830Y-65023000D01*
X169643170Y-65023000D01*
X169531695Y-65045174D01*
X169426688Y-65088669D01*
X169332184Y-65151815D01*
X169251815Y-65232184D01*
X169188669Y-65326688D01*
X169145174Y-65431695D01*
X169142754Y-65443861D01*
X169098585Y-65407612D01*
X169048185Y-65332184D01*
X168967816Y-65251815D01*
X168873312Y-65188669D01*
X168768305Y-65145174D01*
X168656830Y-65123000D01*
X168543170Y-65123000D01*
X168431695Y-65145174D01*
X168326688Y-65188669D01*
X168232184Y-65251815D01*
X168151815Y-65332184D01*
X168088669Y-65426688D01*
X168045174Y-65531695D01*
X168023000Y-65643170D01*
X165363971Y-65643170D01*
X162663971Y-62943170D01*
X172072997Y-62943170D01*
X172072997Y-63056830D01*
X172095171Y-63168305D01*
X172138666Y-63273312D01*
X172201812Y-63367816D01*
X172282181Y-63448185D01*
X172376685Y-63511331D01*
X172481692Y-63554826D01*
X172593167Y-63577000D01*
X172706827Y-63577000D01*
X172818302Y-63554826D01*
X172923309Y-63511331D01*
X173017813Y-63448185D01*
X173024999Y-63441000D01*
X173032184Y-63448185D01*
X173126688Y-63511331D01*
X173231695Y-63554826D01*
X173343170Y-63577000D01*
X173456830Y-63577000D01*
X173568305Y-63554826D01*
X173673312Y-63511331D01*
X173767816Y-63448185D01*
X173848185Y-63367816D01*
X173911331Y-63273312D01*
X173923816Y-63243170D01*
X174423000Y-63243170D01*
X174423000Y-63356830D01*
X174445174Y-63468305D01*
X174488669Y-63573312D01*
X174551815Y-63667816D01*
X174632184Y-63748185D01*
X174726688Y-63811331D01*
X174831695Y-63854826D01*
X174943170Y-63877000D01*
X175056830Y-63877000D01*
X175075486Y-63873289D01*
X175348000Y-64145803D01*
X175348001Y-65541247D01*
X175332184Y-65551815D01*
X175251815Y-65632184D01*
X175188669Y-65726688D01*
X175145174Y-65831695D01*
X175123000Y-65943170D01*
X175123000Y-66056830D01*
X175145174Y-66168305D01*
X175188669Y-66273312D01*
X175251815Y-66367816D01*
X175332184Y-66448185D01*
X175426688Y-66511331D01*
X175531695Y-66554826D01*
X175643170Y-66577000D01*
X175756830Y-66577000D01*
X175868305Y-66554826D01*
X175973312Y-66511331D01*
X176067816Y-66448185D01*
X176148185Y-66367816D01*
X176211331Y-66273312D01*
X176254826Y-66168305D01*
X176277000Y-66056830D01*
X176277000Y-65943170D01*
X176254826Y-65831695D01*
X176211331Y-65726688D01*
X176148185Y-65632184D01*
X176067816Y-65551815D01*
X176052000Y-65541247D01*
X176052000Y-65435413D01*
X186544192Y-65435413D01*
X186639956Y-65699814D01*
X186929571Y-65840704D01*
X187241108Y-65922384D01*
X187562595Y-65941718D01*
X187881675Y-65897961D01*
X188186088Y-65792795D01*
X188360044Y-65699814D01*
X188455808Y-65435413D01*
X187500000Y-64479605D01*
X186544192Y-65435413D01*
X176052000Y-65435413D01*
X176052000Y-64362595D01*
X185858282Y-64362595D01*
X185902039Y-64681675D01*
X186007205Y-64986088D01*
X186100186Y-65160044D01*
X186364587Y-65255808D01*
X187320395Y-64300000D01*
X187679605Y-64300000D01*
X188635413Y-65255808D01*
X188899814Y-65160044D01*
X189040704Y-64870429D01*
X189122384Y-64558892D01*
X189141718Y-64237405D01*
X189133054Y-64174226D01*
X191303000Y-64174226D01*
X191303000Y-64425774D01*
X191352074Y-64672487D01*
X191448337Y-64904886D01*
X191588089Y-65114040D01*
X191765960Y-65291911D01*
X191975114Y-65431663D01*
X192207513Y-65527926D01*
X192454226Y-65577000D01*
X192705774Y-65577000D01*
X192952487Y-65527926D01*
X193184886Y-65431663D01*
X193394040Y-65291911D01*
X193571911Y-65114040D01*
X193711663Y-64904886D01*
X193807926Y-64672487D01*
X193857000Y-64425774D01*
X193857000Y-64174226D01*
X193807926Y-63927513D01*
X193711663Y-63695114D01*
X193571911Y-63485960D01*
X193394040Y-63308089D01*
X193184886Y-63168337D01*
X192952487Y-63072074D01*
X192705774Y-63023000D01*
X192454226Y-63023000D01*
X192207513Y-63072074D01*
X191975114Y-63168337D01*
X191765960Y-63308089D01*
X191588089Y-63485960D01*
X191448337Y-63695114D01*
X191352074Y-63927513D01*
X191303000Y-64174226D01*
X189133054Y-64174226D01*
X189097961Y-63918325D01*
X188992795Y-63613912D01*
X188899814Y-63439956D01*
X188635413Y-63344192D01*
X187679605Y-64300000D01*
X187320395Y-64300000D01*
X186364587Y-63344192D01*
X186100186Y-63439956D01*
X185959296Y-63729571D01*
X185877616Y-64041108D01*
X185858282Y-64362595D01*
X176052000Y-64362595D01*
X176052000Y-64017280D01*
X176053702Y-63999999D01*
X176052000Y-63982718D01*
X176052000Y-63982708D01*
X176046907Y-63930996D01*
X176026779Y-63864644D01*
X175994094Y-63803494D01*
X175994093Y-63803492D01*
X175961128Y-63763325D01*
X175961126Y-63763323D01*
X175950105Y-63749894D01*
X175936677Y-63738874D01*
X175573289Y-63375486D01*
X175577000Y-63356830D01*
X175577000Y-63243170D01*
X175561369Y-63164587D01*
X186544192Y-63164587D01*
X187500000Y-64120395D01*
X188455808Y-63164587D01*
X188360044Y-62900186D01*
X188070429Y-62759296D01*
X187758892Y-62677616D01*
X187437405Y-62658282D01*
X187118325Y-62702039D01*
X186813912Y-62807205D01*
X186639956Y-62900186D01*
X186544192Y-63164587D01*
X175561369Y-63164587D01*
X175554826Y-63131695D01*
X175511331Y-63026688D01*
X175448185Y-62932184D01*
X175367816Y-62851815D01*
X175273312Y-62788669D01*
X175168305Y-62745174D01*
X175056830Y-62723000D01*
X174943170Y-62723000D01*
X174831695Y-62745174D01*
X174726688Y-62788669D01*
X174632184Y-62851815D01*
X174551815Y-62932184D01*
X174488669Y-63026688D01*
X174445174Y-63131695D01*
X174423000Y-63243170D01*
X173923816Y-63243170D01*
X173954826Y-63168305D01*
X173977000Y-63056830D01*
X173977000Y-62943170D01*
X173954826Y-62831695D01*
X173911331Y-62726688D01*
X173848185Y-62632184D01*
X173767816Y-62551815D01*
X173673312Y-62488669D01*
X173663284Y-62484515D01*
X175395800Y-60752000D01*
X180241247Y-60752000D01*
X180251815Y-60767816D01*
X180332184Y-60848185D01*
X180426688Y-60911331D01*
X180531695Y-60954826D01*
X180643170Y-60977000D01*
X180756830Y-60977000D01*
X180868305Y-60954826D01*
X180973312Y-60911331D01*
X181067816Y-60848185D01*
X181148185Y-60767816D01*
X181211331Y-60673312D01*
X181254826Y-60568305D01*
X181277000Y-60456830D01*
X181277000Y-60343170D01*
X181254826Y-60231695D01*
X181211331Y-60126688D01*
X181148185Y-60032184D01*
X181067816Y-59951815D01*
X180973312Y-59888669D01*
X180868305Y-59845174D01*
X180756830Y-59823000D01*
X180643170Y-59823000D01*
X180531695Y-59845174D01*
X180426688Y-59888669D01*
X180332184Y-59951815D01*
X180251815Y-60032184D01*
X180241247Y-60048000D01*
X179168001Y-60048000D01*
X179248185Y-59967816D01*
X179311331Y-59873312D01*
X179354826Y-59768305D01*
X179377000Y-59656830D01*
X179377000Y-59543170D01*
X179354826Y-59431695D01*
X179311331Y-59326688D01*
X179248185Y-59232184D01*
X179167816Y-59151815D01*
X179073312Y-59088669D01*
X178968305Y-59045174D01*
X178856830Y-59023000D01*
X178743170Y-59023000D01*
X178631695Y-59045174D01*
X178526688Y-59088669D01*
X178432184Y-59151815D01*
X178351815Y-59232184D01*
X178341247Y-59248000D01*
X175117289Y-59248000D01*
X175100000Y-59246297D01*
X175082711Y-59248000D01*
X175082708Y-59248000D01*
X175030996Y-59253093D01*
X174980086Y-59268536D01*
X174964643Y-59273221D01*
X174903493Y-59305907D01*
X174849894Y-59349894D01*
X174838870Y-59363327D01*
X172775487Y-61426711D01*
X172756830Y-61423000D01*
X172643170Y-61423000D01*
X172531695Y-61445174D01*
X172426688Y-61488669D01*
X172332184Y-61551815D01*
X172251815Y-61632184D01*
X172188669Y-61726688D01*
X172145174Y-61831695D01*
X172123000Y-61943170D01*
X172123000Y-62056830D01*
X172145174Y-62168305D01*
X172188669Y-62273312D01*
X172251815Y-62367816D01*
X172332184Y-62448185D01*
X172386616Y-62484556D01*
X172376685Y-62488669D01*
X172282181Y-62551815D01*
X172201812Y-62632184D01*
X172138666Y-62726688D01*
X172095171Y-62831695D01*
X172072997Y-62943170D01*
X162663971Y-62943170D01*
X162326999Y-62606199D01*
X162326999Y-62393801D01*
X162468801Y-62252000D01*
X162841247Y-62252000D01*
X162851815Y-62267816D01*
X162932184Y-62348185D01*
X163026688Y-62411331D01*
X163131695Y-62454826D01*
X163243170Y-62477000D01*
X163356830Y-62477000D01*
X163468305Y-62454826D01*
X163573312Y-62411331D01*
X163667816Y-62348185D01*
X163748185Y-62267816D01*
X163811331Y-62173312D01*
X163854826Y-62068305D01*
X163877000Y-61956830D01*
X163877000Y-61843170D01*
X163854826Y-61731695D01*
X163811331Y-61626688D01*
X163748185Y-61532184D01*
X163667816Y-61451815D01*
X163573312Y-61388669D01*
X163468305Y-61345174D01*
X163356830Y-61323000D01*
X163243170Y-61323000D01*
X163131695Y-61345174D01*
X163026688Y-61388669D01*
X162932184Y-61451815D01*
X162851815Y-61532184D01*
X162841247Y-61548000D01*
X162340287Y-61548000D01*
X162322998Y-61546297D01*
X162305709Y-61548000D01*
X161817280Y-61548000D01*
X161799999Y-61546298D01*
X161782718Y-61548000D01*
X161782708Y-61548000D01*
X161730996Y-61553093D01*
X161664644Y-61573221D01*
X161636178Y-61588436D01*
X161603492Y-61605907D01*
X161589620Y-61617292D01*
X161549894Y-61649894D01*
X161538870Y-61663327D01*
X160954198Y-62248000D01*
X160158753Y-62248000D01*
X160148185Y-62232184D01*
X160067816Y-62151815D01*
X159973312Y-62088669D01*
X159868305Y-62045174D01*
X159756830Y-62023000D01*
X159643170Y-62023000D01*
X159531695Y-62045174D01*
X159426688Y-62088669D01*
X159332184Y-62151815D01*
X159251815Y-62232184D01*
X159188669Y-62326688D01*
X159145174Y-62431695D01*
X159123000Y-62543170D01*
X147840973Y-62543170D01*
X146752000Y-61454198D01*
X146752000Y-56743170D01*
X171023000Y-56743170D01*
X171023000Y-56856830D01*
X171045174Y-56968305D01*
X171088669Y-57073312D01*
X171151815Y-57167816D01*
X171232184Y-57248185D01*
X171326688Y-57311331D01*
X171431695Y-57354826D01*
X171543170Y-57377000D01*
X171656830Y-57377000D01*
X171675487Y-57373289D01*
X172048001Y-57745804D01*
X172048000Y-58682711D01*
X172046297Y-58700000D01*
X172048000Y-58717289D01*
X172048000Y-58717291D01*
X172053093Y-58769003D01*
X172073221Y-58835355D01*
X172073222Y-58835356D01*
X172105907Y-58896507D01*
X172128145Y-58923603D01*
X172149894Y-58950105D01*
X172163328Y-58961130D01*
X172676711Y-59474514D01*
X172673000Y-59493170D01*
X172673000Y-59606830D01*
X172695174Y-59718305D01*
X172738669Y-59823312D01*
X172801815Y-59917816D01*
X172882184Y-59998185D01*
X172976688Y-60061331D01*
X173081695Y-60104826D01*
X173193170Y-60127000D01*
X173306830Y-60127000D01*
X173418305Y-60104826D01*
X173523312Y-60061331D01*
X173617816Y-59998185D01*
X173698185Y-59917816D01*
X173761331Y-59823312D01*
X173804826Y-59718305D01*
X173827000Y-59606830D01*
X173827000Y-59493170D01*
X173804826Y-59381695D01*
X173761331Y-59276688D01*
X173698185Y-59182184D01*
X173617816Y-59101815D01*
X173523312Y-59038669D01*
X173418305Y-58995174D01*
X173306830Y-58973000D01*
X173193170Y-58973000D01*
X173174514Y-58976711D01*
X172752000Y-58554198D01*
X172752000Y-57617289D01*
X172753703Y-57600000D01*
X172752000Y-57582708D01*
X172746907Y-57530997D01*
X172726779Y-57464645D01*
X172694093Y-57403493D01*
X172650106Y-57349894D01*
X172636673Y-57338870D01*
X172173289Y-56875487D01*
X172177000Y-56856830D01*
X172177000Y-56750000D01*
X179671660Y-56750000D01*
X179671660Y-57850000D01*
X179677008Y-57904301D01*
X179692847Y-57956516D01*
X179718569Y-58004637D01*
X179753184Y-58046816D01*
X179795363Y-58081431D01*
X179843484Y-58107153D01*
X179895699Y-58122992D01*
X179950000Y-58128340D01*
X181050000Y-58128340D01*
X181104301Y-58122992D01*
X181156516Y-58107153D01*
X181204637Y-58081431D01*
X181246816Y-58046816D01*
X181281431Y-58004637D01*
X181307153Y-57956516D01*
X181322992Y-57904301D01*
X181328340Y-57850000D01*
X181328340Y-57218548D01*
X182213000Y-57218548D01*
X182213000Y-57381452D01*
X182244782Y-57541227D01*
X182307123Y-57691731D01*
X182397628Y-57827181D01*
X182512819Y-57942372D01*
X182648269Y-58032877D01*
X182798773Y-58095218D01*
X182958548Y-58127000D01*
X183121452Y-58127000D01*
X183281227Y-58095218D01*
X183431731Y-58032877D01*
X183567181Y-57942372D01*
X183682372Y-57827181D01*
X183772877Y-57691731D01*
X183835218Y-57541227D01*
X183867000Y-57381452D01*
X183867000Y-57218548D01*
X183835218Y-57058773D01*
X183772877Y-56908269D01*
X183682372Y-56772819D01*
X183567181Y-56657628D01*
X183431731Y-56567123D01*
X183281227Y-56504782D01*
X183121452Y-56473000D01*
X182958548Y-56473000D01*
X182798773Y-56504782D01*
X182648269Y-56567123D01*
X182512819Y-56657628D01*
X182397628Y-56772819D01*
X182307123Y-56908269D01*
X182244782Y-57058773D01*
X182213000Y-57218548D01*
X181328340Y-57218548D01*
X181328340Y-56750000D01*
X181322992Y-56695699D01*
X181307153Y-56643484D01*
X181281431Y-56595363D01*
X181246816Y-56553184D01*
X181204637Y-56518569D01*
X181156516Y-56492847D01*
X181104301Y-56477008D01*
X181050000Y-56471660D01*
X179950000Y-56471660D01*
X179895699Y-56477008D01*
X179843484Y-56492847D01*
X179795363Y-56518569D01*
X179753184Y-56553184D01*
X179718569Y-56595363D01*
X179692847Y-56643484D01*
X179677008Y-56695699D01*
X179671660Y-56750000D01*
X172177000Y-56750000D01*
X172177000Y-56743170D01*
X172154826Y-56631695D01*
X172111331Y-56526688D01*
X172068161Y-56462080D01*
X172143170Y-56477000D01*
X172256830Y-56477000D01*
X172368305Y-56454826D01*
X172473312Y-56411331D01*
X172567816Y-56348185D01*
X172648185Y-56267816D01*
X172711331Y-56173312D01*
X172754826Y-56068305D01*
X172777000Y-55956830D01*
X172777000Y-55843170D01*
X172773289Y-55824513D01*
X173919255Y-54678548D01*
X179673000Y-54678548D01*
X179673000Y-54841452D01*
X179704782Y-55001227D01*
X179767123Y-55151731D01*
X179857628Y-55287181D01*
X179972819Y-55402372D01*
X180108269Y-55492877D01*
X180258773Y-55555218D01*
X180418548Y-55587000D01*
X180581452Y-55587000D01*
X180741227Y-55555218D01*
X180891731Y-55492877D01*
X181027181Y-55402372D01*
X181142372Y-55287181D01*
X181232877Y-55151731D01*
X181295218Y-55001227D01*
X181327000Y-54841452D01*
X181327000Y-54678548D01*
X182213000Y-54678548D01*
X182213000Y-54841452D01*
X182244782Y-55001227D01*
X182307123Y-55151731D01*
X182397628Y-55287181D01*
X182512819Y-55402372D01*
X182648269Y-55492877D01*
X182798773Y-55555218D01*
X182958548Y-55587000D01*
X183121452Y-55587000D01*
X183281227Y-55555218D01*
X183431731Y-55492877D01*
X183567181Y-55402372D01*
X183682372Y-55287181D01*
X183772877Y-55151731D01*
X183835218Y-55001227D01*
X183867000Y-54841452D01*
X183867000Y-54678548D01*
X183835218Y-54518773D01*
X183772877Y-54368269D01*
X183682372Y-54232819D01*
X183567181Y-54117628D01*
X183431731Y-54027123D01*
X183281227Y-53964782D01*
X183121452Y-53933000D01*
X182958548Y-53933000D01*
X182798773Y-53964782D01*
X182648269Y-54027123D01*
X182512819Y-54117628D01*
X182397628Y-54232819D01*
X182307123Y-54368269D01*
X182244782Y-54518773D01*
X182213000Y-54678548D01*
X181327000Y-54678548D01*
X181295218Y-54518773D01*
X181232877Y-54368269D01*
X181142372Y-54232819D01*
X181027181Y-54117628D01*
X180891731Y-54027123D01*
X180741227Y-53964782D01*
X180581452Y-53933000D01*
X180418548Y-53933000D01*
X180258773Y-53964782D01*
X180108269Y-54027123D01*
X179972819Y-54117628D01*
X179857628Y-54232819D01*
X179767123Y-54368269D01*
X179704782Y-54518773D01*
X179673000Y-54678548D01*
X173919255Y-54678548D01*
X174824515Y-53773289D01*
X174843170Y-53777000D01*
X174956830Y-53777000D01*
X175068305Y-53754826D01*
X175173312Y-53711331D01*
X175267816Y-53648185D01*
X175348185Y-53567816D01*
X175411331Y-53473312D01*
X175454826Y-53368305D01*
X175477000Y-53256830D01*
X175477000Y-53143170D01*
X175454826Y-53031695D01*
X175411331Y-52926688D01*
X175348185Y-52832184D01*
X175267816Y-52751815D01*
X175173312Y-52688669D01*
X175068305Y-52645174D01*
X174956830Y-52623000D01*
X174843170Y-52623000D01*
X174731695Y-52645174D01*
X174626688Y-52688669D01*
X174532184Y-52751815D01*
X174451815Y-52832184D01*
X174388669Y-52926688D01*
X174345174Y-53031695D01*
X174323000Y-53143170D01*
X174323000Y-53256830D01*
X174326711Y-53275485D01*
X172275487Y-55326711D01*
X172256830Y-55323000D01*
X172143170Y-55323000D01*
X172031695Y-55345174D01*
X171926688Y-55388669D01*
X171832184Y-55451815D01*
X171751815Y-55532184D01*
X171688669Y-55626688D01*
X171645174Y-55731695D01*
X171623000Y-55843170D01*
X171623000Y-55956830D01*
X171645174Y-56068305D01*
X171688669Y-56173312D01*
X171731839Y-56237920D01*
X171656830Y-56223000D01*
X171543170Y-56223000D01*
X171431695Y-56245174D01*
X171326688Y-56288669D01*
X171232184Y-56351815D01*
X171151815Y-56432184D01*
X171088669Y-56526688D01*
X171045174Y-56631695D01*
X171023000Y-56743170D01*
X146752000Y-56743170D01*
X146752000Y-54243170D01*
X160823000Y-54243170D01*
X160823000Y-54356830D01*
X160845174Y-54468305D01*
X160888669Y-54573312D01*
X160951815Y-54667816D01*
X161032184Y-54748185D01*
X161126688Y-54811331D01*
X161231695Y-54854826D01*
X161343170Y-54877000D01*
X161456830Y-54877000D01*
X161475486Y-54873289D01*
X161738870Y-55136673D01*
X161749894Y-55150106D01*
X161763325Y-55161128D01*
X161803492Y-55194093D01*
X161836178Y-55211564D01*
X161864644Y-55226779D01*
X161930996Y-55246907D01*
X161982708Y-55252000D01*
X161982710Y-55252000D01*
X161999999Y-55253703D01*
X162017288Y-55252000D01*
X165341247Y-55252000D01*
X165351815Y-55267816D01*
X165432184Y-55348185D01*
X165526688Y-55411331D01*
X165631695Y-55454826D01*
X165743170Y-55477000D01*
X165856830Y-55477000D01*
X165968305Y-55454826D01*
X166073312Y-55411331D01*
X166167816Y-55348185D01*
X166248185Y-55267816D01*
X166311331Y-55173312D01*
X166354826Y-55068305D01*
X166377000Y-54956830D01*
X166377000Y-54843170D01*
X166354826Y-54731695D01*
X166311331Y-54626688D01*
X166248185Y-54532184D01*
X166167816Y-54451815D01*
X166073312Y-54388669D01*
X165968305Y-54345174D01*
X165856830Y-54323000D01*
X165743170Y-54323000D01*
X165631695Y-54345174D01*
X165526688Y-54388669D01*
X165432184Y-54451815D01*
X165351815Y-54532184D01*
X165341247Y-54548000D01*
X162145803Y-54548000D01*
X161973289Y-54375486D01*
X161977000Y-54356830D01*
X161977000Y-54243170D01*
X161954826Y-54131695D01*
X161911331Y-54026688D01*
X161848185Y-53932184D01*
X161767816Y-53851815D01*
X161673312Y-53788669D01*
X161568305Y-53745174D01*
X161456830Y-53723000D01*
X161343170Y-53723000D01*
X161231695Y-53745174D01*
X161126688Y-53788669D01*
X161032184Y-53851815D01*
X160951815Y-53932184D01*
X160888669Y-54026688D01*
X160845174Y-54131695D01*
X160823000Y-54243170D01*
X146752000Y-54243170D01*
X146752000Y-52458753D01*
X146767816Y-52448185D01*
X146848185Y-52367816D01*
X146911331Y-52273312D01*
X146954826Y-52168305D01*
X146977000Y-52056830D01*
X146977000Y-51943170D01*
X146954826Y-51831695D01*
X146911331Y-51726688D01*
X146848185Y-51632184D01*
X146767816Y-51551815D01*
X146673312Y-51488669D01*
X146568305Y-51445174D01*
X146456830Y-51423000D01*
X146343170Y-51423000D01*
X146231695Y-51445174D01*
X146126688Y-51488669D01*
X146032184Y-51551815D01*
X145951815Y-51632184D01*
X145888669Y-51726688D01*
X145845174Y-51831695D01*
X145823000Y-51943170D01*
X122025789Y-51943170D01*
X121907072Y-51893996D01*
X121650698Y-51843000D01*
X121389302Y-51843000D01*
X121132928Y-51893996D01*
X120891430Y-51994028D01*
X120674087Y-52139252D01*
X120489252Y-52324087D01*
X120344028Y-52541430D01*
X120243996Y-52782928D01*
X120193000Y-53039302D01*
X100627000Y-53039302D01*
X100627000Y-51243170D01*
X167123000Y-51243170D01*
X167123000Y-51356830D01*
X167145174Y-51468305D01*
X167188669Y-51573312D01*
X167251815Y-51667816D01*
X167332184Y-51748185D01*
X167426688Y-51811331D01*
X167531695Y-51854826D01*
X167643170Y-51877000D01*
X167756830Y-51877000D01*
X167868305Y-51854826D01*
X167973312Y-51811331D01*
X168067816Y-51748185D01*
X168148185Y-51667816D01*
X168158753Y-51652000D01*
X168982711Y-51652000D01*
X169000000Y-51653703D01*
X169017289Y-51652000D01*
X169017292Y-51652000D01*
X169069004Y-51646907D01*
X169135356Y-51626779D01*
X169196507Y-51594093D01*
X169250106Y-51550106D01*
X169261135Y-51536667D01*
X170424514Y-50373289D01*
X170443170Y-50377000D01*
X170556830Y-50377000D01*
X170668305Y-50354826D01*
X170773312Y-50311331D01*
X170867816Y-50248185D01*
X170948185Y-50167816D01*
X171011331Y-50073312D01*
X171054826Y-49968305D01*
X171077000Y-49856830D01*
X171077000Y-49743170D01*
X171054826Y-49631695D01*
X171011331Y-49526688D01*
X170948185Y-49432184D01*
X170867816Y-49351815D01*
X170773312Y-49288669D01*
X170668305Y-49245174D01*
X170556830Y-49223000D01*
X170443170Y-49223000D01*
X170331695Y-49245174D01*
X170226688Y-49288669D01*
X170132184Y-49351815D01*
X170051815Y-49432184D01*
X169988669Y-49526688D01*
X169945174Y-49631695D01*
X169923000Y-49743170D01*
X169923000Y-49856830D01*
X169926711Y-49875486D01*
X168854198Y-50948000D01*
X168158753Y-50948000D01*
X168148185Y-50932184D01*
X168067816Y-50851815D01*
X167973312Y-50788669D01*
X167868305Y-50745174D01*
X167756830Y-50723000D01*
X167643170Y-50723000D01*
X167531695Y-50745174D01*
X167426688Y-50788669D01*
X167332184Y-50851815D01*
X167251815Y-50932184D01*
X167188669Y-51026688D01*
X167145174Y-51131695D01*
X167123000Y-51243170D01*
X100627000Y-51243170D01*
X100627000Y-47991066D01*
X120528539Y-47991066D01*
X120630339Y-48260579D01*
X120928477Y-48406463D01*
X121249346Y-48491380D01*
X121580617Y-48512066D01*
X121909557Y-48467728D01*
X122223527Y-48360069D01*
X122409661Y-48260579D01*
X122511461Y-47991066D01*
X136408539Y-47991066D01*
X136510339Y-48260579D01*
X136808477Y-48406463D01*
X137129346Y-48491380D01*
X137460617Y-48512066D01*
X137789557Y-48467728D01*
X138103527Y-48360069D01*
X138289661Y-48260579D01*
X138391461Y-47991066D01*
X137400000Y-46999605D01*
X136408539Y-47991066D01*
X122511461Y-47991066D01*
X121520000Y-46999605D01*
X120528539Y-47991066D01*
X100627000Y-47991066D01*
X100627000Y-46880617D01*
X119827934Y-46880617D01*
X119872272Y-47209557D01*
X119979931Y-47523527D01*
X120079421Y-47709661D01*
X120348934Y-47811461D01*
X121340395Y-46820000D01*
X121699605Y-46820000D01*
X122691066Y-47811461D01*
X122960579Y-47709661D01*
X123106463Y-47411523D01*
X123191380Y-47090654D01*
X123204495Y-46880617D01*
X135707934Y-46880617D01*
X135752272Y-47209557D01*
X135859931Y-47523527D01*
X135959421Y-47709661D01*
X136228934Y-47811461D01*
X137220395Y-46820000D01*
X137579605Y-46820000D01*
X138571066Y-47811461D01*
X138840579Y-47709661D01*
X138986463Y-47411523D01*
X139071380Y-47090654D01*
X139092066Y-46759383D01*
X139047728Y-46430443D01*
X138940069Y-46116473D01*
X138840579Y-45930339D01*
X138571066Y-45828539D01*
X137579605Y-46820000D01*
X137220395Y-46820000D01*
X136228934Y-45828539D01*
X135959421Y-45930339D01*
X135813537Y-46228477D01*
X135728620Y-46549346D01*
X135707934Y-46880617D01*
X123204495Y-46880617D01*
X123212066Y-46759383D01*
X123167728Y-46430443D01*
X123060069Y-46116473D01*
X122960579Y-45930339D01*
X122691066Y-45828539D01*
X121699605Y-46820000D01*
X121340395Y-46820000D01*
X120348934Y-45828539D01*
X120079421Y-45930339D01*
X119933537Y-46228477D01*
X119848620Y-46549346D01*
X119827934Y-46880617D01*
X100627000Y-46880617D01*
X100627000Y-45648934D01*
X120528539Y-45648934D01*
X121520000Y-46640395D01*
X122511461Y-45648934D01*
X136408539Y-45648934D01*
X137400000Y-46640395D01*
X138391461Y-45648934D01*
X138289661Y-45379421D01*
X137991523Y-45233537D01*
X137670654Y-45148620D01*
X137339383Y-45127934D01*
X137010443Y-45172272D01*
X136696473Y-45279931D01*
X136510339Y-45379421D01*
X136408539Y-45648934D01*
X122511461Y-45648934D01*
X122409661Y-45379421D01*
X122111523Y-45233537D01*
X121790654Y-45148620D01*
X121459383Y-45127934D01*
X121130443Y-45172272D01*
X120816473Y-45279931D01*
X120630339Y-45379421D01*
X120528539Y-45648934D01*
X100627000Y-45648934D01*
X100627000Y-40337372D01*
X145018000Y-40337372D01*
X145018000Y-40542628D01*
X145058043Y-40743940D01*
X145136591Y-40933572D01*
X145250626Y-41104236D01*
X145395764Y-41249374D01*
X145566428Y-41363409D01*
X145756060Y-41441957D01*
X145957372Y-41482000D01*
X146162628Y-41482000D01*
X146363940Y-41441957D01*
X146553572Y-41363409D01*
X146724236Y-41249374D01*
X146869374Y-41104236D01*
X146983409Y-40933572D01*
X147061957Y-40743940D01*
X147102000Y-40542628D01*
X147102000Y-40337372D01*
X150098000Y-40337372D01*
X150098000Y-40542628D01*
X150138043Y-40743940D01*
X150216591Y-40933572D01*
X150330626Y-41104236D01*
X150475764Y-41249374D01*
X150646428Y-41363409D01*
X150836060Y-41441957D01*
X151037372Y-41482000D01*
X151242628Y-41482000D01*
X151443940Y-41441957D01*
X151633572Y-41363409D01*
X151804236Y-41249374D01*
X151949374Y-41104236D01*
X152063409Y-40933572D01*
X152141957Y-40743940D01*
X152182000Y-40542628D01*
X152182000Y-40337372D01*
X152141957Y-40136060D01*
X152063409Y-39946428D01*
X151949374Y-39775764D01*
X151804236Y-39630626D01*
X151633572Y-39516591D01*
X151443940Y-39438043D01*
X151242628Y-39398000D01*
X151037372Y-39398000D01*
X150836060Y-39438043D01*
X150646428Y-39516591D01*
X150475764Y-39630626D01*
X150330626Y-39775764D01*
X150216591Y-39946428D01*
X150138043Y-40136060D01*
X150098000Y-40337372D01*
X147102000Y-40337372D01*
X147061957Y-40136060D01*
X146983409Y-39946428D01*
X146869374Y-39775764D01*
X146724236Y-39630626D01*
X146553572Y-39516591D01*
X146363940Y-39438043D01*
X146162628Y-39398000D01*
X145957372Y-39398000D01*
X145756060Y-39438043D01*
X145566428Y-39516591D01*
X145395764Y-39630626D01*
X145250626Y-39775764D01*
X145136591Y-39946428D01*
X145058043Y-40136060D01*
X145018000Y-40337372D01*
X100627000Y-40337372D01*
X100627000Y-36932500D01*
X147354160Y-36932500D01*
X147354160Y-38867500D01*
X147359508Y-38921801D01*
X147375347Y-38974016D01*
X147401069Y-39022137D01*
X147435684Y-39064316D01*
X147477863Y-39098931D01*
X147525984Y-39124653D01*
X147578199Y-39140492D01*
X147632500Y-39145840D01*
X149567500Y-39145840D01*
X149621801Y-39140492D01*
X149674016Y-39124653D01*
X149722137Y-39098931D01*
X149764316Y-39064316D01*
X149798931Y-39022137D01*
X149824653Y-38974016D01*
X149840492Y-38921801D01*
X149845840Y-38867500D01*
X149845840Y-36932500D01*
X149840492Y-36878199D01*
X149824653Y-36825984D01*
X149798931Y-36777863D01*
X149764316Y-36735684D01*
X149722137Y-36701069D01*
X149674016Y-36675347D01*
X149621801Y-36659508D01*
X149567500Y-36654160D01*
X147632500Y-36654160D01*
X147578199Y-36659508D01*
X147525984Y-36675347D01*
X147477863Y-36701069D01*
X147435684Y-36735684D01*
X147401069Y-36777863D01*
X147375347Y-36825984D01*
X147359508Y-36878199D01*
X147354160Y-36932500D01*
X100627000Y-36932500D01*
X100627000Y-35257372D01*
X145018000Y-35257372D01*
X145018000Y-35462628D01*
X145058043Y-35663940D01*
X145136591Y-35853572D01*
X145250626Y-36024236D01*
X145395764Y-36169374D01*
X145566428Y-36283409D01*
X145756060Y-36361957D01*
X145957372Y-36402000D01*
X146162628Y-36402000D01*
X146363940Y-36361957D01*
X146553572Y-36283409D01*
X146724236Y-36169374D01*
X146869374Y-36024236D01*
X146983409Y-35853572D01*
X147061957Y-35663940D01*
X147102000Y-35462628D01*
X147102000Y-35257372D01*
X150098000Y-35257372D01*
X150098000Y-35462628D01*
X150138043Y-35663940D01*
X150216591Y-35853572D01*
X150330626Y-36024236D01*
X150475764Y-36169374D01*
X150646428Y-36283409D01*
X150836060Y-36361957D01*
X151037372Y-36402000D01*
X151242628Y-36402000D01*
X151443940Y-36361957D01*
X151633572Y-36283409D01*
X151804236Y-36169374D01*
X151949374Y-36024236D01*
X152063409Y-35853572D01*
X152141957Y-35663940D01*
X152182000Y-35462628D01*
X152182000Y-35257372D01*
X152141957Y-35056060D01*
X152063409Y-34866428D01*
X151949374Y-34695764D01*
X151804236Y-34550626D01*
X151633572Y-34436591D01*
X151443940Y-34358043D01*
X151242628Y-34318000D01*
X151037372Y-34318000D01*
X150836060Y-34358043D01*
X150646428Y-34436591D01*
X150475764Y-34550626D01*
X150330626Y-34695764D01*
X150216591Y-34866428D01*
X150138043Y-35056060D01*
X150098000Y-35257372D01*
X147102000Y-35257372D01*
X147061957Y-35056060D01*
X146983409Y-34866428D01*
X146869374Y-34695764D01*
X146724236Y-34550626D01*
X146553572Y-34436591D01*
X146363940Y-34358043D01*
X146162628Y-34318000D01*
X145957372Y-34318000D01*
X145756060Y-34358043D01*
X145566428Y-34436591D01*
X145395764Y-34550626D01*
X145250626Y-34695764D01*
X145136591Y-34866428D01*
X145058043Y-35056060D01*
X145018000Y-35257372D01*
X100627000Y-35257372D01*
X100627000Y-30627000D01*
X199373001Y-30627000D01*
X199373000Y-129373000D01*
G37*
%TD.AperFunction*%
%TD*%
M02*
