%TF.GenerationSoftware,KiCad,Pcbnew,(5.1.10)-1*%
%TF.CreationDate,2021-10-14T01:54:17+08:00*%
%TF.ProjectId,cc1310,63633133-3130-42e6-9b69-6361645f7063,rev?*%
%TF.SameCoordinates,Original*%
%TF.FileFunction,Paste,Top*%
%TF.FilePolarity,Positive*%
%FSLAX46Y46*%
G04 Gerber Fmt 4.6, Leading zero omitted, Abs format (unit mm)*
G04 Created by KiCad (PCBNEW (5.1.10)-1) date 2021-10-14 01:54:17*
%MOMM*%
%LPD*%
G01*
G04 APERTURE LIST*
%ADD10R,1.400000X1.150000*%
%ADD11R,1.000000X1.800000*%
%ADD12R,1.400000X1.200000*%
%ADD13R,0.700000X0.800000*%
%ADD14R,0.800000X0.700000*%
%ADD15C,1.400000*%
%ADD16R,1.800000X1.800000*%
%ADD17R,5.250000X5.250000*%
%ADD18R,0.300000X0.900000*%
%ADD19R,0.900000X0.300000*%
%ADD20R,4.150000X4.150000*%
%ADD21R,1.475000X0.300000*%
%ADD22R,0.300000X1.475000*%
%ADD23R,1.475000X0.450000*%
%ADD24R,0.650000X1.250000*%
%ADD25R,1.000000X0.600000*%
%ADD26R,0.650000X0.700000*%
%ADD27R,0.700000X0.650000*%
G04 APERTURE END LIST*
D10*
%TO.C,Y5*%
X130400000Y-95000000D03*
X132600000Y-95000000D03*
X132600000Y-96600000D03*
X130400000Y-96600000D03*
%TD*%
%TO.C,Y4*%
X176600000Y-57200000D03*
X174400000Y-57200000D03*
X174400000Y-55600000D03*
X176600000Y-55600000D03*
%TD*%
D11*
%TO.C,Y3*%
X125250000Y-110800000D03*
X122750000Y-110800000D03*
%TD*%
%TO.C,Y2*%
X160350000Y-51300000D03*
X162850000Y-51300000D03*
%TD*%
D12*
%TO.C,Y1*%
X175900000Y-107950000D03*
X178100000Y-107950000D03*
X178100000Y-109650000D03*
X175900000Y-109650000D03*
%TD*%
%TO.C,R15*%
G36*
G01*
X143075000Y-94062500D02*
X143075000Y-94537500D01*
G75*
G02*
X142837500Y-94775000I-237500J0D01*
G01*
X142337500Y-94775000D01*
G75*
G02*
X142100000Y-94537500I0J237500D01*
G01*
X142100000Y-94062500D01*
G75*
G02*
X142337500Y-93825000I237500J0D01*
G01*
X142837500Y-93825000D01*
G75*
G02*
X143075000Y-94062500I0J-237500D01*
G01*
G37*
G36*
G01*
X144900000Y-94062500D02*
X144900000Y-94537500D01*
G75*
G02*
X144662500Y-94775000I-237500J0D01*
G01*
X144162500Y-94775000D01*
G75*
G02*
X143925000Y-94537500I0J237500D01*
G01*
X143925000Y-94062500D01*
G75*
G02*
X144162500Y-93825000I237500J0D01*
G01*
X144662500Y-93825000D01*
G75*
G02*
X144900000Y-94062500I0J-237500D01*
G01*
G37*
%TD*%
%TO.C,R14*%
G36*
G01*
X138075000Y-91562500D02*
X138075000Y-92037500D01*
G75*
G02*
X137837500Y-92275000I-237500J0D01*
G01*
X137337500Y-92275000D01*
G75*
G02*
X137100000Y-92037500I0J237500D01*
G01*
X137100000Y-91562500D01*
G75*
G02*
X137337500Y-91325000I237500J0D01*
G01*
X137837500Y-91325000D01*
G75*
G02*
X138075000Y-91562500I0J-237500D01*
G01*
G37*
G36*
G01*
X139900000Y-91562500D02*
X139900000Y-92037500D01*
G75*
G02*
X139662500Y-92275000I-237500J0D01*
G01*
X139162500Y-92275000D01*
G75*
G02*
X138925000Y-92037500I0J237500D01*
G01*
X138925000Y-91562500D01*
G75*
G02*
X139162500Y-91325000I237500J0D01*
G01*
X139662500Y-91325000D01*
G75*
G02*
X139900000Y-91562500I0J-237500D01*
G01*
G37*
%TD*%
%TO.C,R13*%
G36*
G01*
X136575000Y-112662500D02*
X136575000Y-113137500D01*
G75*
G02*
X136337500Y-113375000I-237500J0D01*
G01*
X135837500Y-113375000D01*
G75*
G02*
X135600000Y-113137500I0J237500D01*
G01*
X135600000Y-112662500D01*
G75*
G02*
X135837500Y-112425000I237500J0D01*
G01*
X136337500Y-112425000D01*
G75*
G02*
X136575000Y-112662500I0J-237500D01*
G01*
G37*
G36*
G01*
X138400000Y-112662500D02*
X138400000Y-113137500D01*
G75*
G02*
X138162500Y-113375000I-237500J0D01*
G01*
X137662500Y-113375000D01*
G75*
G02*
X137425000Y-113137500I0J237500D01*
G01*
X137425000Y-112662500D01*
G75*
G02*
X137662500Y-112425000I237500J0D01*
G01*
X138162500Y-112425000D01*
G75*
G02*
X138400000Y-112662500I0J-237500D01*
G01*
G37*
%TD*%
%TO.C,R12*%
G36*
G01*
X182762500Y-51725000D02*
X183237500Y-51725000D01*
G75*
G02*
X183475000Y-51962500I0J-237500D01*
G01*
X183475000Y-52462500D01*
G75*
G02*
X183237500Y-52700000I-237500J0D01*
G01*
X182762500Y-52700000D01*
G75*
G02*
X182525000Y-52462500I0J237500D01*
G01*
X182525000Y-51962500D01*
G75*
G02*
X182762500Y-51725000I237500J0D01*
G01*
G37*
G36*
G01*
X182762500Y-49900000D02*
X183237500Y-49900000D01*
G75*
G02*
X183475000Y-50137500I0J-237500D01*
G01*
X183475000Y-50637500D01*
G75*
G02*
X183237500Y-50875000I-237500J0D01*
G01*
X182762500Y-50875000D01*
G75*
G02*
X182525000Y-50637500I0J237500D01*
G01*
X182525000Y-50137500D01*
G75*
G02*
X182762500Y-49900000I237500J0D01*
G01*
G37*
%TD*%
%TO.C,R11*%
G36*
G01*
X180737500Y-50875000D02*
X180262500Y-50875000D01*
G75*
G02*
X180025000Y-50637500I0J237500D01*
G01*
X180025000Y-50137500D01*
G75*
G02*
X180262500Y-49900000I237500J0D01*
G01*
X180737500Y-49900000D01*
G75*
G02*
X180975000Y-50137500I0J-237500D01*
G01*
X180975000Y-50637500D01*
G75*
G02*
X180737500Y-50875000I-237500J0D01*
G01*
G37*
G36*
G01*
X180737500Y-52700000D02*
X180262500Y-52700000D01*
G75*
G02*
X180025000Y-52462500I0J237500D01*
G01*
X180025000Y-51962500D01*
G75*
G02*
X180262500Y-51725000I237500J0D01*
G01*
X180737500Y-51725000D01*
G75*
G02*
X180975000Y-51962500I0J-237500D01*
G01*
X180975000Y-52462500D01*
G75*
G02*
X180737500Y-52700000I-237500J0D01*
G01*
G37*
%TD*%
%TO.C,R10*%
G36*
G01*
X158575000Y-63562500D02*
X158575000Y-64037500D01*
G75*
G02*
X158337500Y-64275000I-237500J0D01*
G01*
X157837500Y-64275000D01*
G75*
G02*
X157600000Y-64037500I0J237500D01*
G01*
X157600000Y-63562500D01*
G75*
G02*
X157837500Y-63325000I237500J0D01*
G01*
X158337500Y-63325000D01*
G75*
G02*
X158575000Y-63562500I0J-237500D01*
G01*
G37*
G36*
G01*
X160400000Y-63562500D02*
X160400000Y-64037500D01*
G75*
G02*
X160162500Y-64275000I-237500J0D01*
G01*
X159662500Y-64275000D01*
G75*
G02*
X159425000Y-64037500I0J237500D01*
G01*
X159425000Y-63562500D01*
G75*
G02*
X159662500Y-63325000I237500J0D01*
G01*
X160162500Y-63325000D01*
G75*
G02*
X160400000Y-63562500I0J-237500D01*
G01*
G37*
%TD*%
%TO.C,R9*%
G36*
G01*
X192925000Y-72537500D02*
X192925000Y-72062500D01*
G75*
G02*
X193162500Y-71825000I237500J0D01*
G01*
X193662500Y-71825000D01*
G75*
G02*
X193900000Y-72062500I0J-237500D01*
G01*
X193900000Y-72537500D01*
G75*
G02*
X193662500Y-72775000I-237500J0D01*
G01*
X193162500Y-72775000D01*
G75*
G02*
X192925000Y-72537500I0J237500D01*
G01*
G37*
G36*
G01*
X191100000Y-72537500D02*
X191100000Y-72062500D01*
G75*
G02*
X191337500Y-71825000I237500J0D01*
G01*
X191837500Y-71825000D01*
G75*
G02*
X192075000Y-72062500I0J-237500D01*
G01*
X192075000Y-72537500D01*
G75*
G02*
X191837500Y-72775000I-237500J0D01*
G01*
X191337500Y-72775000D01*
G75*
G02*
X191100000Y-72537500I0J237500D01*
G01*
G37*
%TD*%
%TO.C,R8*%
G36*
G01*
X157737500Y-70875000D02*
X157262500Y-70875000D01*
G75*
G02*
X157025000Y-70637500I0J237500D01*
G01*
X157025000Y-70137500D01*
G75*
G02*
X157262500Y-69900000I237500J0D01*
G01*
X157737500Y-69900000D01*
G75*
G02*
X157975000Y-70137500I0J-237500D01*
G01*
X157975000Y-70637500D01*
G75*
G02*
X157737500Y-70875000I-237500J0D01*
G01*
G37*
G36*
G01*
X157737500Y-72700000D02*
X157262500Y-72700000D01*
G75*
G02*
X157025000Y-72462500I0J237500D01*
G01*
X157025000Y-71962500D01*
G75*
G02*
X157262500Y-71725000I237500J0D01*
G01*
X157737500Y-71725000D01*
G75*
G02*
X157975000Y-71962500I0J-237500D01*
G01*
X157975000Y-72462500D01*
G75*
G02*
X157737500Y-72700000I-237500J0D01*
G01*
G37*
%TD*%
%TO.C,R7*%
G36*
G01*
X185075000Y-114562500D02*
X185075000Y-115037500D01*
G75*
G02*
X184837500Y-115275000I-237500J0D01*
G01*
X184337500Y-115275000D01*
G75*
G02*
X184100000Y-115037500I0J237500D01*
G01*
X184100000Y-114562500D01*
G75*
G02*
X184337500Y-114325000I237500J0D01*
G01*
X184837500Y-114325000D01*
G75*
G02*
X185075000Y-114562500I0J-237500D01*
G01*
G37*
G36*
G01*
X186900000Y-114562500D02*
X186900000Y-115037500D01*
G75*
G02*
X186662500Y-115275000I-237500J0D01*
G01*
X186162500Y-115275000D01*
G75*
G02*
X185925000Y-115037500I0J237500D01*
G01*
X185925000Y-114562500D01*
G75*
G02*
X186162500Y-114325000I237500J0D01*
G01*
X186662500Y-114325000D01*
G75*
G02*
X186900000Y-114562500I0J-237500D01*
G01*
G37*
%TD*%
%TO.C,R6*%
G36*
G01*
X188237500Y-111375000D02*
X187762500Y-111375000D01*
G75*
G02*
X187525000Y-111137500I0J237500D01*
G01*
X187525000Y-110637500D01*
G75*
G02*
X187762500Y-110400000I237500J0D01*
G01*
X188237500Y-110400000D01*
G75*
G02*
X188475000Y-110637500I0J-237500D01*
G01*
X188475000Y-111137500D01*
G75*
G02*
X188237500Y-111375000I-237500J0D01*
G01*
G37*
G36*
G01*
X188237500Y-113200000D02*
X187762500Y-113200000D01*
G75*
G02*
X187525000Y-112962500I0J237500D01*
G01*
X187525000Y-112462500D01*
G75*
G02*
X187762500Y-112225000I237500J0D01*
G01*
X188237500Y-112225000D01*
G75*
G02*
X188475000Y-112462500I0J-237500D01*
G01*
X188475000Y-112962500D01*
G75*
G02*
X188237500Y-113200000I-237500J0D01*
G01*
G37*
%TD*%
%TO.C,R5*%
G36*
G01*
X184425000Y-118937500D02*
X184425000Y-118462500D01*
G75*
G02*
X184662500Y-118225000I237500J0D01*
G01*
X185162500Y-118225000D01*
G75*
G02*
X185400000Y-118462500I0J-237500D01*
G01*
X185400000Y-118937500D01*
G75*
G02*
X185162500Y-119175000I-237500J0D01*
G01*
X184662500Y-119175000D01*
G75*
G02*
X184425000Y-118937500I0J237500D01*
G01*
G37*
G36*
G01*
X182600000Y-118937500D02*
X182600000Y-118462500D01*
G75*
G02*
X182837500Y-118225000I237500J0D01*
G01*
X183337500Y-118225000D01*
G75*
G02*
X183575000Y-118462500I0J-237500D01*
G01*
X183575000Y-118937500D01*
G75*
G02*
X183337500Y-119175000I-237500J0D01*
G01*
X182837500Y-119175000D01*
G75*
G02*
X182600000Y-118937500I0J237500D01*
G01*
G37*
%TD*%
%TO.C,R4*%
G36*
G01*
X143575000Y-49062500D02*
X143575000Y-49537500D01*
G75*
G02*
X143337500Y-49775000I-237500J0D01*
G01*
X142837500Y-49775000D01*
G75*
G02*
X142600000Y-49537500I0J237500D01*
G01*
X142600000Y-49062500D01*
G75*
G02*
X142837500Y-48825000I237500J0D01*
G01*
X143337500Y-48825000D01*
G75*
G02*
X143575000Y-49062500I0J-237500D01*
G01*
G37*
G36*
G01*
X145400000Y-49062500D02*
X145400000Y-49537500D01*
G75*
G02*
X145162500Y-49775000I-237500J0D01*
G01*
X144662500Y-49775000D01*
G75*
G02*
X144425000Y-49537500I0J237500D01*
G01*
X144425000Y-49062500D01*
G75*
G02*
X144662500Y-48825000I237500J0D01*
G01*
X145162500Y-48825000D01*
G75*
G02*
X145400000Y-49062500I0J-237500D01*
G01*
G37*
%TD*%
%TO.C,R3*%
G36*
G01*
X144425000Y-45537500D02*
X144425000Y-45062500D01*
G75*
G02*
X144662500Y-44825000I237500J0D01*
G01*
X145162500Y-44825000D01*
G75*
G02*
X145400000Y-45062500I0J-237500D01*
G01*
X145400000Y-45537500D01*
G75*
G02*
X145162500Y-45775000I-237500J0D01*
G01*
X144662500Y-45775000D01*
G75*
G02*
X144425000Y-45537500I0J237500D01*
G01*
G37*
G36*
G01*
X142600000Y-45537500D02*
X142600000Y-45062500D01*
G75*
G02*
X142837500Y-44825000I237500J0D01*
G01*
X143337500Y-44825000D01*
G75*
G02*
X143575000Y-45062500I0J-237500D01*
G01*
X143575000Y-45537500D01*
G75*
G02*
X143337500Y-45775000I-237500J0D01*
G01*
X142837500Y-45775000D01*
G75*
G02*
X142600000Y-45537500I0J237500D01*
G01*
G37*
%TD*%
%TO.C,R2*%
G36*
G01*
X140762500Y-57725000D02*
X141237500Y-57725000D01*
G75*
G02*
X141475000Y-57962500I0J-237500D01*
G01*
X141475000Y-58462500D01*
G75*
G02*
X141237500Y-58700000I-237500J0D01*
G01*
X140762500Y-58700000D01*
G75*
G02*
X140525000Y-58462500I0J237500D01*
G01*
X140525000Y-57962500D01*
G75*
G02*
X140762500Y-57725000I237500J0D01*
G01*
G37*
G36*
G01*
X140762500Y-55900000D02*
X141237500Y-55900000D01*
G75*
G02*
X141475000Y-56137500I0J-237500D01*
G01*
X141475000Y-56637500D01*
G75*
G02*
X141237500Y-56875000I-237500J0D01*
G01*
X140762500Y-56875000D01*
G75*
G02*
X140525000Y-56637500I0J237500D01*
G01*
X140525000Y-56137500D01*
G75*
G02*
X140762500Y-55900000I237500J0D01*
G01*
G37*
%TD*%
%TO.C,R1*%
G36*
G01*
X170237500Y-117375000D02*
X169762500Y-117375000D01*
G75*
G02*
X169525000Y-117137500I0J237500D01*
G01*
X169525000Y-116637500D01*
G75*
G02*
X169762500Y-116400000I237500J0D01*
G01*
X170237500Y-116400000D01*
G75*
G02*
X170475000Y-116637500I0J-237500D01*
G01*
X170475000Y-117137500D01*
G75*
G02*
X170237500Y-117375000I-237500J0D01*
G01*
G37*
G36*
G01*
X170237500Y-119200000D02*
X169762500Y-119200000D01*
G75*
G02*
X169525000Y-118962500I0J237500D01*
G01*
X169525000Y-118462500D01*
G75*
G02*
X169762500Y-118225000I237500J0D01*
G01*
X170237500Y-118225000D01*
G75*
G02*
X170475000Y-118462500I0J-237500D01*
G01*
X170475000Y-118962500D01*
G75*
G02*
X170237500Y-119200000I-237500J0D01*
G01*
G37*
%TD*%
D13*
%TO.C,LED4*%
X142600000Y-91300000D03*
X144400000Y-91300000D03*
%TD*%
%TO.C,LED3*%
X135400000Y-91300000D03*
X133600000Y-91300000D03*
%TD*%
%TO.C,LED2*%
X177900000Y-46800000D03*
X176100000Y-46800000D03*
%TD*%
D14*
%TO.C,LED1*%
X177500000Y-49900000D03*
X177500000Y-51700000D03*
%TD*%
%TO.C,L16*%
G36*
G01*
X141360000Y-103310000D02*
X141040000Y-103310000D01*
G75*
G02*
X140880000Y-103150000I0J160000D01*
G01*
X140880000Y-102705000D01*
G75*
G02*
X141040000Y-102545000I160000J0D01*
G01*
X141360000Y-102545000D01*
G75*
G02*
X141520000Y-102705000I0J-160000D01*
G01*
X141520000Y-103150000D01*
G75*
G02*
X141360000Y-103310000I-160000J0D01*
G01*
G37*
G36*
G01*
X141360000Y-104455000D02*
X141040000Y-104455000D01*
G75*
G02*
X140880000Y-104295000I0J160000D01*
G01*
X140880000Y-103850000D01*
G75*
G02*
X141040000Y-103690000I160000J0D01*
G01*
X141360000Y-103690000D01*
G75*
G02*
X141520000Y-103850000I0J-160000D01*
G01*
X141520000Y-104295000D01*
G75*
G02*
X141360000Y-104455000I-160000J0D01*
G01*
G37*
%TD*%
%TO.C,L15*%
G36*
G01*
X170690000Y-68360000D02*
X170690000Y-68040000D01*
G75*
G02*
X170850000Y-67880000I160000J0D01*
G01*
X171295000Y-67880000D01*
G75*
G02*
X171455000Y-68040000I0J-160000D01*
G01*
X171455000Y-68360000D01*
G75*
G02*
X171295000Y-68520000I-160000J0D01*
G01*
X170850000Y-68520000D01*
G75*
G02*
X170690000Y-68360000I0J160000D01*
G01*
G37*
G36*
G01*
X169545000Y-68360000D02*
X169545000Y-68040000D01*
G75*
G02*
X169705000Y-67880000I160000J0D01*
G01*
X170150000Y-67880000D01*
G75*
G02*
X170310000Y-68040000I0J-160000D01*
G01*
X170310000Y-68360000D01*
G75*
G02*
X170150000Y-68520000I-160000J0D01*
G01*
X169705000Y-68520000D01*
G75*
G02*
X169545000Y-68360000I0J160000D01*
G01*
G37*
%TD*%
%TO.C,L14*%
G36*
G01*
X122340000Y-101490000D02*
X122660000Y-101490000D01*
G75*
G02*
X122820000Y-101650000I0J-160000D01*
G01*
X122820000Y-102095000D01*
G75*
G02*
X122660000Y-102255000I-160000J0D01*
G01*
X122340000Y-102255000D01*
G75*
G02*
X122180000Y-102095000I0J160000D01*
G01*
X122180000Y-101650000D01*
G75*
G02*
X122340000Y-101490000I160000J0D01*
G01*
G37*
G36*
G01*
X122340000Y-100345000D02*
X122660000Y-100345000D01*
G75*
G02*
X122820000Y-100505000I0J-160000D01*
G01*
X122820000Y-100950000D01*
G75*
G02*
X122660000Y-101110000I-160000J0D01*
G01*
X122340000Y-101110000D01*
G75*
G02*
X122180000Y-100950000I0J160000D01*
G01*
X122180000Y-100505000D01*
G75*
G02*
X122340000Y-100345000I160000J0D01*
G01*
G37*
%TD*%
%TO.C,L13*%
G36*
G01*
X122340000Y-103990000D02*
X122660000Y-103990000D01*
G75*
G02*
X122820000Y-104150000I0J-160000D01*
G01*
X122820000Y-104595000D01*
G75*
G02*
X122660000Y-104755000I-160000J0D01*
G01*
X122340000Y-104755000D01*
G75*
G02*
X122180000Y-104595000I0J160000D01*
G01*
X122180000Y-104150000D01*
G75*
G02*
X122340000Y-103990000I160000J0D01*
G01*
G37*
G36*
G01*
X122340000Y-102845000D02*
X122660000Y-102845000D01*
G75*
G02*
X122820000Y-103005000I0J-160000D01*
G01*
X122820000Y-103450000D01*
G75*
G02*
X122660000Y-103610000I-160000J0D01*
G01*
X122340000Y-103610000D01*
G75*
G02*
X122180000Y-103450000I0J160000D01*
G01*
X122180000Y-103005000D01*
G75*
G02*
X122340000Y-102845000I160000J0D01*
G01*
G37*
%TD*%
%TO.C,L12*%
G36*
G01*
X170010000Y-55340000D02*
X170010000Y-55660000D01*
G75*
G02*
X169850000Y-55820000I-160000J0D01*
G01*
X169405000Y-55820000D01*
G75*
G02*
X169245000Y-55660000I0J160000D01*
G01*
X169245000Y-55340000D01*
G75*
G02*
X169405000Y-55180000I160000J0D01*
G01*
X169850000Y-55180000D01*
G75*
G02*
X170010000Y-55340000I0J-160000D01*
G01*
G37*
G36*
G01*
X171155000Y-55340000D02*
X171155000Y-55660000D01*
G75*
G02*
X170995000Y-55820000I-160000J0D01*
G01*
X170550000Y-55820000D01*
G75*
G02*
X170390000Y-55660000I0J160000D01*
G01*
X170390000Y-55340000D01*
G75*
G02*
X170550000Y-55180000I160000J0D01*
G01*
X170995000Y-55180000D01*
G75*
G02*
X171155000Y-55340000I0J-160000D01*
G01*
G37*
%TD*%
%TO.C,L11*%
G36*
G01*
X167440000Y-53290000D02*
X167760000Y-53290000D01*
G75*
G02*
X167920000Y-53450000I0J-160000D01*
G01*
X167920000Y-53895000D01*
G75*
G02*
X167760000Y-54055000I-160000J0D01*
G01*
X167440000Y-54055000D01*
G75*
G02*
X167280000Y-53895000I0J160000D01*
G01*
X167280000Y-53450000D01*
G75*
G02*
X167440000Y-53290000I160000J0D01*
G01*
G37*
G36*
G01*
X167440000Y-52145000D02*
X167760000Y-52145000D01*
G75*
G02*
X167920000Y-52305000I0J-160000D01*
G01*
X167920000Y-52750000D01*
G75*
G02*
X167760000Y-52910000I-160000J0D01*
G01*
X167440000Y-52910000D01*
G75*
G02*
X167280000Y-52750000I0J160000D01*
G01*
X167280000Y-52305000D01*
G75*
G02*
X167440000Y-52145000I160000J0D01*
G01*
G37*
%TD*%
%TO.C,L10*%
G36*
G01*
X120160000Y-101110000D02*
X119840000Y-101110000D01*
G75*
G02*
X119680000Y-100950000I0J160000D01*
G01*
X119680000Y-100505000D01*
G75*
G02*
X119840000Y-100345000I160000J0D01*
G01*
X120160000Y-100345000D01*
G75*
G02*
X120320000Y-100505000I0J-160000D01*
G01*
X120320000Y-100950000D01*
G75*
G02*
X120160000Y-101110000I-160000J0D01*
G01*
G37*
G36*
G01*
X120160000Y-102255000D02*
X119840000Y-102255000D01*
G75*
G02*
X119680000Y-102095000I0J160000D01*
G01*
X119680000Y-101650000D01*
G75*
G02*
X119840000Y-101490000I160000J0D01*
G01*
X120160000Y-101490000D01*
G75*
G02*
X120320000Y-101650000I0J-160000D01*
G01*
X120320000Y-102095000D01*
G75*
G02*
X120160000Y-102255000I-160000J0D01*
G01*
G37*
%TD*%
%TO.C,L9*%
G36*
G01*
X171190000Y-51660000D02*
X171190000Y-51340000D01*
G75*
G02*
X171350000Y-51180000I160000J0D01*
G01*
X171795000Y-51180000D01*
G75*
G02*
X171955000Y-51340000I0J-160000D01*
G01*
X171955000Y-51660000D01*
G75*
G02*
X171795000Y-51820000I-160000J0D01*
G01*
X171350000Y-51820000D01*
G75*
G02*
X171190000Y-51660000I0J160000D01*
G01*
G37*
G36*
G01*
X170045000Y-51660000D02*
X170045000Y-51340000D01*
G75*
G02*
X170205000Y-51180000I160000J0D01*
G01*
X170650000Y-51180000D01*
G75*
G02*
X170810000Y-51340000I0J-160000D01*
G01*
X170810000Y-51660000D01*
G75*
G02*
X170650000Y-51820000I-160000J0D01*
G01*
X170205000Y-51820000D01*
G75*
G02*
X170045000Y-51660000I0J160000D01*
G01*
G37*
%TD*%
%TO.C,L8*%
G36*
G01*
X115190000Y-104960000D02*
X115190000Y-104640000D01*
G75*
G02*
X115350000Y-104480000I160000J0D01*
G01*
X115795000Y-104480000D01*
G75*
G02*
X115955000Y-104640000I0J-160000D01*
G01*
X115955000Y-104960000D01*
G75*
G02*
X115795000Y-105120000I-160000J0D01*
G01*
X115350000Y-105120000D01*
G75*
G02*
X115190000Y-104960000I0J160000D01*
G01*
G37*
G36*
G01*
X114045000Y-104960000D02*
X114045000Y-104640000D01*
G75*
G02*
X114205000Y-104480000I160000J0D01*
G01*
X114650000Y-104480000D01*
G75*
G02*
X114810000Y-104640000I0J-160000D01*
G01*
X114810000Y-104960000D01*
G75*
G02*
X114650000Y-105120000I-160000J0D01*
G01*
X114205000Y-105120000D01*
G75*
G02*
X114045000Y-104960000I0J160000D01*
G01*
G37*
%TD*%
%TO.C,L7*%
G36*
G01*
X167640000Y-48690000D02*
X167960000Y-48690000D01*
G75*
G02*
X168120000Y-48850000I0J-160000D01*
G01*
X168120000Y-49295000D01*
G75*
G02*
X167960000Y-49455000I-160000J0D01*
G01*
X167640000Y-49455000D01*
G75*
G02*
X167480000Y-49295000I0J160000D01*
G01*
X167480000Y-48850000D01*
G75*
G02*
X167640000Y-48690000I160000J0D01*
G01*
G37*
G36*
G01*
X167640000Y-47545000D02*
X167960000Y-47545000D01*
G75*
G02*
X168120000Y-47705000I0J-160000D01*
G01*
X168120000Y-48150000D01*
G75*
G02*
X167960000Y-48310000I-160000J0D01*
G01*
X167640000Y-48310000D01*
G75*
G02*
X167480000Y-48150000I0J160000D01*
G01*
X167480000Y-47705000D01*
G75*
G02*
X167640000Y-47545000I160000J0D01*
G01*
G37*
%TD*%
%TO.C,L6*%
G36*
G01*
X111190000Y-104960000D02*
X111190000Y-104640000D01*
G75*
G02*
X111350000Y-104480000I160000J0D01*
G01*
X111795000Y-104480000D01*
G75*
G02*
X111955000Y-104640000I0J-160000D01*
G01*
X111955000Y-104960000D01*
G75*
G02*
X111795000Y-105120000I-160000J0D01*
G01*
X111350000Y-105120000D01*
G75*
G02*
X111190000Y-104960000I0J160000D01*
G01*
G37*
G36*
G01*
X110045000Y-104960000D02*
X110045000Y-104640000D01*
G75*
G02*
X110205000Y-104480000I160000J0D01*
G01*
X110650000Y-104480000D01*
G75*
G02*
X110810000Y-104640000I0J-160000D01*
G01*
X110810000Y-104960000D01*
G75*
G02*
X110650000Y-105120000I-160000J0D01*
G01*
X110205000Y-105120000D01*
G75*
G02*
X110045000Y-104960000I0J160000D01*
G01*
G37*
%TD*%
%TO.C,L5*%
G36*
G01*
X167640000Y-45090000D02*
X167960000Y-45090000D01*
G75*
G02*
X168120000Y-45250000I0J-160000D01*
G01*
X168120000Y-45695000D01*
G75*
G02*
X167960000Y-45855000I-160000J0D01*
G01*
X167640000Y-45855000D01*
G75*
G02*
X167480000Y-45695000I0J160000D01*
G01*
X167480000Y-45250000D01*
G75*
G02*
X167640000Y-45090000I160000J0D01*
G01*
G37*
G36*
G01*
X167640000Y-43945000D02*
X167960000Y-43945000D01*
G75*
G02*
X168120000Y-44105000I0J-160000D01*
G01*
X168120000Y-44550000D01*
G75*
G02*
X167960000Y-44710000I-160000J0D01*
G01*
X167640000Y-44710000D01*
G75*
G02*
X167480000Y-44550000I0J160000D01*
G01*
X167480000Y-44105000D01*
G75*
G02*
X167640000Y-43945000I160000J0D01*
G01*
G37*
%TD*%
%TO.C,L4*%
G36*
G01*
X107660000Y-107610000D02*
X107340000Y-107610000D01*
G75*
G02*
X107180000Y-107450000I0J160000D01*
G01*
X107180000Y-107005000D01*
G75*
G02*
X107340000Y-106845000I160000J0D01*
G01*
X107660000Y-106845000D01*
G75*
G02*
X107820000Y-107005000I0J-160000D01*
G01*
X107820000Y-107450000D01*
G75*
G02*
X107660000Y-107610000I-160000J0D01*
G01*
G37*
G36*
G01*
X107660000Y-108755000D02*
X107340000Y-108755000D01*
G75*
G02*
X107180000Y-108595000I0J160000D01*
G01*
X107180000Y-108150000D01*
G75*
G02*
X107340000Y-107990000I160000J0D01*
G01*
X107660000Y-107990000D01*
G75*
G02*
X107820000Y-108150000I0J-160000D01*
G01*
X107820000Y-108595000D01*
G75*
G02*
X107660000Y-108755000I-160000J0D01*
G01*
G37*
%TD*%
%TO.C,L3*%
G36*
G01*
X162590000Y-42060000D02*
X162590000Y-41740000D01*
G75*
G02*
X162750000Y-41580000I160000J0D01*
G01*
X163195000Y-41580000D01*
G75*
G02*
X163355000Y-41740000I0J-160000D01*
G01*
X163355000Y-42060000D01*
G75*
G02*
X163195000Y-42220000I-160000J0D01*
G01*
X162750000Y-42220000D01*
G75*
G02*
X162590000Y-42060000I0J160000D01*
G01*
G37*
G36*
G01*
X161445000Y-42060000D02*
X161445000Y-41740000D01*
G75*
G02*
X161605000Y-41580000I160000J0D01*
G01*
X162050000Y-41580000D01*
G75*
G02*
X162210000Y-41740000I0J-160000D01*
G01*
X162210000Y-42060000D01*
G75*
G02*
X162050000Y-42220000I-160000J0D01*
G01*
X161605000Y-42220000D01*
G75*
G02*
X161445000Y-42060000I0J160000D01*
G01*
G37*
%TD*%
%TO.C,L2*%
G36*
G01*
X143810000Y-52140000D02*
X143810000Y-52460000D01*
G75*
G02*
X143650000Y-52620000I-160000J0D01*
G01*
X143205000Y-52620000D01*
G75*
G02*
X143045000Y-52460000I0J160000D01*
G01*
X143045000Y-52140000D01*
G75*
G02*
X143205000Y-51980000I160000J0D01*
G01*
X143650000Y-51980000D01*
G75*
G02*
X143810000Y-52140000I0J-160000D01*
G01*
G37*
G36*
G01*
X144955000Y-52140000D02*
X144955000Y-52460000D01*
G75*
G02*
X144795000Y-52620000I-160000J0D01*
G01*
X144350000Y-52620000D01*
G75*
G02*
X144190000Y-52460000I0J160000D01*
G01*
X144190000Y-52140000D01*
G75*
G02*
X144350000Y-51980000I160000J0D01*
G01*
X144795000Y-51980000D01*
G75*
G02*
X144955000Y-52140000I0J-160000D01*
G01*
G37*
%TD*%
%TO.C,L1*%
G36*
G01*
X185010000Y-123140000D02*
X185010000Y-123460000D01*
G75*
G02*
X184850000Y-123620000I-160000J0D01*
G01*
X184405000Y-123620000D01*
G75*
G02*
X184245000Y-123460000I0J160000D01*
G01*
X184245000Y-123140000D01*
G75*
G02*
X184405000Y-122980000I160000J0D01*
G01*
X184850000Y-122980000D01*
G75*
G02*
X185010000Y-123140000I0J-160000D01*
G01*
G37*
G36*
G01*
X186155000Y-123140000D02*
X186155000Y-123460000D01*
G75*
G02*
X185995000Y-123620000I-160000J0D01*
G01*
X185550000Y-123620000D01*
G75*
G02*
X185390000Y-123460000I0J160000D01*
G01*
X185390000Y-123140000D01*
G75*
G02*
X185550000Y-122980000I160000J0D01*
G01*
X185995000Y-122980000D01*
G75*
G02*
X186155000Y-123140000I0J-160000D01*
G01*
G37*
%TD*%
D15*
%TO.C,J3*%
X110000000Y-95800000D03*
D16*
X107200000Y-98600000D03*
X112800000Y-98600000D03*
X107200000Y-93000000D03*
X112800000Y-93000000D03*
%TD*%
D15*
%TO.C,J2*%
X178400000Y-39500000D03*
D16*
X181200000Y-42300000D03*
X181200000Y-36700000D03*
X175600000Y-42300000D03*
X175600000Y-36700000D03*
%TD*%
D17*
%TO.C,IC6*%
X133000000Y-105300000D03*
D18*
X130250000Y-101850000D03*
X130750000Y-101850000D03*
X131250000Y-101850000D03*
X131750000Y-101850000D03*
X132250000Y-101850000D03*
X132750000Y-101850000D03*
X133250000Y-101850000D03*
X133750000Y-101850000D03*
X134250000Y-101850000D03*
X134750000Y-101850000D03*
X135250000Y-101850000D03*
X135750000Y-101850000D03*
D19*
X136450000Y-102550000D03*
X136450000Y-103050000D03*
X136450000Y-103550000D03*
X136450000Y-104050000D03*
X136450000Y-104550000D03*
X136450000Y-105050000D03*
X136450000Y-105550000D03*
X136450000Y-106050000D03*
X136450000Y-106550000D03*
X136450000Y-107050000D03*
X136450000Y-107550000D03*
X136450000Y-108050000D03*
D18*
X135750000Y-108750000D03*
X135250000Y-108750000D03*
X134750000Y-108750000D03*
X134250000Y-108750000D03*
X133750000Y-108750000D03*
X133250000Y-108750000D03*
X132750000Y-108750000D03*
X132250000Y-108750000D03*
X131750000Y-108750000D03*
X131250000Y-108750000D03*
X130750000Y-108750000D03*
X130250000Y-108750000D03*
D19*
X129550000Y-108050000D03*
X129550000Y-107550000D03*
X129550000Y-107050000D03*
X129550000Y-106550000D03*
X129550000Y-106050000D03*
X129550000Y-105550000D03*
X129550000Y-105050000D03*
X129550000Y-104550000D03*
X129550000Y-104050000D03*
X129550000Y-103550000D03*
X129550000Y-103050000D03*
X129550000Y-102550000D03*
%TD*%
D17*
%TO.C,IC5*%
X168000000Y-60800000D03*
D19*
X171450000Y-58050000D03*
X171450000Y-58550000D03*
X171450000Y-59050000D03*
X171450000Y-59550000D03*
X171450000Y-60050000D03*
X171450000Y-60550000D03*
X171450000Y-61050000D03*
X171450000Y-61550000D03*
X171450000Y-62050000D03*
X171450000Y-62550000D03*
X171450000Y-63050000D03*
X171450000Y-63550000D03*
D18*
X170750000Y-64250000D03*
X170250000Y-64250000D03*
X169750000Y-64250000D03*
X169250000Y-64250000D03*
X168750000Y-64250000D03*
X168250000Y-64250000D03*
X167750000Y-64250000D03*
X167250000Y-64250000D03*
X166750000Y-64250000D03*
X166250000Y-64250000D03*
X165750000Y-64250000D03*
X165250000Y-64250000D03*
D19*
X164550000Y-63550000D03*
X164550000Y-63050000D03*
X164550000Y-62550000D03*
X164550000Y-62050000D03*
X164550000Y-61550000D03*
X164550000Y-61050000D03*
X164550000Y-60550000D03*
X164550000Y-60050000D03*
X164550000Y-59550000D03*
X164550000Y-59050000D03*
X164550000Y-58550000D03*
X164550000Y-58050000D03*
D18*
X165250000Y-57350000D03*
X165750000Y-57350000D03*
X166250000Y-57350000D03*
X166750000Y-57350000D03*
X167250000Y-57350000D03*
X167750000Y-57350000D03*
X168250000Y-57350000D03*
X168750000Y-57350000D03*
X169250000Y-57350000D03*
X169750000Y-57350000D03*
X170250000Y-57350000D03*
X170750000Y-57350000D03*
%TD*%
D20*
%TO.C,IC4*%
X177000000Y-87300000D03*
D21*
X187738000Y-78550000D03*
X187738000Y-79050000D03*
X187738000Y-79550000D03*
X187738000Y-80050000D03*
X187738000Y-80550000D03*
X187738000Y-81050000D03*
X187738000Y-81550000D03*
X187738000Y-82050000D03*
X187738000Y-82550000D03*
X187738000Y-83050000D03*
X187738000Y-83550000D03*
X187738000Y-84050000D03*
X187738000Y-84550000D03*
X187738000Y-85050000D03*
X187738000Y-85550000D03*
X187738000Y-86050000D03*
X187738000Y-86550000D03*
X187738000Y-87050000D03*
X187738000Y-87550000D03*
X187738000Y-88050000D03*
X187738000Y-88550000D03*
X187738000Y-89050000D03*
X187738000Y-89550000D03*
X187738000Y-90050000D03*
X187738000Y-90550000D03*
X187738000Y-91050000D03*
X187738000Y-91550000D03*
X187738000Y-92050000D03*
X187738000Y-92550000D03*
X187738000Y-93050000D03*
X187738000Y-93550000D03*
X187738000Y-94050000D03*
X187738000Y-94550000D03*
X187738000Y-95050000D03*
X187738000Y-95550000D03*
X187738000Y-96050000D03*
D22*
X185750000Y-98038000D03*
X185250000Y-98038000D03*
X184750000Y-98038000D03*
X184250000Y-98038000D03*
X183750000Y-98038000D03*
X183250000Y-98038000D03*
X182750000Y-98038000D03*
X182250000Y-98038000D03*
X181750000Y-98038000D03*
X181250000Y-98038000D03*
X180750000Y-98038000D03*
X180250000Y-98038000D03*
X179750000Y-98038000D03*
X179250000Y-98038000D03*
X178750000Y-98038000D03*
X178250000Y-98038000D03*
X177750000Y-98038000D03*
X177250000Y-98038000D03*
X176750000Y-98038000D03*
X176250000Y-98038000D03*
X175750000Y-98038000D03*
X175250000Y-98038000D03*
X174750000Y-98038000D03*
X174250000Y-98038000D03*
X173750000Y-98038000D03*
X173250000Y-98038000D03*
X172750000Y-98038000D03*
X172250000Y-98038000D03*
X171750000Y-98038000D03*
X171250000Y-98038000D03*
X170750000Y-98038000D03*
X170250000Y-98038000D03*
X169750000Y-98038000D03*
X169250000Y-98038000D03*
X168750000Y-98038000D03*
X168250000Y-98038000D03*
D21*
X166262000Y-96050000D03*
X166262000Y-95550000D03*
X166262000Y-95050000D03*
X166262000Y-94550000D03*
X166262000Y-94050000D03*
X166262000Y-93550000D03*
X166262000Y-93050000D03*
X166262000Y-92550000D03*
X166262000Y-92050000D03*
X166262000Y-91550000D03*
X166262000Y-91050000D03*
X166262000Y-90550000D03*
X166262000Y-90050000D03*
X166262000Y-89550000D03*
X166262000Y-89050000D03*
X166262000Y-88550000D03*
X166262000Y-88050000D03*
X166262000Y-87550000D03*
X166262000Y-87050000D03*
X166262000Y-86550000D03*
X166262000Y-86050000D03*
X166262000Y-85550000D03*
X166262000Y-85050000D03*
X166262000Y-84550000D03*
X166262000Y-84050000D03*
X166262000Y-83550000D03*
X166262000Y-83050000D03*
X166262000Y-82550000D03*
X166262000Y-82050000D03*
X166262000Y-81550000D03*
X166262000Y-81050000D03*
X166262000Y-80550000D03*
X166262000Y-80050000D03*
X166262000Y-79550000D03*
X166262000Y-79050000D03*
X166262000Y-78550000D03*
D22*
X168250000Y-76562000D03*
X168750000Y-76562000D03*
X169250000Y-76562000D03*
X169750000Y-76562000D03*
X170250000Y-76562000D03*
X170750000Y-76562000D03*
X171250000Y-76562000D03*
X171750000Y-76562000D03*
X172250000Y-76562000D03*
X172750000Y-76562000D03*
X173250000Y-76562000D03*
X173750000Y-76562000D03*
X174250000Y-76562000D03*
X174750000Y-76562000D03*
X175250000Y-76562000D03*
X175750000Y-76562000D03*
X176250000Y-76562000D03*
X176750000Y-76562000D03*
X177250000Y-76562000D03*
X177750000Y-76562000D03*
X178250000Y-76562000D03*
X178750000Y-76562000D03*
X179250000Y-76562000D03*
X179750000Y-76562000D03*
X180250000Y-76562000D03*
X180750000Y-76562000D03*
X181250000Y-76562000D03*
X181750000Y-76562000D03*
X182250000Y-76562000D03*
X182750000Y-76562000D03*
X183250000Y-76562000D03*
X183750000Y-76562000D03*
X184250000Y-76562000D03*
X184750000Y-76562000D03*
X185250000Y-76562000D03*
X185750000Y-76562000D03*
%TD*%
D23*
%TO.C,IC3*%
X179938000Y-112875000D03*
X179938000Y-113525000D03*
X179938000Y-114175000D03*
X179938000Y-114825000D03*
X179938000Y-115475000D03*
X179938000Y-116125000D03*
X179938000Y-116775000D03*
X179938000Y-117425000D03*
X179938000Y-118075000D03*
X179938000Y-118725000D03*
X174062000Y-118725000D03*
X174062000Y-118075000D03*
X174062000Y-117425000D03*
X174062000Y-116775000D03*
X174062000Y-116125000D03*
X174062000Y-115475000D03*
X174062000Y-114825000D03*
X174062000Y-114175000D03*
X174062000Y-113525000D03*
X174062000Y-112875000D03*
%TD*%
D24*
%TO.C,IC2*%
X178500000Y-64250000D03*
X179460000Y-66350000D03*
X177540000Y-66350000D03*
%TD*%
D25*
%TO.C,IC1*%
X159400000Y-112850000D03*
X159400000Y-114750000D03*
X156600000Y-114750000D03*
X156600000Y-113800000D03*
X156600000Y-112850000D03*
%TD*%
D26*
%TO.C,FB3*%
X130175000Y-116400000D03*
X128825000Y-116400000D03*
%TD*%
D27*
%TO.C,FB2*%
X156500000Y-56475000D03*
X156500000Y-55125000D03*
%TD*%
%TO.C,C75*%
G36*
G01*
X141590000Y-100596500D02*
X141410000Y-100596500D01*
G75*
G02*
X141320000Y-100506500I0J90000D01*
G01*
X141320000Y-100228500D01*
G75*
G02*
X141410000Y-100138500I90000J0D01*
G01*
X141590000Y-100138500D01*
G75*
G02*
X141680000Y-100228500I0J-90000D01*
G01*
X141680000Y-100506500D01*
G75*
G02*
X141590000Y-100596500I-90000J0D01*
G01*
G37*
G36*
G01*
X141590000Y-101461500D02*
X141410000Y-101461500D01*
G75*
G02*
X141320000Y-101371500I0J90000D01*
G01*
X141320000Y-101093500D01*
G75*
G02*
X141410000Y-101003500I90000J0D01*
G01*
X141590000Y-101003500D01*
G75*
G02*
X141680000Y-101093500I0J-90000D01*
G01*
X141680000Y-101371500D01*
G75*
G02*
X141590000Y-101461500I-90000J0D01*
G01*
G37*
%TD*%
%TO.C,C74*%
G36*
G01*
X174590000Y-66096500D02*
X174410000Y-66096500D01*
G75*
G02*
X174320000Y-66006500I0J90000D01*
G01*
X174320000Y-65728500D01*
G75*
G02*
X174410000Y-65638500I90000J0D01*
G01*
X174590000Y-65638500D01*
G75*
G02*
X174680000Y-65728500I0J-90000D01*
G01*
X174680000Y-66006500D01*
G75*
G02*
X174590000Y-66096500I-90000J0D01*
G01*
G37*
G36*
G01*
X174590000Y-66961500D02*
X174410000Y-66961500D01*
G75*
G02*
X174320000Y-66871500I0J90000D01*
G01*
X174320000Y-66593500D01*
G75*
G02*
X174410000Y-66503500I90000J0D01*
G01*
X174590000Y-66503500D01*
G75*
G02*
X174680000Y-66593500I0J-90000D01*
G01*
X174680000Y-66871500D01*
G75*
G02*
X174590000Y-66961500I-90000J0D01*
G01*
G37*
%TD*%
%TO.C,C73*%
G36*
G01*
X140590000Y-100596500D02*
X140410000Y-100596500D01*
G75*
G02*
X140320000Y-100506500I0J90000D01*
G01*
X140320000Y-100228500D01*
G75*
G02*
X140410000Y-100138500I90000J0D01*
G01*
X140590000Y-100138500D01*
G75*
G02*
X140680000Y-100228500I0J-90000D01*
G01*
X140680000Y-100506500D01*
G75*
G02*
X140590000Y-100596500I-90000J0D01*
G01*
G37*
G36*
G01*
X140590000Y-101461500D02*
X140410000Y-101461500D01*
G75*
G02*
X140320000Y-101371500I0J90000D01*
G01*
X140320000Y-101093500D01*
G75*
G02*
X140410000Y-101003500I90000J0D01*
G01*
X140590000Y-101003500D01*
G75*
G02*
X140680000Y-101093500I0J-90000D01*
G01*
X140680000Y-101371500D01*
G75*
G02*
X140590000Y-101461500I-90000J0D01*
G01*
G37*
%TD*%
%TO.C,C72*%
G36*
G01*
X173590000Y-66096500D02*
X173410000Y-66096500D01*
G75*
G02*
X173320000Y-66006500I0J90000D01*
G01*
X173320000Y-65728500D01*
G75*
G02*
X173410000Y-65638500I90000J0D01*
G01*
X173590000Y-65638500D01*
G75*
G02*
X173680000Y-65728500I0J-90000D01*
G01*
X173680000Y-66006500D01*
G75*
G02*
X173590000Y-66096500I-90000J0D01*
G01*
G37*
G36*
G01*
X173590000Y-66961500D02*
X173410000Y-66961500D01*
G75*
G02*
X173320000Y-66871500I0J90000D01*
G01*
X173320000Y-66593500D01*
G75*
G02*
X173410000Y-66503500I90000J0D01*
G01*
X173590000Y-66503500D01*
G75*
G02*
X173680000Y-66593500I0J-90000D01*
G01*
X173680000Y-66871500D01*
G75*
G02*
X173590000Y-66961500I-90000J0D01*
G01*
G37*
%TD*%
%TO.C,C71*%
G36*
G01*
X139590000Y-100596500D02*
X139410000Y-100596500D01*
G75*
G02*
X139320000Y-100506500I0J90000D01*
G01*
X139320000Y-100228500D01*
G75*
G02*
X139410000Y-100138500I90000J0D01*
G01*
X139590000Y-100138500D01*
G75*
G02*
X139680000Y-100228500I0J-90000D01*
G01*
X139680000Y-100506500D01*
G75*
G02*
X139590000Y-100596500I-90000J0D01*
G01*
G37*
G36*
G01*
X139590000Y-101461500D02*
X139410000Y-101461500D01*
G75*
G02*
X139320000Y-101371500I0J90000D01*
G01*
X139320000Y-101093500D01*
G75*
G02*
X139410000Y-101003500I90000J0D01*
G01*
X139590000Y-101003500D01*
G75*
G02*
X139680000Y-101093500I0J-90000D01*
G01*
X139680000Y-101371500D01*
G75*
G02*
X139590000Y-101461500I-90000J0D01*
G01*
G37*
%TD*%
%TO.C,C70*%
G36*
G01*
X137510000Y-110703500D02*
X137690000Y-110703500D01*
G75*
G02*
X137780000Y-110793500I0J-90000D01*
G01*
X137780000Y-111071500D01*
G75*
G02*
X137690000Y-111161500I-90000J0D01*
G01*
X137510000Y-111161500D01*
G75*
G02*
X137420000Y-111071500I0J90000D01*
G01*
X137420000Y-110793500D01*
G75*
G02*
X137510000Y-110703500I90000J0D01*
G01*
G37*
G36*
G01*
X137510000Y-109838500D02*
X137690000Y-109838500D01*
G75*
G02*
X137780000Y-109928500I0J-90000D01*
G01*
X137780000Y-110206500D01*
G75*
G02*
X137690000Y-110296500I-90000J0D01*
G01*
X137510000Y-110296500D01*
G75*
G02*
X137420000Y-110206500I0J90000D01*
G01*
X137420000Y-109928500D01*
G75*
G02*
X137510000Y-109838500I90000J0D01*
G01*
G37*
%TD*%
%TO.C,C69*%
G36*
G01*
X172590000Y-66096500D02*
X172410000Y-66096500D01*
G75*
G02*
X172320000Y-66006500I0J90000D01*
G01*
X172320000Y-65728500D01*
G75*
G02*
X172410000Y-65638500I90000J0D01*
G01*
X172590000Y-65638500D01*
G75*
G02*
X172680000Y-65728500I0J-90000D01*
G01*
X172680000Y-66006500D01*
G75*
G02*
X172590000Y-66096500I-90000J0D01*
G01*
G37*
G36*
G01*
X172590000Y-66961500D02*
X172410000Y-66961500D01*
G75*
G02*
X172320000Y-66871500I0J90000D01*
G01*
X172320000Y-66593500D01*
G75*
G02*
X172410000Y-66503500I90000J0D01*
G01*
X172590000Y-66503500D01*
G75*
G02*
X172680000Y-66593500I0J-90000D01*
G01*
X172680000Y-66871500D01*
G75*
G02*
X172590000Y-66961500I-90000J0D01*
G01*
G37*
%TD*%
%TO.C,C68*%
G36*
G01*
X162590000Y-63596500D02*
X162410000Y-63596500D01*
G75*
G02*
X162320000Y-63506500I0J90000D01*
G01*
X162320000Y-63228500D01*
G75*
G02*
X162410000Y-63138500I90000J0D01*
G01*
X162590000Y-63138500D01*
G75*
G02*
X162680000Y-63228500I0J-90000D01*
G01*
X162680000Y-63506500D01*
G75*
G02*
X162590000Y-63596500I-90000J0D01*
G01*
G37*
G36*
G01*
X162590000Y-64461500D02*
X162410000Y-64461500D01*
G75*
G02*
X162320000Y-64371500I0J90000D01*
G01*
X162320000Y-64093500D01*
G75*
G02*
X162410000Y-64003500I90000J0D01*
G01*
X162590000Y-64003500D01*
G75*
G02*
X162680000Y-64093500I0J-90000D01*
G01*
X162680000Y-64371500D01*
G75*
G02*
X162590000Y-64461500I-90000J0D01*
G01*
G37*
%TD*%
%TO.C,C67*%
G36*
G01*
X139490000Y-111996500D02*
X139310000Y-111996500D01*
G75*
G02*
X139220000Y-111906500I0J90000D01*
G01*
X139220000Y-111628500D01*
G75*
G02*
X139310000Y-111538500I90000J0D01*
G01*
X139490000Y-111538500D01*
G75*
G02*
X139580000Y-111628500I0J-90000D01*
G01*
X139580000Y-111906500D01*
G75*
G02*
X139490000Y-111996500I-90000J0D01*
G01*
G37*
G36*
G01*
X139490000Y-112861500D02*
X139310000Y-112861500D01*
G75*
G02*
X139220000Y-112771500I0J90000D01*
G01*
X139220000Y-112493500D01*
G75*
G02*
X139310000Y-112403500I90000J0D01*
G01*
X139490000Y-112403500D01*
G75*
G02*
X139580000Y-112493500I0J-90000D01*
G01*
X139580000Y-112771500D01*
G75*
G02*
X139490000Y-112861500I-90000J0D01*
G01*
G37*
%TD*%
%TO.C,C66*%
G36*
G01*
X161590000Y-63596500D02*
X161410000Y-63596500D01*
G75*
G02*
X161320000Y-63506500I0J90000D01*
G01*
X161320000Y-63228500D01*
G75*
G02*
X161410000Y-63138500I90000J0D01*
G01*
X161590000Y-63138500D01*
G75*
G02*
X161680000Y-63228500I0J-90000D01*
G01*
X161680000Y-63506500D01*
G75*
G02*
X161590000Y-63596500I-90000J0D01*
G01*
G37*
G36*
G01*
X161590000Y-64461500D02*
X161410000Y-64461500D01*
G75*
G02*
X161320000Y-64371500I0J90000D01*
G01*
X161320000Y-64093500D01*
G75*
G02*
X161410000Y-64003500I90000J0D01*
G01*
X161590000Y-64003500D01*
G75*
G02*
X161680000Y-64093500I0J-90000D01*
G01*
X161680000Y-64371500D01*
G75*
G02*
X161590000Y-64461500I-90000J0D01*
G01*
G37*
%TD*%
%TO.C,C65*%
G36*
G01*
X134490000Y-112696500D02*
X134310000Y-112696500D01*
G75*
G02*
X134220000Y-112606500I0J90000D01*
G01*
X134220000Y-112328500D01*
G75*
G02*
X134310000Y-112238500I90000J0D01*
G01*
X134490000Y-112238500D01*
G75*
G02*
X134580000Y-112328500I0J-90000D01*
G01*
X134580000Y-112606500D01*
G75*
G02*
X134490000Y-112696500I-90000J0D01*
G01*
G37*
G36*
G01*
X134490000Y-113561500D02*
X134310000Y-113561500D01*
G75*
G02*
X134220000Y-113471500I0J90000D01*
G01*
X134220000Y-113193500D01*
G75*
G02*
X134310000Y-113103500I90000J0D01*
G01*
X134490000Y-113103500D01*
G75*
G02*
X134580000Y-113193500I0J-90000D01*
G01*
X134580000Y-113471500D01*
G75*
G02*
X134490000Y-113561500I-90000J0D01*
G01*
G37*
%TD*%
%TO.C,C64*%
G36*
G01*
X159703500Y-61390000D02*
X159703500Y-61210000D01*
G75*
G02*
X159793500Y-61120000I90000J0D01*
G01*
X160071500Y-61120000D01*
G75*
G02*
X160161500Y-61210000I0J-90000D01*
G01*
X160161500Y-61390000D01*
G75*
G02*
X160071500Y-61480000I-90000J0D01*
G01*
X159793500Y-61480000D01*
G75*
G02*
X159703500Y-61390000I0J90000D01*
G01*
G37*
G36*
G01*
X158838500Y-61390000D02*
X158838500Y-61210000D01*
G75*
G02*
X158928500Y-61120000I90000J0D01*
G01*
X159206500Y-61120000D01*
G75*
G02*
X159296500Y-61210000I0J-90000D01*
G01*
X159296500Y-61390000D01*
G75*
G02*
X159206500Y-61480000I-90000J0D01*
G01*
X158928500Y-61480000D01*
G75*
G02*
X158838500Y-61390000I0J90000D01*
G01*
G37*
%TD*%
%TO.C,C63*%
G36*
G01*
X133590000Y-112696500D02*
X133410000Y-112696500D01*
G75*
G02*
X133320000Y-112606500I0J90000D01*
G01*
X133320000Y-112328500D01*
G75*
G02*
X133410000Y-112238500I90000J0D01*
G01*
X133590000Y-112238500D01*
G75*
G02*
X133680000Y-112328500I0J-90000D01*
G01*
X133680000Y-112606500D01*
G75*
G02*
X133590000Y-112696500I-90000J0D01*
G01*
G37*
G36*
G01*
X133590000Y-113561500D02*
X133410000Y-113561500D01*
G75*
G02*
X133320000Y-113471500I0J90000D01*
G01*
X133320000Y-113193500D01*
G75*
G02*
X133410000Y-113103500I90000J0D01*
G01*
X133590000Y-113103500D01*
G75*
G02*
X133680000Y-113193500I0J-90000D01*
G01*
X133680000Y-113471500D01*
G75*
G02*
X133590000Y-113561500I-90000J0D01*
G01*
G37*
%TD*%
%TO.C,C62*%
G36*
G01*
X159703500Y-60390000D02*
X159703500Y-60210000D01*
G75*
G02*
X159793500Y-60120000I90000J0D01*
G01*
X160071500Y-60120000D01*
G75*
G02*
X160161500Y-60210000I0J-90000D01*
G01*
X160161500Y-60390000D01*
G75*
G02*
X160071500Y-60480000I-90000J0D01*
G01*
X159793500Y-60480000D01*
G75*
G02*
X159703500Y-60390000I0J90000D01*
G01*
G37*
G36*
G01*
X158838500Y-60390000D02*
X158838500Y-60210000D01*
G75*
G02*
X158928500Y-60120000I90000J0D01*
G01*
X159206500Y-60120000D01*
G75*
G02*
X159296500Y-60210000I0J-90000D01*
G01*
X159296500Y-60390000D01*
G75*
G02*
X159206500Y-60480000I-90000J0D01*
G01*
X158928500Y-60480000D01*
G75*
G02*
X158838500Y-60390000I0J90000D01*
G01*
G37*
%TD*%
%TO.C,C61*%
G36*
G01*
X132690000Y-112696500D02*
X132510000Y-112696500D01*
G75*
G02*
X132420000Y-112606500I0J90000D01*
G01*
X132420000Y-112328500D01*
G75*
G02*
X132510000Y-112238500I90000J0D01*
G01*
X132690000Y-112238500D01*
G75*
G02*
X132780000Y-112328500I0J-90000D01*
G01*
X132780000Y-112606500D01*
G75*
G02*
X132690000Y-112696500I-90000J0D01*
G01*
G37*
G36*
G01*
X132690000Y-113561500D02*
X132510000Y-113561500D01*
G75*
G02*
X132420000Y-113471500I0J90000D01*
G01*
X132420000Y-113193500D01*
G75*
G02*
X132510000Y-113103500I90000J0D01*
G01*
X132690000Y-113103500D01*
G75*
G02*
X132780000Y-113193500I0J-90000D01*
G01*
X132780000Y-113471500D01*
G75*
G02*
X132690000Y-113561500I-90000J0D01*
G01*
G37*
%TD*%
%TO.C,C60*%
G36*
G01*
X159703500Y-59390000D02*
X159703500Y-59210000D01*
G75*
G02*
X159793500Y-59120000I90000J0D01*
G01*
X160071500Y-59120000D01*
G75*
G02*
X160161500Y-59210000I0J-90000D01*
G01*
X160161500Y-59390000D01*
G75*
G02*
X160071500Y-59480000I-90000J0D01*
G01*
X159793500Y-59480000D01*
G75*
G02*
X159703500Y-59390000I0J90000D01*
G01*
G37*
G36*
G01*
X158838500Y-59390000D02*
X158838500Y-59210000D01*
G75*
G02*
X158928500Y-59120000I90000J0D01*
G01*
X159206500Y-59120000D01*
G75*
G02*
X159296500Y-59210000I0J-90000D01*
G01*
X159296500Y-59390000D01*
G75*
G02*
X159206500Y-59480000I-90000J0D01*
G01*
X158928500Y-59480000D01*
G75*
G02*
X158838500Y-59390000I0J90000D01*
G01*
G37*
%TD*%
%TO.C,C59*%
G36*
G01*
X131790000Y-112696500D02*
X131610000Y-112696500D01*
G75*
G02*
X131520000Y-112606500I0J90000D01*
G01*
X131520000Y-112328500D01*
G75*
G02*
X131610000Y-112238500I90000J0D01*
G01*
X131790000Y-112238500D01*
G75*
G02*
X131880000Y-112328500I0J-90000D01*
G01*
X131880000Y-112606500D01*
G75*
G02*
X131790000Y-112696500I-90000J0D01*
G01*
G37*
G36*
G01*
X131790000Y-113561500D02*
X131610000Y-113561500D01*
G75*
G02*
X131520000Y-113471500I0J90000D01*
G01*
X131520000Y-113193500D01*
G75*
G02*
X131610000Y-113103500I90000J0D01*
G01*
X131790000Y-113103500D01*
G75*
G02*
X131880000Y-113193500I0J-90000D01*
G01*
X131880000Y-113471500D01*
G75*
G02*
X131790000Y-113561500I-90000J0D01*
G01*
G37*
%TD*%
%TO.C,C58*%
G36*
G01*
X159703500Y-58390000D02*
X159703500Y-58210000D01*
G75*
G02*
X159793500Y-58120000I90000J0D01*
G01*
X160071500Y-58120000D01*
G75*
G02*
X160161500Y-58210000I0J-90000D01*
G01*
X160161500Y-58390000D01*
G75*
G02*
X160071500Y-58480000I-90000J0D01*
G01*
X159793500Y-58480000D01*
G75*
G02*
X159703500Y-58390000I0J90000D01*
G01*
G37*
G36*
G01*
X158838500Y-58390000D02*
X158838500Y-58210000D01*
G75*
G02*
X158928500Y-58120000I90000J0D01*
G01*
X159206500Y-58120000D01*
G75*
G02*
X159296500Y-58210000I0J-90000D01*
G01*
X159296500Y-58390000D01*
G75*
G02*
X159206500Y-58480000I-90000J0D01*
G01*
X158928500Y-58480000D01*
G75*
G02*
X158838500Y-58390000I0J90000D01*
G01*
G37*
%TD*%
%TO.C,C57*%
G36*
G01*
X130890000Y-112696500D02*
X130710000Y-112696500D01*
G75*
G02*
X130620000Y-112606500I0J90000D01*
G01*
X130620000Y-112328500D01*
G75*
G02*
X130710000Y-112238500I90000J0D01*
G01*
X130890000Y-112238500D01*
G75*
G02*
X130980000Y-112328500I0J-90000D01*
G01*
X130980000Y-112606500D01*
G75*
G02*
X130890000Y-112696500I-90000J0D01*
G01*
G37*
G36*
G01*
X130890000Y-113561500D02*
X130710000Y-113561500D01*
G75*
G02*
X130620000Y-113471500I0J90000D01*
G01*
X130620000Y-113193500D01*
G75*
G02*
X130710000Y-113103500I90000J0D01*
G01*
X130890000Y-113103500D01*
G75*
G02*
X130980000Y-113193500I0J-90000D01*
G01*
X130980000Y-113471500D01*
G75*
G02*
X130890000Y-113561500I-90000J0D01*
G01*
G37*
%TD*%
%TO.C,C56*%
G36*
G01*
X159703500Y-57390000D02*
X159703500Y-57210000D01*
G75*
G02*
X159793500Y-57120000I90000J0D01*
G01*
X160071500Y-57120000D01*
G75*
G02*
X160161500Y-57210000I0J-90000D01*
G01*
X160161500Y-57390000D01*
G75*
G02*
X160071500Y-57480000I-90000J0D01*
G01*
X159793500Y-57480000D01*
G75*
G02*
X159703500Y-57390000I0J90000D01*
G01*
G37*
G36*
G01*
X158838500Y-57390000D02*
X158838500Y-57210000D01*
G75*
G02*
X158928500Y-57120000I90000J0D01*
G01*
X159206500Y-57120000D01*
G75*
G02*
X159296500Y-57210000I0J-90000D01*
G01*
X159296500Y-57390000D01*
G75*
G02*
X159206500Y-57480000I-90000J0D01*
G01*
X158928500Y-57480000D01*
G75*
G02*
X158838500Y-57390000I0J90000D01*
G01*
G37*
%TD*%
%TO.C,C55*%
G36*
G01*
X125910000Y-114003500D02*
X126090000Y-114003500D01*
G75*
G02*
X126180000Y-114093500I0J-90000D01*
G01*
X126180000Y-114371500D01*
G75*
G02*
X126090000Y-114461500I-90000J0D01*
G01*
X125910000Y-114461500D01*
G75*
G02*
X125820000Y-114371500I0J90000D01*
G01*
X125820000Y-114093500D01*
G75*
G02*
X125910000Y-114003500I90000J0D01*
G01*
G37*
G36*
G01*
X125910000Y-113138500D02*
X126090000Y-113138500D01*
G75*
G02*
X126180000Y-113228500I0J-90000D01*
G01*
X126180000Y-113506500D01*
G75*
G02*
X126090000Y-113596500I-90000J0D01*
G01*
X125910000Y-113596500D01*
G75*
G02*
X125820000Y-113506500I0J90000D01*
G01*
X125820000Y-113228500D01*
G75*
G02*
X125910000Y-113138500I90000J0D01*
G01*
G37*
%TD*%
%TO.C,C54*%
G36*
G01*
X160110000Y-54703500D02*
X160290000Y-54703500D01*
G75*
G02*
X160380000Y-54793500I0J-90000D01*
G01*
X160380000Y-55071500D01*
G75*
G02*
X160290000Y-55161500I-90000J0D01*
G01*
X160110000Y-55161500D01*
G75*
G02*
X160020000Y-55071500I0J90000D01*
G01*
X160020000Y-54793500D01*
G75*
G02*
X160110000Y-54703500I90000J0D01*
G01*
G37*
G36*
G01*
X160110000Y-53838500D02*
X160290000Y-53838500D01*
G75*
G02*
X160380000Y-53928500I0J-90000D01*
G01*
X160380000Y-54206500D01*
G75*
G02*
X160290000Y-54296500I-90000J0D01*
G01*
X160110000Y-54296500D01*
G75*
G02*
X160020000Y-54206500I0J90000D01*
G01*
X160020000Y-53928500D01*
G75*
G02*
X160110000Y-53838500I90000J0D01*
G01*
G37*
%TD*%
%TO.C,C53*%
G36*
G01*
X116996500Y-98710000D02*
X116996500Y-98890000D01*
G75*
G02*
X116906500Y-98980000I-90000J0D01*
G01*
X116628500Y-98980000D01*
G75*
G02*
X116538500Y-98890000I0J90000D01*
G01*
X116538500Y-98710000D01*
G75*
G02*
X116628500Y-98620000I90000J0D01*
G01*
X116906500Y-98620000D01*
G75*
G02*
X116996500Y-98710000I0J-90000D01*
G01*
G37*
G36*
G01*
X117861500Y-98710000D02*
X117861500Y-98890000D01*
G75*
G02*
X117771500Y-98980000I-90000J0D01*
G01*
X117493500Y-98980000D01*
G75*
G02*
X117403500Y-98890000I0J90000D01*
G01*
X117403500Y-98710000D01*
G75*
G02*
X117493500Y-98620000I90000J0D01*
G01*
X117771500Y-98620000D01*
G75*
G02*
X117861500Y-98710000I0J-90000D01*
G01*
G37*
%TD*%
%TO.C,C52*%
G36*
G01*
X120796500Y-105710000D02*
X120796500Y-105890000D01*
G75*
G02*
X120706500Y-105980000I-90000J0D01*
G01*
X120428500Y-105980000D01*
G75*
G02*
X120338500Y-105890000I0J90000D01*
G01*
X120338500Y-105710000D01*
G75*
G02*
X120428500Y-105620000I90000J0D01*
G01*
X120706500Y-105620000D01*
G75*
G02*
X120796500Y-105710000I0J-90000D01*
G01*
G37*
G36*
G01*
X121661500Y-105710000D02*
X121661500Y-105890000D01*
G75*
G02*
X121571500Y-105980000I-90000J0D01*
G01*
X121293500Y-105980000D01*
G75*
G02*
X121203500Y-105890000I0J90000D01*
G01*
X121203500Y-105710000D01*
G75*
G02*
X121293500Y-105620000I90000J0D01*
G01*
X121571500Y-105620000D01*
G75*
G02*
X121661500Y-105710000I0J-90000D01*
G01*
G37*
%TD*%
%TO.C,C51*%
G36*
G01*
X172203500Y-52590000D02*
X172203500Y-52410000D01*
G75*
G02*
X172293500Y-52320000I90000J0D01*
G01*
X172571500Y-52320000D01*
G75*
G02*
X172661500Y-52410000I0J-90000D01*
G01*
X172661500Y-52590000D01*
G75*
G02*
X172571500Y-52680000I-90000J0D01*
G01*
X172293500Y-52680000D01*
G75*
G02*
X172203500Y-52590000I0J90000D01*
G01*
G37*
G36*
G01*
X171338500Y-52590000D02*
X171338500Y-52410000D01*
G75*
G02*
X171428500Y-52320000I90000J0D01*
G01*
X171706500Y-52320000D01*
G75*
G02*
X171796500Y-52410000I0J-90000D01*
G01*
X171796500Y-52590000D01*
G75*
G02*
X171706500Y-52680000I-90000J0D01*
G01*
X171428500Y-52680000D01*
G75*
G02*
X171338500Y-52590000I0J90000D01*
G01*
G37*
%TD*%
%TO.C,C50*%
G36*
G01*
X172403500Y-49190000D02*
X172403500Y-49010000D01*
G75*
G02*
X172493500Y-48920000I90000J0D01*
G01*
X172771500Y-48920000D01*
G75*
G02*
X172861500Y-49010000I0J-90000D01*
G01*
X172861500Y-49190000D01*
G75*
G02*
X172771500Y-49280000I-90000J0D01*
G01*
X172493500Y-49280000D01*
G75*
G02*
X172403500Y-49190000I0J90000D01*
G01*
G37*
G36*
G01*
X171538500Y-49190000D02*
X171538500Y-49010000D01*
G75*
G02*
X171628500Y-48920000I90000J0D01*
G01*
X171906500Y-48920000D01*
G75*
G02*
X171996500Y-49010000I0J-90000D01*
G01*
X171996500Y-49190000D01*
G75*
G02*
X171906500Y-49280000I-90000J0D01*
G01*
X171628500Y-49280000D01*
G75*
G02*
X171538500Y-49190000I0J90000D01*
G01*
G37*
%TD*%
%TO.C,C49*%
G36*
G01*
X120910000Y-114003500D02*
X121090000Y-114003500D01*
G75*
G02*
X121180000Y-114093500I0J-90000D01*
G01*
X121180000Y-114371500D01*
G75*
G02*
X121090000Y-114461500I-90000J0D01*
G01*
X120910000Y-114461500D01*
G75*
G02*
X120820000Y-114371500I0J90000D01*
G01*
X120820000Y-114093500D01*
G75*
G02*
X120910000Y-114003500I90000J0D01*
G01*
G37*
G36*
G01*
X120910000Y-113138500D02*
X121090000Y-113138500D01*
G75*
G02*
X121180000Y-113228500I0J-90000D01*
G01*
X121180000Y-113506500D01*
G75*
G02*
X121090000Y-113596500I-90000J0D01*
G01*
X120910000Y-113596500D01*
G75*
G02*
X120820000Y-113506500I0J90000D01*
G01*
X120820000Y-113228500D01*
G75*
G02*
X120910000Y-113138500I90000J0D01*
G01*
G37*
%TD*%
%TO.C,C48*%
G36*
G01*
X116910000Y-105503500D02*
X117090000Y-105503500D01*
G75*
G02*
X117180000Y-105593500I0J-90000D01*
G01*
X117180000Y-105871500D01*
G75*
G02*
X117090000Y-105961500I-90000J0D01*
G01*
X116910000Y-105961500D01*
G75*
G02*
X116820000Y-105871500I0J90000D01*
G01*
X116820000Y-105593500D01*
G75*
G02*
X116910000Y-105503500I90000J0D01*
G01*
G37*
G36*
G01*
X116910000Y-104638500D02*
X117090000Y-104638500D01*
G75*
G02*
X117180000Y-104728500I0J-90000D01*
G01*
X117180000Y-105006500D01*
G75*
G02*
X117090000Y-105096500I-90000J0D01*
G01*
X116910000Y-105096500D01*
G75*
G02*
X116820000Y-105006500I0J90000D01*
G01*
X116820000Y-104728500D01*
G75*
G02*
X116910000Y-104638500I90000J0D01*
G01*
G37*
%TD*%
%TO.C,C47*%
G36*
G01*
X162110000Y-54703500D02*
X162290000Y-54703500D01*
G75*
G02*
X162380000Y-54793500I0J-90000D01*
G01*
X162380000Y-55071500D01*
G75*
G02*
X162290000Y-55161500I-90000J0D01*
G01*
X162110000Y-55161500D01*
G75*
G02*
X162020000Y-55071500I0J90000D01*
G01*
X162020000Y-54793500D01*
G75*
G02*
X162110000Y-54703500I90000J0D01*
G01*
G37*
G36*
G01*
X162110000Y-53838500D02*
X162290000Y-53838500D01*
G75*
G02*
X162380000Y-53928500I0J-90000D01*
G01*
X162380000Y-54206500D01*
G75*
G02*
X162290000Y-54296500I-90000J0D01*
G01*
X162110000Y-54296500D01*
G75*
G02*
X162020000Y-54206500I0J90000D01*
G01*
X162020000Y-53928500D01*
G75*
G02*
X162110000Y-53838500I90000J0D01*
G01*
G37*
%TD*%
%TO.C,C46*%
G36*
G01*
X169090000Y-49496500D02*
X168910000Y-49496500D01*
G75*
G02*
X168820000Y-49406500I0J90000D01*
G01*
X168820000Y-49128500D01*
G75*
G02*
X168910000Y-49038500I90000J0D01*
G01*
X169090000Y-49038500D01*
G75*
G02*
X169180000Y-49128500I0J-90000D01*
G01*
X169180000Y-49406500D01*
G75*
G02*
X169090000Y-49496500I-90000J0D01*
G01*
G37*
G36*
G01*
X169090000Y-50361500D02*
X168910000Y-50361500D01*
G75*
G02*
X168820000Y-50271500I0J90000D01*
G01*
X168820000Y-49993500D01*
G75*
G02*
X168910000Y-49903500I90000J0D01*
G01*
X169090000Y-49903500D01*
G75*
G02*
X169180000Y-49993500I0J-90000D01*
G01*
X169180000Y-50271500D01*
G75*
G02*
X169090000Y-50361500I-90000J0D01*
G01*
G37*
%TD*%
%TO.C,C45*%
G36*
G01*
X112910000Y-105503500D02*
X113090000Y-105503500D01*
G75*
G02*
X113180000Y-105593500I0J-90000D01*
G01*
X113180000Y-105871500D01*
G75*
G02*
X113090000Y-105961500I-90000J0D01*
G01*
X112910000Y-105961500D01*
G75*
G02*
X112820000Y-105871500I0J90000D01*
G01*
X112820000Y-105593500D01*
G75*
G02*
X112910000Y-105503500I90000J0D01*
G01*
G37*
G36*
G01*
X112910000Y-104638500D02*
X113090000Y-104638500D01*
G75*
G02*
X113180000Y-104728500I0J-90000D01*
G01*
X113180000Y-105006500D01*
G75*
G02*
X113090000Y-105096500I-90000J0D01*
G01*
X112910000Y-105096500D01*
G75*
G02*
X112820000Y-105006500I0J90000D01*
G01*
X112820000Y-104728500D01*
G75*
G02*
X112910000Y-104638500I90000J0D01*
G01*
G37*
%TD*%
%TO.C,C44*%
G36*
G01*
X168603500Y-46790000D02*
X168603500Y-46610000D01*
G75*
G02*
X168693500Y-46520000I90000J0D01*
G01*
X168971500Y-46520000D01*
G75*
G02*
X169061500Y-46610000I0J-90000D01*
G01*
X169061500Y-46790000D01*
G75*
G02*
X168971500Y-46880000I-90000J0D01*
G01*
X168693500Y-46880000D01*
G75*
G02*
X168603500Y-46790000I0J90000D01*
G01*
G37*
G36*
G01*
X167738500Y-46790000D02*
X167738500Y-46610000D01*
G75*
G02*
X167828500Y-46520000I90000J0D01*
G01*
X168106500Y-46520000D01*
G75*
G02*
X168196500Y-46610000I0J-90000D01*
G01*
X168196500Y-46790000D01*
G75*
G02*
X168106500Y-46880000I-90000J0D01*
G01*
X167828500Y-46880000D01*
G75*
G02*
X167738500Y-46790000I0J90000D01*
G01*
G37*
%TD*%
%TO.C,C43*%
G36*
G01*
X108910000Y-105503500D02*
X109090000Y-105503500D01*
G75*
G02*
X109180000Y-105593500I0J-90000D01*
G01*
X109180000Y-105871500D01*
G75*
G02*
X109090000Y-105961500I-90000J0D01*
G01*
X108910000Y-105961500D01*
G75*
G02*
X108820000Y-105871500I0J90000D01*
G01*
X108820000Y-105593500D01*
G75*
G02*
X108910000Y-105503500I90000J0D01*
G01*
G37*
G36*
G01*
X108910000Y-104638500D02*
X109090000Y-104638500D01*
G75*
G02*
X109180000Y-104728500I0J-90000D01*
G01*
X109180000Y-105006500D01*
G75*
G02*
X109090000Y-105096500I-90000J0D01*
G01*
X108910000Y-105096500D01*
G75*
G02*
X108820000Y-105006500I0J90000D01*
G01*
X108820000Y-104728500D01*
G75*
G02*
X108910000Y-104638500I90000J0D01*
G01*
G37*
%TD*%
%TO.C,C42*%
G36*
G01*
X110410000Y-102003500D02*
X110590000Y-102003500D01*
G75*
G02*
X110680000Y-102093500I0J-90000D01*
G01*
X110680000Y-102371500D01*
G75*
G02*
X110590000Y-102461500I-90000J0D01*
G01*
X110410000Y-102461500D01*
G75*
G02*
X110320000Y-102371500I0J90000D01*
G01*
X110320000Y-102093500D01*
G75*
G02*
X110410000Y-102003500I90000J0D01*
G01*
G37*
G36*
G01*
X110410000Y-101138500D02*
X110590000Y-101138500D01*
G75*
G02*
X110680000Y-101228500I0J-90000D01*
G01*
X110680000Y-101506500D01*
G75*
G02*
X110590000Y-101596500I-90000J0D01*
G01*
X110410000Y-101596500D01*
G75*
G02*
X110320000Y-101506500I0J90000D01*
G01*
X110320000Y-101228500D01*
G75*
G02*
X110410000Y-101138500I90000J0D01*
G01*
G37*
%TD*%
%TO.C,C41*%
G36*
G01*
X168603500Y-43190000D02*
X168603500Y-43010000D01*
G75*
G02*
X168693500Y-42920000I90000J0D01*
G01*
X168971500Y-42920000D01*
G75*
G02*
X169061500Y-43010000I0J-90000D01*
G01*
X169061500Y-43190000D01*
G75*
G02*
X168971500Y-43280000I-90000J0D01*
G01*
X168693500Y-43280000D01*
G75*
G02*
X168603500Y-43190000I0J90000D01*
G01*
G37*
G36*
G01*
X167738500Y-43190000D02*
X167738500Y-43010000D01*
G75*
G02*
X167828500Y-42920000I90000J0D01*
G01*
X168106500Y-42920000D01*
G75*
G02*
X168196500Y-43010000I0J-90000D01*
G01*
X168196500Y-43190000D01*
G75*
G02*
X168106500Y-43280000I-90000J0D01*
G01*
X167828500Y-43280000D01*
G75*
G02*
X167738500Y-43190000I0J90000D01*
G01*
G37*
%TD*%
%TO.C,C40*%
G36*
G01*
X168196500Y-41810000D02*
X168196500Y-41990000D01*
G75*
G02*
X168106500Y-42080000I-90000J0D01*
G01*
X167828500Y-42080000D01*
G75*
G02*
X167738500Y-41990000I0J90000D01*
G01*
X167738500Y-41810000D01*
G75*
G02*
X167828500Y-41720000I90000J0D01*
G01*
X168106500Y-41720000D01*
G75*
G02*
X168196500Y-41810000I0J-90000D01*
G01*
G37*
G36*
G01*
X169061500Y-41810000D02*
X169061500Y-41990000D01*
G75*
G02*
X168971500Y-42080000I-90000J0D01*
G01*
X168693500Y-42080000D01*
G75*
G02*
X168603500Y-41990000I0J90000D01*
G01*
X168603500Y-41810000D01*
G75*
G02*
X168693500Y-41720000I90000J0D01*
G01*
X168971500Y-41720000D01*
G75*
G02*
X169061500Y-41810000I0J-90000D01*
G01*
G37*
%TD*%
%TO.C,C39*%
G36*
G01*
X111910000Y-108003500D02*
X112090000Y-108003500D01*
G75*
G02*
X112180000Y-108093500I0J-90000D01*
G01*
X112180000Y-108371500D01*
G75*
G02*
X112090000Y-108461500I-90000J0D01*
G01*
X111910000Y-108461500D01*
G75*
G02*
X111820000Y-108371500I0J90000D01*
G01*
X111820000Y-108093500D01*
G75*
G02*
X111910000Y-108003500I90000J0D01*
G01*
G37*
G36*
G01*
X111910000Y-107138500D02*
X112090000Y-107138500D01*
G75*
G02*
X112180000Y-107228500I0J-90000D01*
G01*
X112180000Y-107506500D01*
G75*
G02*
X112090000Y-107596500I-90000J0D01*
G01*
X111910000Y-107596500D01*
G75*
G02*
X111820000Y-107506500I0J90000D01*
G01*
X111820000Y-107228500D01*
G75*
G02*
X111910000Y-107138500I90000J0D01*
G01*
G37*
%TD*%
%TO.C,C38*%
G36*
G01*
X109910000Y-108003500D02*
X110090000Y-108003500D01*
G75*
G02*
X110180000Y-108093500I0J-90000D01*
G01*
X110180000Y-108371500D01*
G75*
G02*
X110090000Y-108461500I-90000J0D01*
G01*
X109910000Y-108461500D01*
G75*
G02*
X109820000Y-108371500I0J90000D01*
G01*
X109820000Y-108093500D01*
G75*
G02*
X109910000Y-108003500I90000J0D01*
G01*
G37*
G36*
G01*
X109910000Y-107138500D02*
X110090000Y-107138500D01*
G75*
G02*
X110180000Y-107228500I0J-90000D01*
G01*
X110180000Y-107506500D01*
G75*
G02*
X110090000Y-107596500I-90000J0D01*
G01*
X109910000Y-107596500D01*
G75*
G02*
X109820000Y-107506500I0J90000D01*
G01*
X109820000Y-107228500D01*
G75*
G02*
X109910000Y-107138500I90000J0D01*
G01*
G37*
%TD*%
%TO.C,C37*%
G36*
G01*
X107703500Y-104890000D02*
X107703500Y-104710000D01*
G75*
G02*
X107793500Y-104620000I90000J0D01*
G01*
X108071500Y-104620000D01*
G75*
G02*
X108161500Y-104710000I0J-90000D01*
G01*
X108161500Y-104890000D01*
G75*
G02*
X108071500Y-104980000I-90000J0D01*
G01*
X107793500Y-104980000D01*
G75*
G02*
X107703500Y-104890000I0J90000D01*
G01*
G37*
G36*
G01*
X106838500Y-104890000D02*
X106838500Y-104710000D01*
G75*
G02*
X106928500Y-104620000I90000J0D01*
G01*
X107206500Y-104620000D01*
G75*
G02*
X107296500Y-104710000I0J-90000D01*
G01*
X107296500Y-104890000D01*
G75*
G02*
X107206500Y-104980000I-90000J0D01*
G01*
X106928500Y-104980000D01*
G75*
G02*
X106838500Y-104890000I0J90000D01*
G01*
G37*
%TD*%
%TO.C,C36*%
G36*
G01*
X157310000Y-42703500D02*
X157490000Y-42703500D01*
G75*
G02*
X157580000Y-42793500I0J-90000D01*
G01*
X157580000Y-43071500D01*
G75*
G02*
X157490000Y-43161500I-90000J0D01*
G01*
X157310000Y-43161500D01*
G75*
G02*
X157220000Y-43071500I0J90000D01*
G01*
X157220000Y-42793500D01*
G75*
G02*
X157310000Y-42703500I90000J0D01*
G01*
G37*
G36*
G01*
X157310000Y-41838500D02*
X157490000Y-41838500D01*
G75*
G02*
X157580000Y-41928500I0J-90000D01*
G01*
X157580000Y-42206500D01*
G75*
G02*
X157490000Y-42296500I-90000J0D01*
G01*
X157310000Y-42296500D01*
G75*
G02*
X157220000Y-42206500I0J90000D01*
G01*
X157220000Y-41928500D01*
G75*
G02*
X157310000Y-41838500I90000J0D01*
G01*
G37*
%TD*%
%TO.C,C35*%
G36*
G01*
X159110000Y-42703500D02*
X159290000Y-42703500D01*
G75*
G02*
X159380000Y-42793500I0J-90000D01*
G01*
X159380000Y-43071500D01*
G75*
G02*
X159290000Y-43161500I-90000J0D01*
G01*
X159110000Y-43161500D01*
G75*
G02*
X159020000Y-43071500I0J90000D01*
G01*
X159020000Y-42793500D01*
G75*
G02*
X159110000Y-42703500I90000J0D01*
G01*
G37*
G36*
G01*
X159110000Y-41838500D02*
X159290000Y-41838500D01*
G75*
G02*
X159380000Y-41928500I0J-90000D01*
G01*
X159380000Y-42206500D01*
G75*
G02*
X159290000Y-42296500I-90000J0D01*
G01*
X159110000Y-42296500D01*
G75*
G02*
X159020000Y-42206500I0J90000D01*
G01*
X159020000Y-41928500D01*
G75*
G02*
X159110000Y-41838500I90000J0D01*
G01*
G37*
%TD*%
%TO.C,C34*%
G36*
G01*
X164796500Y-41810000D02*
X164796500Y-41990000D01*
G75*
G02*
X164706500Y-42080000I-90000J0D01*
G01*
X164428500Y-42080000D01*
G75*
G02*
X164338500Y-41990000I0J90000D01*
G01*
X164338500Y-41810000D01*
G75*
G02*
X164428500Y-41720000I90000J0D01*
G01*
X164706500Y-41720000D01*
G75*
G02*
X164796500Y-41810000I0J-90000D01*
G01*
G37*
G36*
G01*
X165661500Y-41810000D02*
X165661500Y-41990000D01*
G75*
G02*
X165571500Y-42080000I-90000J0D01*
G01*
X165293500Y-42080000D01*
G75*
G02*
X165203500Y-41990000I0J90000D01*
G01*
X165203500Y-41810000D01*
G75*
G02*
X165293500Y-41720000I90000J0D01*
G01*
X165571500Y-41720000D01*
G75*
G02*
X165661500Y-41810000I0J-90000D01*
G01*
G37*
%TD*%
%TO.C,C33*%
G36*
G01*
X109410000Y-110503500D02*
X109590000Y-110503500D01*
G75*
G02*
X109680000Y-110593500I0J-90000D01*
G01*
X109680000Y-110871500D01*
G75*
G02*
X109590000Y-110961500I-90000J0D01*
G01*
X109410000Y-110961500D01*
G75*
G02*
X109320000Y-110871500I0J90000D01*
G01*
X109320000Y-110593500D01*
G75*
G02*
X109410000Y-110503500I90000J0D01*
G01*
G37*
G36*
G01*
X109410000Y-109638500D02*
X109590000Y-109638500D01*
G75*
G02*
X109680000Y-109728500I0J-90000D01*
G01*
X109680000Y-110006500D01*
G75*
G02*
X109590000Y-110096500I-90000J0D01*
G01*
X109410000Y-110096500D01*
G75*
G02*
X109320000Y-110006500I0J90000D01*
G01*
X109320000Y-109728500D01*
G75*
G02*
X109410000Y-109638500I90000J0D01*
G01*
G37*
%TD*%
%TO.C,C32*%
G36*
G01*
X154996500Y-41810000D02*
X154996500Y-41990000D01*
G75*
G02*
X154906500Y-42080000I-90000J0D01*
G01*
X154628500Y-42080000D01*
G75*
G02*
X154538500Y-41990000I0J90000D01*
G01*
X154538500Y-41810000D01*
G75*
G02*
X154628500Y-41720000I90000J0D01*
G01*
X154906500Y-41720000D01*
G75*
G02*
X154996500Y-41810000I0J-90000D01*
G01*
G37*
G36*
G01*
X155861500Y-41810000D02*
X155861500Y-41990000D01*
G75*
G02*
X155771500Y-42080000I-90000J0D01*
G01*
X155493500Y-42080000D01*
G75*
G02*
X155403500Y-41990000I0J90000D01*
G01*
X155403500Y-41810000D01*
G75*
G02*
X155493500Y-41720000I90000J0D01*
G01*
X155771500Y-41720000D01*
G75*
G02*
X155861500Y-41810000I0J-90000D01*
G01*
G37*
%TD*%
%TO.C,C31*%
G36*
G01*
X192703500Y-70390000D02*
X192703500Y-70210000D01*
G75*
G02*
X192793500Y-70120000I90000J0D01*
G01*
X193071500Y-70120000D01*
G75*
G02*
X193161500Y-70210000I0J-90000D01*
G01*
X193161500Y-70390000D01*
G75*
G02*
X193071500Y-70480000I-90000J0D01*
G01*
X192793500Y-70480000D01*
G75*
G02*
X192703500Y-70390000I0J90000D01*
G01*
G37*
G36*
G01*
X191838500Y-70390000D02*
X191838500Y-70210000D01*
G75*
G02*
X191928500Y-70120000I90000J0D01*
G01*
X192206500Y-70120000D01*
G75*
G02*
X192296500Y-70210000I0J-90000D01*
G01*
X192296500Y-70390000D01*
G75*
G02*
X192206500Y-70480000I-90000J0D01*
G01*
X191928500Y-70480000D01*
G75*
G02*
X191838500Y-70390000I0J90000D01*
G01*
G37*
%TD*%
%TO.C,C30*%
G36*
G01*
X188703500Y-70390000D02*
X188703500Y-70210000D01*
G75*
G02*
X188793500Y-70120000I90000J0D01*
G01*
X189071500Y-70120000D01*
G75*
G02*
X189161500Y-70210000I0J-90000D01*
G01*
X189161500Y-70390000D01*
G75*
G02*
X189071500Y-70480000I-90000J0D01*
G01*
X188793500Y-70480000D01*
G75*
G02*
X188703500Y-70390000I0J90000D01*
G01*
G37*
G36*
G01*
X187838500Y-70390000D02*
X187838500Y-70210000D01*
G75*
G02*
X187928500Y-70120000I90000J0D01*
G01*
X188206500Y-70120000D01*
G75*
G02*
X188296500Y-70210000I0J-90000D01*
G01*
X188296500Y-70390000D01*
G75*
G02*
X188206500Y-70480000I-90000J0D01*
G01*
X187928500Y-70480000D01*
G75*
G02*
X187838500Y-70390000I0J90000D01*
G01*
G37*
%TD*%
%TO.C,C29*%
G36*
G01*
X157910000Y-76503500D02*
X158090000Y-76503500D01*
G75*
G02*
X158180000Y-76593500I0J-90000D01*
G01*
X158180000Y-76871500D01*
G75*
G02*
X158090000Y-76961500I-90000J0D01*
G01*
X157910000Y-76961500D01*
G75*
G02*
X157820000Y-76871500I0J90000D01*
G01*
X157820000Y-76593500D01*
G75*
G02*
X157910000Y-76503500I90000J0D01*
G01*
G37*
G36*
G01*
X157910000Y-75638500D02*
X158090000Y-75638500D01*
G75*
G02*
X158180000Y-75728500I0J-90000D01*
G01*
X158180000Y-76006500D01*
G75*
G02*
X158090000Y-76096500I-90000J0D01*
G01*
X157910000Y-76096500D01*
G75*
G02*
X157820000Y-76006500I0J90000D01*
G01*
X157820000Y-75728500D01*
G75*
G02*
X157910000Y-75638500I90000J0D01*
G01*
G37*
%TD*%
%TO.C,C28*%
G36*
G01*
X158910000Y-76503500D02*
X159090000Y-76503500D01*
G75*
G02*
X159180000Y-76593500I0J-90000D01*
G01*
X159180000Y-76871500D01*
G75*
G02*
X159090000Y-76961500I-90000J0D01*
G01*
X158910000Y-76961500D01*
G75*
G02*
X158820000Y-76871500I0J90000D01*
G01*
X158820000Y-76593500D01*
G75*
G02*
X158910000Y-76503500I90000J0D01*
G01*
G37*
G36*
G01*
X158910000Y-75638500D02*
X159090000Y-75638500D01*
G75*
G02*
X159180000Y-75728500I0J-90000D01*
G01*
X159180000Y-76006500D01*
G75*
G02*
X159090000Y-76096500I-90000J0D01*
G01*
X158910000Y-76096500D01*
G75*
G02*
X158820000Y-76006500I0J90000D01*
G01*
X158820000Y-75728500D01*
G75*
G02*
X158910000Y-75638500I90000J0D01*
G01*
G37*
%TD*%
%TO.C,C27*%
G36*
G01*
X156410000Y-105003500D02*
X156590000Y-105003500D01*
G75*
G02*
X156680000Y-105093500I0J-90000D01*
G01*
X156680000Y-105371500D01*
G75*
G02*
X156590000Y-105461500I-90000J0D01*
G01*
X156410000Y-105461500D01*
G75*
G02*
X156320000Y-105371500I0J90000D01*
G01*
X156320000Y-105093500D01*
G75*
G02*
X156410000Y-105003500I90000J0D01*
G01*
G37*
G36*
G01*
X156410000Y-104138500D02*
X156590000Y-104138500D01*
G75*
G02*
X156680000Y-104228500I0J-90000D01*
G01*
X156680000Y-104506500D01*
G75*
G02*
X156590000Y-104596500I-90000J0D01*
G01*
X156410000Y-104596500D01*
G75*
G02*
X156320000Y-104506500I0J90000D01*
G01*
X156320000Y-104228500D01*
G75*
G02*
X156410000Y-104138500I90000J0D01*
G01*
G37*
%TD*%
%TO.C,C26*%
G36*
G01*
X155410000Y-105003500D02*
X155590000Y-105003500D01*
G75*
G02*
X155680000Y-105093500I0J-90000D01*
G01*
X155680000Y-105371500D01*
G75*
G02*
X155590000Y-105461500I-90000J0D01*
G01*
X155410000Y-105461500D01*
G75*
G02*
X155320000Y-105371500I0J90000D01*
G01*
X155320000Y-105093500D01*
G75*
G02*
X155410000Y-105003500I90000J0D01*
G01*
G37*
G36*
G01*
X155410000Y-104138500D02*
X155590000Y-104138500D01*
G75*
G02*
X155680000Y-104228500I0J-90000D01*
G01*
X155680000Y-104506500D01*
G75*
G02*
X155590000Y-104596500I-90000J0D01*
G01*
X155410000Y-104596500D01*
G75*
G02*
X155320000Y-104506500I0J90000D01*
G01*
X155320000Y-104228500D01*
G75*
G02*
X155410000Y-104138500I90000J0D01*
G01*
G37*
%TD*%
%TO.C,C25*%
G36*
G01*
X154410000Y-105003500D02*
X154590000Y-105003500D01*
G75*
G02*
X154680000Y-105093500I0J-90000D01*
G01*
X154680000Y-105371500D01*
G75*
G02*
X154590000Y-105461500I-90000J0D01*
G01*
X154410000Y-105461500D01*
G75*
G02*
X154320000Y-105371500I0J90000D01*
G01*
X154320000Y-105093500D01*
G75*
G02*
X154410000Y-105003500I90000J0D01*
G01*
G37*
G36*
G01*
X154410000Y-104138500D02*
X154590000Y-104138500D01*
G75*
G02*
X154680000Y-104228500I0J-90000D01*
G01*
X154680000Y-104506500D01*
G75*
G02*
X154590000Y-104596500I-90000J0D01*
G01*
X154410000Y-104596500D01*
G75*
G02*
X154320000Y-104506500I0J90000D01*
G01*
X154320000Y-104228500D01*
G75*
G02*
X154410000Y-104138500I90000J0D01*
G01*
G37*
%TD*%
%TO.C,C24*%
G36*
G01*
X153410000Y-105003500D02*
X153590000Y-105003500D01*
G75*
G02*
X153680000Y-105093500I0J-90000D01*
G01*
X153680000Y-105371500D01*
G75*
G02*
X153590000Y-105461500I-90000J0D01*
G01*
X153410000Y-105461500D01*
G75*
G02*
X153320000Y-105371500I0J90000D01*
G01*
X153320000Y-105093500D01*
G75*
G02*
X153410000Y-105003500I90000J0D01*
G01*
G37*
G36*
G01*
X153410000Y-104138500D02*
X153590000Y-104138500D01*
G75*
G02*
X153680000Y-104228500I0J-90000D01*
G01*
X153680000Y-104506500D01*
G75*
G02*
X153590000Y-104596500I-90000J0D01*
G01*
X153410000Y-104596500D01*
G75*
G02*
X153320000Y-104506500I0J90000D01*
G01*
X153320000Y-104228500D01*
G75*
G02*
X153410000Y-104138500I90000J0D01*
G01*
G37*
%TD*%
%TO.C,C23*%
G36*
G01*
X150910000Y-75003500D02*
X151090000Y-75003500D01*
G75*
G02*
X151180000Y-75093500I0J-90000D01*
G01*
X151180000Y-75371500D01*
G75*
G02*
X151090000Y-75461500I-90000J0D01*
G01*
X150910000Y-75461500D01*
G75*
G02*
X150820000Y-75371500I0J90000D01*
G01*
X150820000Y-75093500D01*
G75*
G02*
X150910000Y-75003500I90000J0D01*
G01*
G37*
G36*
G01*
X150910000Y-74138500D02*
X151090000Y-74138500D01*
G75*
G02*
X151180000Y-74228500I0J-90000D01*
G01*
X151180000Y-74506500D01*
G75*
G02*
X151090000Y-74596500I-90000J0D01*
G01*
X150910000Y-74596500D01*
G75*
G02*
X150820000Y-74506500I0J90000D01*
G01*
X150820000Y-74228500D01*
G75*
G02*
X150910000Y-74138500I90000J0D01*
G01*
G37*
%TD*%
%TO.C,C22*%
G36*
G01*
X152410000Y-105003500D02*
X152590000Y-105003500D01*
G75*
G02*
X152680000Y-105093500I0J-90000D01*
G01*
X152680000Y-105371500D01*
G75*
G02*
X152590000Y-105461500I-90000J0D01*
G01*
X152410000Y-105461500D01*
G75*
G02*
X152320000Y-105371500I0J90000D01*
G01*
X152320000Y-105093500D01*
G75*
G02*
X152410000Y-105003500I90000J0D01*
G01*
G37*
G36*
G01*
X152410000Y-104138500D02*
X152590000Y-104138500D01*
G75*
G02*
X152680000Y-104228500I0J-90000D01*
G01*
X152680000Y-104506500D01*
G75*
G02*
X152590000Y-104596500I-90000J0D01*
G01*
X152410000Y-104596500D01*
G75*
G02*
X152320000Y-104506500I0J90000D01*
G01*
X152320000Y-104228500D01*
G75*
G02*
X152410000Y-104138500I90000J0D01*
G01*
G37*
%TD*%
%TO.C,C21*%
G36*
G01*
X151910000Y-75003500D02*
X152090000Y-75003500D01*
G75*
G02*
X152180000Y-75093500I0J-90000D01*
G01*
X152180000Y-75371500D01*
G75*
G02*
X152090000Y-75461500I-90000J0D01*
G01*
X151910000Y-75461500D01*
G75*
G02*
X151820000Y-75371500I0J90000D01*
G01*
X151820000Y-75093500D01*
G75*
G02*
X151910000Y-75003500I90000J0D01*
G01*
G37*
G36*
G01*
X151910000Y-74138500D02*
X152090000Y-74138500D01*
G75*
G02*
X152180000Y-74228500I0J-90000D01*
G01*
X152180000Y-74506500D01*
G75*
G02*
X152090000Y-74596500I-90000J0D01*
G01*
X151910000Y-74596500D01*
G75*
G02*
X151820000Y-74506500I0J90000D01*
G01*
X151820000Y-74228500D01*
G75*
G02*
X151910000Y-74138500I90000J0D01*
G01*
G37*
%TD*%
%TO.C,C20*%
G36*
G01*
X151410000Y-105003500D02*
X151590000Y-105003500D01*
G75*
G02*
X151680000Y-105093500I0J-90000D01*
G01*
X151680000Y-105371500D01*
G75*
G02*
X151590000Y-105461500I-90000J0D01*
G01*
X151410000Y-105461500D01*
G75*
G02*
X151320000Y-105371500I0J90000D01*
G01*
X151320000Y-105093500D01*
G75*
G02*
X151410000Y-105003500I90000J0D01*
G01*
G37*
G36*
G01*
X151410000Y-104138500D02*
X151590000Y-104138500D01*
G75*
G02*
X151680000Y-104228500I0J-90000D01*
G01*
X151680000Y-104506500D01*
G75*
G02*
X151590000Y-104596500I-90000J0D01*
G01*
X151410000Y-104596500D01*
G75*
G02*
X151320000Y-104506500I0J90000D01*
G01*
X151320000Y-104228500D01*
G75*
G02*
X151410000Y-104138500I90000J0D01*
G01*
G37*
%TD*%
%TO.C,C19*%
G36*
G01*
X152910000Y-75003500D02*
X153090000Y-75003500D01*
G75*
G02*
X153180000Y-75093500I0J-90000D01*
G01*
X153180000Y-75371500D01*
G75*
G02*
X153090000Y-75461500I-90000J0D01*
G01*
X152910000Y-75461500D01*
G75*
G02*
X152820000Y-75371500I0J90000D01*
G01*
X152820000Y-75093500D01*
G75*
G02*
X152910000Y-75003500I90000J0D01*
G01*
G37*
G36*
G01*
X152910000Y-74138500D02*
X153090000Y-74138500D01*
G75*
G02*
X153180000Y-74228500I0J-90000D01*
G01*
X153180000Y-74506500D01*
G75*
G02*
X153090000Y-74596500I-90000J0D01*
G01*
X152910000Y-74596500D01*
G75*
G02*
X152820000Y-74506500I0J90000D01*
G01*
X152820000Y-74228500D01*
G75*
G02*
X152910000Y-74138500I90000J0D01*
G01*
G37*
%TD*%
%TO.C,C18*%
G36*
G01*
X150410000Y-105003500D02*
X150590000Y-105003500D01*
G75*
G02*
X150680000Y-105093500I0J-90000D01*
G01*
X150680000Y-105371500D01*
G75*
G02*
X150590000Y-105461500I-90000J0D01*
G01*
X150410000Y-105461500D01*
G75*
G02*
X150320000Y-105371500I0J90000D01*
G01*
X150320000Y-105093500D01*
G75*
G02*
X150410000Y-105003500I90000J0D01*
G01*
G37*
G36*
G01*
X150410000Y-104138500D02*
X150590000Y-104138500D01*
G75*
G02*
X150680000Y-104228500I0J-90000D01*
G01*
X150680000Y-104506500D01*
G75*
G02*
X150590000Y-104596500I-90000J0D01*
G01*
X150410000Y-104596500D01*
G75*
G02*
X150320000Y-104506500I0J90000D01*
G01*
X150320000Y-104228500D01*
G75*
G02*
X150410000Y-104138500I90000J0D01*
G01*
G37*
%TD*%
%TO.C,C17*%
G36*
G01*
X153910000Y-75003500D02*
X154090000Y-75003500D01*
G75*
G02*
X154180000Y-75093500I0J-90000D01*
G01*
X154180000Y-75371500D01*
G75*
G02*
X154090000Y-75461500I-90000J0D01*
G01*
X153910000Y-75461500D01*
G75*
G02*
X153820000Y-75371500I0J90000D01*
G01*
X153820000Y-75093500D01*
G75*
G02*
X153910000Y-75003500I90000J0D01*
G01*
G37*
G36*
G01*
X153910000Y-74138500D02*
X154090000Y-74138500D01*
G75*
G02*
X154180000Y-74228500I0J-90000D01*
G01*
X154180000Y-74506500D01*
G75*
G02*
X154090000Y-74596500I-90000J0D01*
G01*
X153910000Y-74596500D01*
G75*
G02*
X153820000Y-74506500I0J90000D01*
G01*
X153820000Y-74228500D01*
G75*
G02*
X153910000Y-74138500I90000J0D01*
G01*
G37*
%TD*%
%TO.C,C16*%
G36*
G01*
X149410000Y-105003500D02*
X149590000Y-105003500D01*
G75*
G02*
X149680000Y-105093500I0J-90000D01*
G01*
X149680000Y-105371500D01*
G75*
G02*
X149590000Y-105461500I-90000J0D01*
G01*
X149410000Y-105461500D01*
G75*
G02*
X149320000Y-105371500I0J90000D01*
G01*
X149320000Y-105093500D01*
G75*
G02*
X149410000Y-105003500I90000J0D01*
G01*
G37*
G36*
G01*
X149410000Y-104138500D02*
X149590000Y-104138500D01*
G75*
G02*
X149680000Y-104228500I0J-90000D01*
G01*
X149680000Y-104506500D01*
G75*
G02*
X149590000Y-104596500I-90000J0D01*
G01*
X149410000Y-104596500D01*
G75*
G02*
X149320000Y-104506500I0J90000D01*
G01*
X149320000Y-104228500D01*
G75*
G02*
X149410000Y-104138500I90000J0D01*
G01*
G37*
%TD*%
%TO.C,C15*%
G36*
G01*
X143796500Y-54210000D02*
X143796500Y-54390000D01*
G75*
G02*
X143706500Y-54480000I-90000J0D01*
G01*
X143428500Y-54480000D01*
G75*
G02*
X143338500Y-54390000I0J90000D01*
G01*
X143338500Y-54210000D01*
G75*
G02*
X143428500Y-54120000I90000J0D01*
G01*
X143706500Y-54120000D01*
G75*
G02*
X143796500Y-54210000I0J-90000D01*
G01*
G37*
G36*
G01*
X144661500Y-54210000D02*
X144661500Y-54390000D01*
G75*
G02*
X144571500Y-54480000I-90000J0D01*
G01*
X144293500Y-54480000D01*
G75*
G02*
X144203500Y-54390000I0J90000D01*
G01*
X144203500Y-54210000D01*
G75*
G02*
X144293500Y-54120000I90000J0D01*
G01*
X144571500Y-54120000D01*
G75*
G02*
X144661500Y-54210000I0J-90000D01*
G01*
G37*
%TD*%
%TO.C,C14*%
G36*
G01*
X177896500Y-105610000D02*
X177896500Y-105790000D01*
G75*
G02*
X177806500Y-105880000I-90000J0D01*
G01*
X177528500Y-105880000D01*
G75*
G02*
X177438500Y-105790000I0J90000D01*
G01*
X177438500Y-105610000D01*
G75*
G02*
X177528500Y-105520000I90000J0D01*
G01*
X177806500Y-105520000D01*
G75*
G02*
X177896500Y-105610000I0J-90000D01*
G01*
G37*
G36*
G01*
X178761500Y-105610000D02*
X178761500Y-105790000D01*
G75*
G02*
X178671500Y-105880000I-90000J0D01*
G01*
X178393500Y-105880000D01*
G75*
G02*
X178303500Y-105790000I0J90000D01*
G01*
X178303500Y-105610000D01*
G75*
G02*
X178393500Y-105520000I90000J0D01*
G01*
X178671500Y-105520000D01*
G75*
G02*
X178761500Y-105610000I0J-90000D01*
G01*
G37*
%TD*%
%TO.C,C13*%
G36*
G01*
X159796500Y-116710000D02*
X159796500Y-116890000D01*
G75*
G02*
X159706500Y-116980000I-90000J0D01*
G01*
X159428500Y-116980000D01*
G75*
G02*
X159338500Y-116890000I0J90000D01*
G01*
X159338500Y-116710000D01*
G75*
G02*
X159428500Y-116620000I90000J0D01*
G01*
X159706500Y-116620000D01*
G75*
G02*
X159796500Y-116710000I0J-90000D01*
G01*
G37*
G36*
G01*
X160661500Y-116710000D02*
X160661500Y-116890000D01*
G75*
G02*
X160571500Y-116980000I-90000J0D01*
G01*
X160293500Y-116980000D01*
G75*
G02*
X160203500Y-116890000I0J90000D01*
G01*
X160203500Y-116710000D01*
G75*
G02*
X160293500Y-116620000I90000J0D01*
G01*
X160571500Y-116620000D01*
G75*
G02*
X160661500Y-116710000I0J-90000D01*
G01*
G37*
%TD*%
%TO.C,C12*%
G36*
G01*
X182703500Y-68390000D02*
X182703500Y-68210000D01*
G75*
G02*
X182793500Y-68120000I90000J0D01*
G01*
X183071500Y-68120000D01*
G75*
G02*
X183161500Y-68210000I0J-90000D01*
G01*
X183161500Y-68390000D01*
G75*
G02*
X183071500Y-68480000I-90000J0D01*
G01*
X182793500Y-68480000D01*
G75*
G02*
X182703500Y-68390000I0J90000D01*
G01*
G37*
G36*
G01*
X181838500Y-68390000D02*
X181838500Y-68210000D01*
G75*
G02*
X181928500Y-68120000I90000J0D01*
G01*
X182206500Y-68120000D01*
G75*
G02*
X182296500Y-68210000I0J-90000D01*
G01*
X182296500Y-68390000D01*
G75*
G02*
X182206500Y-68480000I-90000J0D01*
G01*
X181928500Y-68480000D01*
G75*
G02*
X181838500Y-68390000I0J90000D01*
G01*
G37*
%TD*%
%TO.C,C11*%
G36*
G01*
X138203500Y-60390000D02*
X138203500Y-60210000D01*
G75*
G02*
X138293500Y-60120000I90000J0D01*
G01*
X138571500Y-60120000D01*
G75*
G02*
X138661500Y-60210000I0J-90000D01*
G01*
X138661500Y-60390000D01*
G75*
G02*
X138571500Y-60480000I-90000J0D01*
G01*
X138293500Y-60480000D01*
G75*
G02*
X138203500Y-60390000I0J90000D01*
G01*
G37*
G36*
G01*
X137338500Y-60390000D02*
X137338500Y-60210000D01*
G75*
G02*
X137428500Y-60120000I90000J0D01*
G01*
X137706500Y-60120000D01*
G75*
G02*
X137796500Y-60210000I0J-90000D01*
G01*
X137796500Y-60390000D01*
G75*
G02*
X137706500Y-60480000I-90000J0D01*
G01*
X137428500Y-60480000D01*
G75*
G02*
X137338500Y-60390000I0J90000D01*
G01*
G37*
%TD*%
%TO.C,C10*%
G36*
G01*
X182296500Y-65210000D02*
X182296500Y-65390000D01*
G75*
G02*
X182206500Y-65480000I-90000J0D01*
G01*
X181928500Y-65480000D01*
G75*
G02*
X181838500Y-65390000I0J90000D01*
G01*
X181838500Y-65210000D01*
G75*
G02*
X181928500Y-65120000I90000J0D01*
G01*
X182206500Y-65120000D01*
G75*
G02*
X182296500Y-65210000I0J-90000D01*
G01*
G37*
G36*
G01*
X183161500Y-65210000D02*
X183161500Y-65390000D01*
G75*
G02*
X183071500Y-65480000I-90000J0D01*
G01*
X182793500Y-65480000D01*
G75*
G02*
X182703500Y-65390000I0J90000D01*
G01*
X182703500Y-65210000D01*
G75*
G02*
X182793500Y-65120000I90000J0D01*
G01*
X183071500Y-65120000D01*
G75*
G02*
X183161500Y-65210000I0J-90000D01*
G01*
G37*
%TD*%
%TO.C,C9*%
G36*
G01*
X173410000Y-105503500D02*
X173590000Y-105503500D01*
G75*
G02*
X173680000Y-105593500I0J-90000D01*
G01*
X173680000Y-105871500D01*
G75*
G02*
X173590000Y-105961500I-90000J0D01*
G01*
X173410000Y-105961500D01*
G75*
G02*
X173320000Y-105871500I0J90000D01*
G01*
X173320000Y-105593500D01*
G75*
G02*
X173410000Y-105503500I90000J0D01*
G01*
G37*
G36*
G01*
X173410000Y-104638500D02*
X173590000Y-104638500D01*
G75*
G02*
X173680000Y-104728500I0J-90000D01*
G01*
X173680000Y-105006500D01*
G75*
G02*
X173590000Y-105096500I-90000J0D01*
G01*
X173410000Y-105096500D01*
G75*
G02*
X173320000Y-105006500I0J90000D01*
G01*
X173320000Y-104728500D01*
G75*
G02*
X173410000Y-104638500I90000J0D01*
G01*
G37*
%TD*%
%TO.C,C8*%
G36*
G01*
X155090000Y-114596500D02*
X154910000Y-114596500D01*
G75*
G02*
X154820000Y-114506500I0J90000D01*
G01*
X154820000Y-114228500D01*
G75*
G02*
X154910000Y-114138500I90000J0D01*
G01*
X155090000Y-114138500D01*
G75*
G02*
X155180000Y-114228500I0J-90000D01*
G01*
X155180000Y-114506500D01*
G75*
G02*
X155090000Y-114596500I-90000J0D01*
G01*
G37*
G36*
G01*
X155090000Y-115461500D02*
X154910000Y-115461500D01*
G75*
G02*
X154820000Y-115371500I0J90000D01*
G01*
X154820000Y-115093500D01*
G75*
G02*
X154910000Y-115003500I90000J0D01*
G01*
X155090000Y-115003500D01*
G75*
G02*
X155180000Y-115093500I0J-90000D01*
G01*
X155180000Y-115371500D01*
G75*
G02*
X155090000Y-115461500I-90000J0D01*
G01*
G37*
%TD*%
%TO.C,C7*%
G36*
G01*
X168296500Y-124210000D02*
X168296500Y-124390000D01*
G75*
G02*
X168206500Y-124480000I-90000J0D01*
G01*
X167928500Y-124480000D01*
G75*
G02*
X167838500Y-124390000I0J90000D01*
G01*
X167838500Y-124210000D01*
G75*
G02*
X167928500Y-124120000I90000J0D01*
G01*
X168206500Y-124120000D01*
G75*
G02*
X168296500Y-124210000I0J-90000D01*
G01*
G37*
G36*
G01*
X169161500Y-124210000D02*
X169161500Y-124390000D01*
G75*
G02*
X169071500Y-124480000I-90000J0D01*
G01*
X168793500Y-124480000D01*
G75*
G02*
X168703500Y-124390000I0J90000D01*
G01*
X168703500Y-124210000D01*
G75*
G02*
X168793500Y-124120000I90000J0D01*
G01*
X169071500Y-124120000D01*
G75*
G02*
X169161500Y-124210000I0J-90000D01*
G01*
G37*
%TD*%
%TO.C,C6*%
G36*
G01*
X168296500Y-123210000D02*
X168296500Y-123390000D01*
G75*
G02*
X168206500Y-123480000I-90000J0D01*
G01*
X167928500Y-123480000D01*
G75*
G02*
X167838500Y-123390000I0J90000D01*
G01*
X167838500Y-123210000D01*
G75*
G02*
X167928500Y-123120000I90000J0D01*
G01*
X168206500Y-123120000D01*
G75*
G02*
X168296500Y-123210000I0J-90000D01*
G01*
G37*
G36*
G01*
X169161500Y-123210000D02*
X169161500Y-123390000D01*
G75*
G02*
X169071500Y-123480000I-90000J0D01*
G01*
X168793500Y-123480000D01*
G75*
G02*
X168703500Y-123390000I0J90000D01*
G01*
X168703500Y-123210000D01*
G75*
G02*
X168793500Y-123120000I90000J0D01*
G01*
X169071500Y-123120000D01*
G75*
G02*
X169161500Y-123210000I0J-90000D01*
G01*
G37*
%TD*%
%TO.C,C5*%
G36*
G01*
X168296500Y-122210000D02*
X168296500Y-122390000D01*
G75*
G02*
X168206500Y-122480000I-90000J0D01*
G01*
X167928500Y-122480000D01*
G75*
G02*
X167838500Y-122390000I0J90000D01*
G01*
X167838500Y-122210000D01*
G75*
G02*
X167928500Y-122120000I90000J0D01*
G01*
X168206500Y-122120000D01*
G75*
G02*
X168296500Y-122210000I0J-90000D01*
G01*
G37*
G36*
G01*
X169161500Y-122210000D02*
X169161500Y-122390000D01*
G75*
G02*
X169071500Y-122480000I-90000J0D01*
G01*
X168793500Y-122480000D01*
G75*
G02*
X168703500Y-122390000I0J90000D01*
G01*
X168703500Y-122210000D01*
G75*
G02*
X168793500Y-122120000I90000J0D01*
G01*
X169071500Y-122120000D01*
G75*
G02*
X169161500Y-122210000I0J-90000D01*
G01*
G37*
%TD*%
%TO.C,C4*%
G36*
G01*
X168296500Y-121210000D02*
X168296500Y-121390000D01*
G75*
G02*
X168206500Y-121480000I-90000J0D01*
G01*
X167928500Y-121480000D01*
G75*
G02*
X167838500Y-121390000I0J90000D01*
G01*
X167838500Y-121210000D01*
G75*
G02*
X167928500Y-121120000I90000J0D01*
G01*
X168206500Y-121120000D01*
G75*
G02*
X168296500Y-121210000I0J-90000D01*
G01*
G37*
G36*
G01*
X169161500Y-121210000D02*
X169161500Y-121390000D01*
G75*
G02*
X169071500Y-121480000I-90000J0D01*
G01*
X168793500Y-121480000D01*
G75*
G02*
X168703500Y-121390000I0J90000D01*
G01*
X168703500Y-121210000D01*
G75*
G02*
X168793500Y-121120000I90000J0D01*
G01*
X169071500Y-121120000D01*
G75*
G02*
X169161500Y-121210000I0J-90000D01*
G01*
G37*
%TD*%
%TO.C,C3*%
G36*
G01*
X166703500Y-115890000D02*
X166703500Y-115710000D01*
G75*
G02*
X166793500Y-115620000I90000J0D01*
G01*
X167071500Y-115620000D01*
G75*
G02*
X167161500Y-115710000I0J-90000D01*
G01*
X167161500Y-115890000D01*
G75*
G02*
X167071500Y-115980000I-90000J0D01*
G01*
X166793500Y-115980000D01*
G75*
G02*
X166703500Y-115890000I0J90000D01*
G01*
G37*
G36*
G01*
X165838500Y-115890000D02*
X165838500Y-115710000D01*
G75*
G02*
X165928500Y-115620000I90000J0D01*
G01*
X166206500Y-115620000D01*
G75*
G02*
X166296500Y-115710000I0J-90000D01*
G01*
X166296500Y-115890000D01*
G75*
G02*
X166206500Y-115980000I-90000J0D01*
G01*
X165928500Y-115980000D01*
G75*
G02*
X165838500Y-115890000I0J90000D01*
G01*
G37*
%TD*%
%TO.C,C2*%
G36*
G01*
X166703500Y-114890000D02*
X166703500Y-114710000D01*
G75*
G02*
X166793500Y-114620000I90000J0D01*
G01*
X167071500Y-114620000D01*
G75*
G02*
X167161500Y-114710000I0J-90000D01*
G01*
X167161500Y-114890000D01*
G75*
G02*
X167071500Y-114980000I-90000J0D01*
G01*
X166793500Y-114980000D01*
G75*
G02*
X166703500Y-114890000I0J90000D01*
G01*
G37*
G36*
G01*
X165838500Y-114890000D02*
X165838500Y-114710000D01*
G75*
G02*
X165928500Y-114620000I90000J0D01*
G01*
X166206500Y-114620000D01*
G75*
G02*
X166296500Y-114710000I0J-90000D01*
G01*
X166296500Y-114890000D01*
G75*
G02*
X166206500Y-114980000I-90000J0D01*
G01*
X165928500Y-114980000D01*
G75*
G02*
X165838500Y-114890000I0J90000D01*
G01*
G37*
%TD*%
%TO.C,C1*%
G36*
G01*
X117090000Y-50096500D02*
X116910000Y-50096500D01*
G75*
G02*
X116820000Y-50006500I0J90000D01*
G01*
X116820000Y-49728500D01*
G75*
G02*
X116910000Y-49638500I90000J0D01*
G01*
X117090000Y-49638500D01*
G75*
G02*
X117180000Y-49728500I0J-90000D01*
G01*
X117180000Y-50006500D01*
G75*
G02*
X117090000Y-50096500I-90000J0D01*
G01*
G37*
G36*
G01*
X117090000Y-50961500D02*
X116910000Y-50961500D01*
G75*
G02*
X116820000Y-50871500I0J90000D01*
G01*
X116820000Y-50593500D01*
G75*
G02*
X116910000Y-50503500I90000J0D01*
G01*
X117090000Y-50503500D01*
G75*
G02*
X117180000Y-50593500I0J-90000D01*
G01*
X117180000Y-50871500D01*
G75*
G02*
X117090000Y-50961500I-90000J0D01*
G01*
G37*
%TD*%
%TO.C,3.6pF2*%
G36*
G01*
X119910000Y-104003500D02*
X120090000Y-104003500D01*
G75*
G02*
X120180000Y-104093500I0J-90000D01*
G01*
X120180000Y-104371500D01*
G75*
G02*
X120090000Y-104461500I-90000J0D01*
G01*
X119910000Y-104461500D01*
G75*
G02*
X119820000Y-104371500I0J90000D01*
G01*
X119820000Y-104093500D01*
G75*
G02*
X119910000Y-104003500I90000J0D01*
G01*
G37*
G36*
G01*
X119910000Y-103138500D02*
X120090000Y-103138500D01*
G75*
G02*
X120180000Y-103228500I0J-90000D01*
G01*
X120180000Y-103506500D01*
G75*
G02*
X120090000Y-103596500I-90000J0D01*
G01*
X119910000Y-103596500D01*
G75*
G02*
X119820000Y-103506500I0J90000D01*
G01*
X119820000Y-103228500D01*
G75*
G02*
X119910000Y-103138500I90000J0D01*
G01*
G37*
%TD*%
%TO.C,3.6pF1*%
G36*
G01*
X168910000Y-52703500D02*
X169090000Y-52703500D01*
G75*
G02*
X169180000Y-52793500I0J-90000D01*
G01*
X169180000Y-53071500D01*
G75*
G02*
X169090000Y-53161500I-90000J0D01*
G01*
X168910000Y-53161500D01*
G75*
G02*
X168820000Y-53071500I0J90000D01*
G01*
X168820000Y-52793500D01*
G75*
G02*
X168910000Y-52703500I90000J0D01*
G01*
G37*
G36*
G01*
X168910000Y-51838500D02*
X169090000Y-51838500D01*
G75*
G02*
X169180000Y-51928500I0J-90000D01*
G01*
X169180000Y-52206500D01*
G75*
G02*
X169090000Y-52296500I-90000J0D01*
G01*
X168910000Y-52296500D01*
G75*
G02*
X168820000Y-52206500I0J90000D01*
G01*
X168820000Y-51928500D01*
G75*
G02*
X168910000Y-51838500I90000J0D01*
G01*
G37*
%TD*%
M02*
